<?xml version="1.0" encoding="UTF-8" standalone="no"?>
<!DOCTYPE svg PUBLIC "-//W3C//DTD SVG 1.1//EN" "http://www.w3.org/Graphics/SVG/1.1/DTD/svg11.dtd">
<!-- Created with Vectornator (http://vectornator.io/) -->
<svg height="100%" stroke-miterlimit="10" style="fill-rule:nonzero;clip-rule:evenodd;stroke-linecap:round;stroke-linejoin:round;" version="1.1" viewBox="0 0 419.58 297.675" width="100%" xml:space="preserve" xmlns="http://www.w3.org/2000/svg" xmlns:xlink="http://www.w3.org/1999/xlink">
<defs>
<linearGradient gradientTransform="matrix(1.1878 0 0 1.2141 -65.3834 -24.4403)" gradientUnits="userSpaceOnUse" id="LinearGradient" x1="65.5944" x2="408.288" y1="144.731" y2="142.721">
<stop offset="0.34777" stop-color="#76ace0"/>
<stop offset="1" stop-color="#000000"/>
</linearGradient>
<linearGradient gradientTransform="matrix(1.427 0 0 1.41456 -138.471 -44.0022)" gradientUnits="userSpaceOnUse" id="LinearGradient_2" x1="97.0365" x2="200.735" y1="183.548" y2="183.548">
<stop offset="0.34777" stop-color="#76ace0"/>
<stop offset="1" stop-color="#000000"/>
</linearGradient>
<linearGradient gradientTransform="matrix(1.427 0 0 1.41456 -138.471 -44.0022)" gradientUnits="userSpaceOnUse" id="LinearGradient_3" x1="131.603" x2="166.169" y1="140.052" y2="140.052">
<stop offset="0.34777" stop-color="#76ace0"/>
<stop offset="1" stop-color="#000000"/>
</linearGradient>
<linearGradient gradientTransform="matrix(1.427 0 0 1.41456 -138.471 -44.0022)" gradientUnits="userSpaceOnUse" id="LinearGradient_4" x1="125.842" x2="171.93" y1="212.545" y2="212.545">
<stop offset="0.34777" stop-color="#76ace0"/>
<stop offset="1" stop-color="#000000"/>
</linearGradient>
<linearGradient gradientTransform="matrix(2.04184 0 0 1.65063 -179.06 29.9249)" gradientUnits="userSpaceOnUse" id="LinearGradient_5" x1="160.168" x2="293.127" y1="113.917" y2="113.627">
<stop offset="0.34777" stop-color="#76ace0"/>
<stop offset="1" stop-color="#000000"/>
</linearGradient>
</defs>
<clipPath id="ArtboardFrame">
<rect height="297.675" width="419.58" x="0" y="0"/>
</clipPath>
<g clip-path="url(#ArtboardFrame)" id="Cloud">
<path d="M328.961 297.675L49.326 297.675C42.628 297.675 49.326 303.923 49.326 297.675C49.326 291.427 215.949 279.317 222.647 279.317L328.961 275.625C365.996 275.625 395.94 247.695 395.94 213.15C395.94 178.605 365.996 150.675 328.961 150.675L309.261 150.675C302.563 150.675 297.441 145.898 297.441 139.65L297.441 121.275C297.441 66.5175 249.767 22.05 191.062 22.05C132.356 22.05 84.6822 66.5175 84.6822 121.275C84.6822 127.523 79.5602 132.3 72.8623 132.3C66.1643 132.3 61.0424 127.523 61.0424 121.275C61.0424 54.39 119.354-3.70492e-14 191.062-3.70492e-14C262.769-3.70492e-14 321.081 54.39 321.081 121.275L321.081 128.625L328.961 128.625C378.998 128.625 419.58 166.477 419.58 213.15C419.58 259.823 378.998 297.675 328.961 297.675Z" fill="url(#LinearGradient)" fill-rule="nonzero" opacity="1" stroke="none"/>
</g>
<g clip-path="url(#ArtboardFrame)" id="Desk">
<path d="M131.536 166.416L16.442 166.416C7.35779 166.416 0 173.758 0 182.823L0 248.453C0 257.518 7.35779 264.86 16.442 264.86L53.8696 264.86C55.9006 264.86 57.547 263.214 57.547 261.183L57.547 252.13C57.547 250.099 55.9006 248.453 53.8696 248.453L20.1194 248.453C18.0884 248.453 16.442 246.806 16.442 244.775L16.442 186.501C16.442 184.47 18.0884 182.823 20.1194 182.823L127.859 182.823C129.89 182.823 131.536 184.47 131.536 186.501L131.536 244.775C131.536 246.806 129.89 248.453 127.859 248.453L94.1084 248.453C92.0774 248.453 90.431 250.099 90.431 252.13L90.431 261.183C90.431 263.214 92.0774 264.86 94.1084 264.86L131.536 264.86C140.62 264.86 147.978 257.518 147.978 248.453L147.978 182.823C147.978 173.758 140.62 166.416 131.536 166.416Z" fill="url(#LinearGradient_2)" fill-rule="nonzero" opacity="1" stroke="none"/>
<path d="M49.326 166.416C49.326 152.822 60.3668 141.805 73.989 141.805C87.6112 141.805 98.652 152.822 98.652 166.416" fill="url(#LinearGradient_3)" fill-rule="nonzero" opacity="1" stroke="none"/>
<path d="M77.5898 232.045L89.9213 281.268L58.0485 281.268L70.38 232.045L77.5898 232.045M90.431 215.638L57.547 215.638L41.105 281.268L41.105 297.675L106.873 297.675L106.873 281.268L90.431 215.638L90.431 215.638Z" fill="url(#LinearGradient_4)" fill-rule="nonzero" opacity="1" stroke="none"/>
</g>
<g id="Caption">
<g fill="url(#LinearGradient_5)" opacity="1" stroke="none">
<path d="M181.396 219.998L181.396 222.638C181.396 223.958 181.146 225.208 180.646 226.388C180.146 227.568 179.456 228.618 178.576 229.538C177.696 230.458 176.666 231.188 175.486 231.728C174.306 232.268 173.036 232.538 171.676 232.538C170.516 232.538 169.336 232.378 168.136 232.058C166.936 231.738 165.856 231.178 164.896 230.378C163.936 229.578 163.146 228.548 162.526 227.288C161.906 226.028 161.596 224.418 161.596 222.458L161.596 198.938C161.596 197.538 161.836 196.238 162.316 195.038C162.796 193.838 163.476 192.798 164.356 191.918C165.236 191.038 166.286 190.348 167.506 189.848C168.726 189.348 170.076 189.098 171.556 189.098C174.436 189.098 176.776 190.038 178.576 191.918C179.456 192.838 180.146 193.928 180.646 195.188C181.146 196.448 181.396 197.818 181.396 199.298L181.396 201.698L175.276 201.698L175.276 199.658C175.276 198.458 174.936 197.418 174.256 196.538C173.576 195.658 172.656 195.218 171.496 195.218C169.976 195.218 168.966 195.688 168.466 196.628C167.966 197.568 167.716 198.758 167.716 200.198L167.716 222.038C167.716 223.278 167.986 224.318 168.526 225.158C169.066 225.998 170.036 226.418 171.436 226.418C171.836 226.418 172.266 226.348 172.726 226.208C173.186 226.068 173.616 225.838 174.016 225.518C174.376 225.198 174.676 224.758 174.916 224.198C175.156 223.638 175.276 222.938 175.276 222.098L175.276 219.998L181.396 219.998Z"/>
<path d="M185.656 189.458L191.776 189.458L191.776 223.598C191.776 224.758 191.986 225.548 192.406 225.968C192.826 226.388 193.616 226.658 194.776 226.778L194.776 232.538C193.376 232.538 192.116 232.428 190.996 232.208C189.876 231.988 188.916 231.558 188.116 230.918C187.316 230.318 186.706 229.468 186.286 228.368C185.866 227.268 185.656 225.818 185.656 224.018L185.656 189.458Z"/>
<path d="M196.636 211.958C196.636 210.718 196.716 209.578 196.876 208.538C197.036 207.498 197.336 206.578 197.776 205.778C198.496 204.458 199.526 203.398 200.866 202.598C202.206 201.798 203.836 201.398 205.756 201.398C207.676 201.398 209.306 201.798 210.646 202.598C211.986 203.398 213.016 204.458 213.736 205.778C214.176 206.578 214.476 207.498 214.636 208.538C214.796 209.578 214.876 210.718 214.876 211.958L214.876 221.978C214.876 223.218 214.796 224.358 214.636 225.398C214.476 226.438 214.176 227.358 213.736 228.158C213.016 229.478 211.986 230.538 210.646 231.338C209.306 232.138 207.676 232.538 205.756 232.538C203.836 232.538 202.206 232.138 200.866 231.338C199.526 230.538 198.496 229.478 197.776 228.158C197.336 227.358 197.036 226.438 196.876 225.398C196.716 224.358 196.636 223.218 196.636 221.978L196.636 211.958ZM202.756 222.938C202.756 224.098 203.026 224.968 203.566 225.548C204.106 226.128 204.836 226.418 205.756 226.418C206.676 226.418 207.406 226.128 207.946 225.548C208.486 224.968 208.756 224.098 208.756 222.938L208.756 210.998C208.756 209.838 208.486 208.968 207.946 208.388C207.406 207.808 206.676 207.518 205.756 207.518C204.836 207.518 204.106 207.808 203.566 208.388C203.026 208.968 202.756 209.838 202.756 210.998L202.756 222.938Z"/>
<path d="M237.676 201.758L237.676 232.178L231.556 232.178L231.556 229.238L231.436 229.238C230.796 230.198 230.026 230.988 229.126 231.608C228.226 232.228 227.076 232.538 225.676 232.538C224.916 232.538 224.156 232.408 223.396 232.148C222.636 231.888 221.956 231.458 221.356 230.858C220.756 230.258 220.276 229.488 219.916 228.548C219.556 227.608 219.376 226.458 219.376 225.098L219.376 201.758L225.496 201.758L225.496 222.818C225.496 223.938 225.756 224.818 226.276 225.458C226.796 226.098 227.536 226.418 228.496 226.418C229.656 226.418 230.456 226.058 230.896 225.338C231.336 224.618 231.556 223.578 231.556 222.218L231.556 201.758L237.676 201.758Z"/>
<path d="M248.836 222.278C248.836 223.518 249.076 224.518 249.556 225.278C250.036 226.038 250.796 226.418 251.836 226.418C252.756 226.418 253.496 226.068 254.056 225.368C254.616 224.668 254.896 223.758 254.896 222.638L254.896 210.818C254.896 209.858 254.606 209.068 254.026 208.448C253.446 207.828 252.716 207.518 251.836 207.518C250.676 207.518 249.886 207.878 249.466 208.598C249.046 209.318 248.836 210.158 248.836 211.118L248.836 222.278ZM254.896 232.178L254.896 229.418C254.496 229.858 254.116 230.268 253.756 230.648C253.396 231.028 252.996 231.358 252.556 231.638C252.116 231.918 251.616 232.138 251.056 232.298C250.496 232.458 249.836 232.538 249.076 232.538C246.516 232.538 244.736 231.578 243.736 229.658C243.376 228.978 243.116 228.138 242.956 227.138C242.796 226.138 242.716 224.798 242.716 223.118L242.716 211.538C242.716 209.338 242.776 207.718 242.896 206.678C243.136 204.678 244.076 203.178 245.716 202.178C246.476 201.658 247.616 201.398 249.136 201.398C250.336 201.398 251.406 201.668 252.346 202.208C253.286 202.748 254.096 203.518 254.776 204.518L254.896 204.518L254.896 189.458L261.016 189.458L261.016 232.178L254.896 232.178Z"/>
<path d="M263.476 201.758L269.956 201.758L274.156 220.718L274.276 220.718L278.416 201.758L284.716 201.758L275.956 237.458C275.636 238.818 275.186 239.938 274.606 240.818C274.026 241.698 273.356 242.418 272.596 242.978C271.836 243.538 271.026 243.928 270.166 244.148C269.306 244.368 268.416 244.478 267.496 244.478L265.816 244.478L265.816 238.718L267.196 238.718C267.796 238.718 268.316 238.638 268.756 238.478C269.196 238.318 269.596 237.958 269.956 237.398C270.276 236.838 270.576 236.048 270.856 235.028C271.136 234.008 271.456 232.598 271.816 230.798L263.476 201.758Z"/>
<path d="M287.536 232.178L287.536 189.458L296.596 189.458C300.116 189.458 302.786 190.418 304.606 192.338C306.426 194.258 307.336 196.978 307.336 200.498L307.336 220.478C307.336 224.478 306.366 227.428 304.426 229.328C302.486 231.228 299.696 232.178 296.056 232.178L287.536 232.178ZM293.656 195.218L293.656 226.418L296.476 226.418C298.196 226.418 299.416 225.988 300.136 225.128C300.856 224.268 301.216 222.918 301.216 221.078L301.216 200.498C301.216 198.818 300.876 197.518 300.196 196.598C299.516 195.678 298.276 195.218 296.476 195.218L293.656 195.218Z"/>
<path d="M330.436 219.278L318.316 219.278L318.316 223.418C318.316 224.378 318.586 225.118 319.126 225.638C319.666 226.158 320.396 226.418 321.316 226.418C322.476 226.418 323.246 226.078 323.626 225.398C324.006 224.718 324.236 224.038 324.316 223.358L330.436 223.358C330.436 226.038 329.616 228.198 327.976 229.838C327.176 230.678 326.216 231.338 325.096 231.818C323.976 232.298 322.716 232.538 321.316 232.538C319.396 232.538 317.766 232.138 316.426 231.338C315.086 230.538 314.056 229.478 313.336 228.158C312.896 227.358 312.596 226.438 312.436 225.398C312.276 224.358 312.196 223.218 312.196 221.978L312.196 211.958C312.196 210.718 312.276 209.578 312.436 208.538C312.596 207.498 312.896 206.578 313.336 205.778C314.056 204.458 315.086 203.398 316.426 202.598C317.766 201.798 319.396 201.398 321.316 201.398C322.716 201.398 323.986 201.638 325.126 202.118C326.266 202.598 327.236 203.258 328.036 204.098C329.636 205.898 330.436 208.158 330.436 210.878L330.436 219.278ZM318.316 214.478L324.316 214.478L324.316 210.998C324.316 209.838 324.046 208.968 323.506 208.388C322.966 207.808 322.236 207.518 321.316 207.518C320.396 207.518 319.666 207.808 319.126 208.388C318.586 208.968 318.316 209.838 318.316 210.998L318.316 214.478Z"/>
<path d="M346.036 210.278C345.996 209.238 345.666 208.458 345.046 207.938C344.426 207.418 343.716 207.158 342.916 207.158C341.956 207.158 341.216 207.468 340.696 208.088C340.176 208.708 339.916 209.418 339.916 210.218C339.916 210.778 340.056 211.328 340.336 211.868C340.616 212.408 341.336 212.898 342.496 213.338L346.096 214.778C348.376 215.658 349.946 216.858 350.806 218.378C351.666 219.898 352.096 221.558 352.096 223.358C352.096 224.638 351.866 225.828 351.406 226.928C350.946 228.028 350.316 228.998 349.516 229.838C348.716 230.678 347.756 231.338 346.636 231.818C345.516 232.298 344.296 232.538 342.976 232.538C340.496 232.538 338.416 231.758 336.736 230.198C335.896 229.438 335.216 228.488 334.696 227.348C334.176 226.208 333.896 224.878 333.856 223.358L339.616 223.358C339.736 224.198 340.026 224.978 340.486 225.698C340.946 226.418 341.756 226.778 342.916 226.778C343.796 226.778 344.586 226.488 345.286 225.908C345.986 225.328 346.336 224.518 346.336 223.478C346.336 222.638 346.116 221.918 345.676 221.318C345.236 220.718 344.436 220.198 343.276 219.758L340.336 218.678C338.416 217.958 336.906 216.888 335.806 215.468C334.706 214.048 334.156 212.318 334.156 210.278C334.156 208.998 334.396 207.808 334.876 206.708C335.356 205.608 336.016 204.658 336.856 203.858C337.656 203.058 338.596 202.448 339.676 202.028C340.756 201.608 341.916 201.398 343.156 201.398C344.396 201.398 345.546 201.618 346.606 202.058C347.666 202.498 348.576 203.118 349.336 203.918C350.096 204.718 350.696 205.668 351.136 206.768C351.576 207.868 351.796 209.038 351.796 210.278L346.036 210.278Z"/>
<path d="M356.056 232.178L356.056 189.458L362.176 189.458L362.176 215.018L362.296 215.018L369.676 201.758L375.796 201.758L368.536 214.118L377.296 232.178L370.636 232.178L365.116 219.038L362.176 223.658L362.176 232.178L356.056 232.178Z"/>
</g>
</g>
</svg>
