<?xml version="1.0" encoding="UTF-8" standalone="no"?>
<!DOCTYPE svg PUBLIC "-//W3C//DTD SVG 1.1//EN" "http://www.w3.org/Graphics/SVG/1.1/DTD/svg11.dtd">
<!-- Created with Vectornator (http://vectornator.io/) -->
<svg height="100%" stroke-miterlimit="10" style="fill-rule:nonzero;clip-rule:evenodd;stroke-linecap:round;stroke-linejoin:round;" version="1.1" viewBox="0 0 1024 1024" width="100%" xml:space="preserve" xmlns="http://www.w3.org/2000/svg" xmlns:xlink="http://www.w3.org/1999/xlink">
<defs>
<filter color-interpolation-filters="sRGB" filterUnits="userSpaceOnUse" height="327.051" id="Filter" width="198.523" x="830.366" y="454.414">
<feDropShadow dx="-3.67321e-05" dy="10" flood-color="#82b8f3" flood-opacity="1" in="SourceGraphic" result="Shadow" stdDeviation="5"/>
</filter>
<filter color-interpolation-filters="sRGB" filterUnits="userSpaceOnUse" height="258.396" id="Filter_2" width="535.336" x="334.397" y="686.649">
<feDropShadow dx="-3.67321e-05" dy="10" flood-color="#82b8f3" flood-opacity="1" in="SourceGraphic" result="Shadow" stdDeviation="5"/>
</filter>
<filter color-interpolation-filters="sRGB" filterUnits="userSpaceOnUse" height="350.891" id="Filter_3" width="434.053" x="565.456" y="168.082">
<feDropShadow dx="-3.67321e-05" dy="10" flood-color="#82b8f3" flood-opacity="1" in="SourceGraphic" result="Shadow" stdDeviation="5"/>
</filter>
<filter color-interpolation-filters="sRGB" filterUnits="userSpaceOnUse" height="88.3391" id="Filter_4" width="282.944" x="329.995" y="204.183">
<feDropShadow dx="-3.67321e-05" dy="10" flood-color="#82b8f3" flood-opacity="1" in="SourceGraphic" result="Shadow" stdDeviation="5"/>
</filter>
<filter color-interpolation-filters="sRGB" filterUnits="userSpaceOnUse" height="314.453" id="Filter_5" width="184.81" x="59.975" y="318.547">
<feDropShadow dx="-3.67321e-05" dy="10" flood-color="#82b8f3" flood-opacity="1" in="SourceGraphic" result="Shadow" stdDeviation="5"/>
</filter>
<filter color-interpolation-filters="sRGB" filterUnits="userSpaceOnUse" height="237.652" id="Filter_6" width="282.864" x="114.727" y="592.967">
<feDropShadow dx="-3.67321e-05" dy="10" flood-color="#82b8f3" flood-opacity="1" in="SourceGraphic" result="Shadow" stdDeviation="5"/>
</filter>
<filter color-interpolation-filters="sRGB" filterUnits="userSpaceOnUse" height="178.181" id="Filter_7" width="194.329" x="196.477" y="207.828">
<feDropShadow dx="-3.67321e-05" dy="10" flood-color="#82b8f3" flood-opacity="1" in="SourceGraphic" result="Shadow" stdDeviation="5"/>
</filter>
<clipPath id="TextBounds">
<rect height="381.948" width="872.824" x="109.813" y="320.878"/>
</clipPath>
<g id="Fill">
<path clip-path="url(#TextBounds)" d="M260.732 400.752C261.843 398.421 263.198 396.779 264.797 395.825C266.396 394.871 268.054 394.569 269.773 394.917C271.368 395.24 272.76 396.097 273.947 397.487C275.135 398.878 275.8 400.801 275.941 403.258C272.385 420.809 268.819 437.783 265.242 454.18C261.664 470.577 257.607 487.452 253.069 504.805C253.069 504.805 253.118 504.878 253.216 505.026L253.032 504.989C252.785 505.578 252.618 506.087 252.531 506.516C252.444 506.946 252.351 507.406 252.251 507.897C251.117 509.712 249.806 510.979 248.318 511.7C246.831 512.421 245.351 512.632 243.878 512.334C241.668 511.886 239.781 510.482 238.215 508.12C238.069 507.58 237.91 507.1 237.74 506.682C237.569 506.264 237.398 505.846 237.227 505.428L237.043 505.391L237.117 505.023C234.216 496.641 231.123 488.571 227.839 480.815C224.555 473.058 221.123 465.399 217.544 457.838C213.964 450.277 210.281 442.759 206.492 435.283C202.704 427.808 198.794 420.148 194.761 412.303C193.443 418.808 192.169 425.098 190.938 431.174C189.707 437.249 188.464 443.386 187.208 449.584C185.953 455.783 184.672 462.263 183.366 469.026C182.059 475.789 180.611 483.098 179.019 490.953C178.325 493.752 177.067 495.701 175.247 496.802C173.427 497.902 171.596 498.266 169.755 497.893C168.037 497.545 166.572 496.577 165.36 494.99C164.148 493.403 163.632 491.222 163.811 488.447C167.167 471.878 170.537 455.087 173.919 438.076C177.302 421.064 180.671 404.274 184.028 387.704C184.966 385.595 186.235 384.063 187.834 383.109C189.432 382.155 191.091 381.852 192.809 382.2C194.528 382.548 196.232 383.596 197.922 385.344C202.201 393.239 206.387 400.955 210.482 408.492C214.577 416.03 218.574 423.58 222.473 431.142C226.371 438.703 230.085 446.388 233.615 454.194C237.144 462 240.495 470.058 243.667 478.367C246.893 464.966 249.854 452.085 252.549 439.726C255.245 427.367 257.972 414.376 260.732 400.752Z"/>
<path clip-path="url(#TextBounds)" d="M337.502 506.193C340.279 505.733 342.513 506.058 344.205 507.167C345.897 508.277 346.98 509.71 347.454 511.467C347.929 513.225 347.691 515.029 346.741 516.881C345.791 518.733 344.013 520.098 341.408 520.975C336.885 522.487 332.093 523.752 327.031 524.771C321.969 525.79 316.97 526.183 312.034 525.95C307.098 525.716 302.379 524.728 297.877 522.986C293.374 521.243 289.273 518.464 285.574 514.648C281.141 510.044 278.189 504.431 276.719 497.809C275.25 491.186 275.119 484.579 276.327 477.988C277.534 471.397 280.011 465.318 283.758 459.752C287.505 454.187 292.452 450.11 298.598 447.522C305.015 444.86 311.73 443.25 318.743 442.69C325.756 442.13 332.489 443.271 338.941 446.111C342.106 447.519 344.796 449.693 347.011 452.633C349.226 455.574 350.845 458.777 351.868 462.242C352.891 465.708 353.11 469.202 352.524 472.725C351.938 476.248 350.414 479.357 347.951 482.052C345.168 485.066 341.571 487.372 337.158 488.97C332.746 490.567 328.07 491.728 323.132 492.453C318.194 493.178 313.312 493.626 308.485 493.798C303.659 493.97 299.428 494.199 295.792 494.485C294.245 494.555 292.821 494.33 291.52 493.811C292.566 498.112 294.644 501.887 297.755 505.137C300.866 508.386 305.159 510.374 310.634 511.1C314.98 511.724 319.549 511.404 324.341 510.139C329.133 508.874 333.52 507.558 337.502 506.193ZM309.546 459.706C304.532 461.118 300.492 463.717 297.425 467.504C294.358 471.291 292.352 475.516 291.407 480.18C292.39 479.741 293.41 479.436 294.467 479.267C296.8 479.101 299.171 478.91 301.578 478.695C303.986 478.48 306.418 478.302 308.874 478.161C310.421 478.091 312.528 477.943 315.193 477.716C317.858 477.489 320.64 477.158 323.54 476.724C326.439 476.289 329.123 475.651 331.594 474.809C334.064 473.968 335.829 472.824 336.889 471.378C337.955 467.377 337.532 464.417 335.621 462.497C333.711 460.576 331.221 459.305 328.152 458.684C325.084 458.062 321.787 457.937 318.262 458.309C314.737 458.681 311.831 459.147 309.546 459.706Z"/>
<path clip-path="url(#TextBounds)" d="M425.137 523.946C427.913 523.486 430.147 523.811 431.839 524.921C433.531 526.03 434.614 527.463 435.089 529.22C435.563 530.978 435.325 532.782 434.375 534.634C433.425 536.486 431.647 537.851 429.042 538.728C424.519 540.24 419.727 541.505 414.665 542.524C409.603 543.543 404.604 543.936 399.668 543.703C394.732 543.469 390.013 542.481 385.511 540.739C381.008 538.996 376.908 536.217 373.209 532.401C368.775 527.797 365.823 522.184 364.354 515.562C362.884 508.939 362.753 502.332 363.961 495.741C365.168 489.15 367.645 483.071 371.392 477.505C375.139 471.94 380.086 467.863 386.232 465.275C392.649 462.613 399.364 461.003 406.377 460.443C413.39 459.884 420.123 461.024 426.575 463.864C429.74 465.272 432.43 467.446 434.645 470.386C436.861 473.327 438.48 476.53 439.503 479.995C440.525 483.461 440.744 486.955 440.158 490.478C439.572 494.001 438.048 497.11 435.585 499.805C432.803 502.819 429.205 505.125 424.793 506.723C420.38 508.32 415.705 509.482 410.766 510.206C405.828 510.931 400.946 511.379 396.119 511.551C391.293 511.723 387.062 511.952 383.426 512.238C381.879 512.308 380.455 512.083 379.155 511.564C380.2 515.865 382.278 519.64 385.389 522.89C388.5 526.139 392.793 528.127 398.268 528.853C402.614 529.478 407.183 529.157 411.975 527.892C416.767 526.627 421.155 525.312 425.137 523.946ZM397.18 477.459C392.166 478.871 388.126 481.47 385.059 485.257C381.992 489.044 379.986 493.269 379.041 497.933C380.025 497.494 381.045 497.189 382.101 497.02C384.435 496.854 386.805 496.663 389.213 496.448C391.62 496.233 394.052 496.055 396.508 495.914C398.056 495.844 400.162 495.696 402.827 495.469C405.492 495.242 408.275 494.911 411.174 494.477C414.073 494.042 416.758 493.404 419.228 492.563C421.698 491.721 423.463 490.578 424.523 489.131C425.589 485.131 425.167 482.17 423.256 480.25C421.345 478.329 418.855 477.058 415.787 476.437C412.718 475.815 409.421 475.69 405.896 476.062C402.371 476.434 399.466 476.9 397.18 477.459Z"/>
<path clip-path="url(#TextBounds)" d="M463.174 486.611C460.548 485.696 458.74 484.372 457.75 482.638C456.76 480.904 456.439 479.178 456.787 477.459C457.135 475.741 458.182 474.196 459.93 472.825C461.677 471.454 463.962 471.055 466.785 471.627L477.095 473.715L482.987 444.627C484.098 442.296 485.453 440.654 487.052 439.7C488.651 438.746 490.309 438.443 492.028 438.792C493.623 439.115 495.015 439.972 496.202 441.362C497.39 442.753 498.055 444.676 498.196 447.133L492.191 476.774L509.865 480.354C512.073 481.44 513.586 482.801 514.405 484.436C515.224 486.071 515.471 487.687 515.148 489.282C514.8 491.001 513.876 492.411 512.375 493.512C510.874 494.613 508.834 495.222 506.255 495.339L489.133 491.87C487.096 501.296 485.125 511.023 483.221 521.051C481.318 531.079 479.409 540.818 477.494 550.269C476.922 553.092 475.665 555.041 473.722 556.117C471.779 557.193 469.948 557.557 468.23 557.209C466.512 556.861 465.047 555.893 463.835 554.306C462.623 552.719 462.107 550.538 462.286 547.763C464.225 538.189 466.183 528.364 468.161 518.287C470.138 508.211 472.097 498.385 474.036 488.812L463.174 486.611Z"/>
<path clip-path="url(#TextBounds)" d="M588.681 548.261C590.968 547.063 593.155 546.675 595.241 547.098C597.205 547.496 598.725 548.507 599.802 550.13C600.878 551.754 601.205 553.609 600.783 555.696C600.559 556.8 599.979 558.088 599.042 559.559C596.309 562.328 593.38 564.961 590.254 567.458C587.129 569.955 583.802 572.029 580.274 573.678C576.745 575.327 573.028 576.49 569.121 577.168C565.214 577.846 561.052 577.738 556.633 576.842C550.005 575.5 544.234 572.925 539.319 569.118C534.405 565.312 530.425 560.672 527.381 555.2C524.337 549.728 522.381 543.614 521.514 536.858C520.646 530.102 520.946 523.103 522.413 515.862C523.458 510.707 525.102 506.057 527.348 501.912C530.382 496.393 533.574 491.673 536.924 487.752C540.274 483.831 543.978 480.525 548.037 477.833C552.096 475.142 556.572 472.918 561.464 471.162C566.355 469.405 571.86 467.933 577.979 466.745C581.984 465.895 585.639 465.358 588.942 465.133C592.246 464.908 595.31 465.081 598.133 465.653C602.428 466.523 606.046 468.534 608.985 471.685C611.925 474.836 614.332 479.668 616.207 486.181C616.351 487.36 616.312 488.502 616.088 489.606C615.64 491.816 614.605 493.459 612.981 494.535C611.357 495.612 609.564 495.951 607.6 495.553C605.268 495.081 603.319 493.664 601.753 491.302C600.706 487.64 599.644 484.998 598.568 483.374C597.491 481.75 596.094 480.764 594.375 480.416C593.025 480.143 591.361 480.157 589.383 480.459C587.406 480.761 584.906 481.117 581.884 481.527C576.847 482.424 571.913 483.756 567.083 485.525C562.252 487.293 557.832 489.72 553.821 492.804C549.81 495.889 546.356 499.693 543.459 504.217C540.562 508.741 538.48 514.133 537.212 520.393C536.316 524.811 536.115 529.275 536.607 533.783C537.1 538.29 538.262 542.487 540.094 546.372C541.927 550.257 544.479 553.585 547.751 556.356C551.022 559.127 555.052 560.998 559.838 561.967C562.661 562.539 565.412 562.521 568.091 561.914C570.769 561.307 573.338 560.294 575.798 558.875C578.257 557.457 580.57 555.817 582.736 553.956C584.902 552.095 586.883 550.197 588.681 548.261Z"/>
<path clip-path="url(#TextBounds)" d="M635.573 579.801C637.459 581.844 638.381 583.916 638.339 586.016C638.297 588.115 637.667 589.808 636.448 591.095C635.229 592.381 633.606 593.139 631.579 593.367C629.553 593.595 627.436 592.847 625.23 591.122C624.275 590.162 623.319 589.202 622.364 588.242C621.408 587.281 620.391 586.309 619.313 585.324C618.408 584.118 617.858 583.048 617.663 582.115C617.469 581.181 617.411 579.891 617.489 578.246L638.188 476.067C639.152 473.835 640.463 472.248 642.124 471.306C643.784 470.365 645.387 470.019 646.934 470.268C648.48 470.518 649.878 471.344 651.127 472.747C652.376 474.15 653.133 476.092 653.397 478.573L633.331 577.622C633.65 577.942 633.993 578.299 634.36 578.693C634.728 579.087 635.132 579.456 635.573 579.801Z"/>
<path clip-path="url(#TextBounds)" d="M662.804 547.561C664.95 543.906 667.384 540.407 670.106 537.061C672.828 533.715 675.85 530.782 679.172 528.26C682.494 525.739 686.127 523.728 690.073 522.227C694.018 520.727 698.239 519.921 702.733 519.809C710.175 519.655 716.292 521.47 721.084 525.251C725.876 529.033 729.358 533.763 731.53 539.442C733.702 545.121 734.657 551.288 734.394 557.943C734.132 564.598 732.607 570.709 729.818 576.277C726.51 583.146 721.89 589.238 715.957 594.552C710.025 599.867 703.214 603.215 695.523 604.596C689.823 605.613 684.605 605.355 679.869 603.82C675.132 602.286 671.092 599.838 667.748 596.477C664.404 593.117 661.805 589.076 659.95 584.356C658.095 579.636 657.211 574.538 657.298 569.061C657.356 565.623 657.8 562.327 658.631 559.173C659.461 556.019 660.507 552.909 661.767 549.842L662.804 547.561ZM676.306 554.704C675.293 557.182 674.477 559.476 673.858 561.587C673.239 563.698 672.84 566.14 672.661 568.915C672.358 572.304 672.798 575.491 673.982 578.478C675.166 581.465 676.842 583.913 679.011 585.822C681.179 587.731 683.774 588.959 686.793 589.507C689.813 590.054 693.043 589.719 696.484 588.499C701.032 586.865 704.9 584.327 708.089 580.884C711.278 577.441 713.947 573.573 716.094 569.281C717.822 565.798 718.832 561.913 719.125 557.629C719.418 553.344 718.906 549.407 717.589 545.818C716.272 542.229 714.099 539.393 711.071 537.31C708.043 535.227 704.072 534.646 699.158 535.567C693.825 536.659 689.325 539.006 685.657 542.607C681.989 546.208 678.872 550.241 676.306 554.704Z"/>
<path clip-path="url(#TextBounds)" d="M817.7 612.672C818.702 614.664 818.992 616.703 818.569 618.79C818.147 620.876 817.13 622.427 815.519 623.442C813.907 624.457 812.12 624.766 810.156 624.368C807.456 623.821 805.379 622.091 803.925 619.177C802.471 616.263 801.392 613.074 800.688 609.609C796.801 612.399 792.467 614.556 787.686 616.079C782.905 617.602 778.244 617.904 773.703 616.984C770.389 616.312 767.316 615.083 764.484 613.295C761.652 611.508 759.121 609.334 756.893 606.774C754.664 604.214 752.811 601.379 751.333 598.269C749.855 595.158 748.923 592.031 748.538 588.886C748.202 585.496 748.242 581.831 748.657 577.89C749.072 573.949 749.702 569.892 750.548 565.719C751.567 560.687 752.684 555.802 753.9 551.065C755.115 546.328 756.095 542.119 756.841 538.437C757.952 536.106 759.307 534.464 760.906 533.51C762.505 532.556 764.163 532.253 765.882 532.602C767.477 532.925 768.869 533.782 770.056 535.172C771.244 536.563 771.909 538.486 772.05 540.943C770.881 546.711 769.664 552.246 768.398 557.548C767.133 562.85 765.891 568.508 764.672 574.522C763.28 581.395 763.609 587.34 765.66 592.355C767.71 597.37 771.252 600.387 776.284 601.407C778.125 601.78 780.04 601.785 782.031 601.421C784.021 601.058 785.938 600.424 787.782 599.52C789.627 598.616 791.385 597.503 793.059 596.18C794.732 594.858 796.283 593.511 797.711 592.14C798.006 591.944 798.356 591.791 798.762 591.682C799.167 591.572 799.517 591.42 799.813 591.224C800.319 584.938 801.207 578.665 802.475 572.405C803.196 568.846 803.954 565.262 804.749 561.654C805.544 558.046 806.522 554.794 807.683 551.899C808.845 549.004 810.263 546.735 811.937 545.094C813.611 543.453 815.614 542.868 817.946 543.341C819.787 543.713 821.301 544.755 822.488 546.465C823.675 548.175 823.995 550.38 823.448 553.08C822.876 555.903 821.965 559.296 820.715 563.259C819.465 567.222 818.392 571.413 817.497 575.832C816.801 579.269 816.227 582.73 815.777 586.216C815.326 589.703 815.06 593.067 814.978 596.309C814.896 599.55 815.055 602.553 815.453 605.317C815.851 608.081 816.6 610.533 817.7 612.672Z"/>
<path clip-path="url(#TextBounds)" d="M907.434 630.467C908.582 633 908.798 635.247 908.081 637.21C907.364 639.173 906.243 640.607 904.718 641.512C903.193 642.417 901.424 642.634 899.411 642.162C897.398 641.691 895.609 640.274 894.043 637.912C893.554 637.174 893.132 636.418 892.778 635.644C892.424 634.869 892.186 634.15 892.065 633.487C887.736 635.932 882.968 637.553 877.759 638.351C872.55 639.148 867.461 639.044 862.49 638.037C857.519 637.03 852.968 635.054 848.837 632.109C844.706 629.163 841.541 625.232 839.343 620.315C837.682 616.528 836.747 612.474 836.537 608.151C836.326 603.828 836.65 599.549 837.508 595.314C838.366 591.08 839.733 587.013 841.609 583.112C843.485 579.212 845.582 575.644 847.898 572.408C850.018 569.515 852.719 567.059 856.003 565.041C859.287 563.023 862.624 561.527 866.016 560.553C869.162 559.53 872.59 558.85 876.299 558.516C880.009 558.181 883.471 558.276 886.687 558.8C889.633 559.396 892.566 560.054 895.487 560.774C898.408 561.493 901.193 562.569 903.842 564C905.509 555.138 906.928 547.663 908.097 541.575C909.266 535.487 910.062 531.4 910.485 529.313C911.448 527.081 912.76 525.494 914.42 524.552C916.08 523.611 917.684 523.265 919.23 523.514C920.777 523.764 922.175 524.59 923.424 525.993C924.673 527.396 925.43 529.338 925.694 531.819L906.188 628.106C906.359 628.524 906.566 628.918 906.811 629.287C907.056 629.656 907.263 630.049 907.434 630.467ZM893.918 613.929L894.441 611.352C895.361 606.811 896.374 601.809 897.48 596.347C898.587 590.886 899.576 585.688 900.448 580.753L899.455 579.977C899.136 579.657 898.849 579.343 898.592 579.036C898.334 578.728 898.047 578.414 897.728 578.094C894.27 576.243 890.503 574.969 886.428 574.271C882.353 573.574 878.392 573.57 874.547 574.26C870.702 574.951 867.125 576.366 863.816 578.507C860.508 580.648 857.878 583.693 855.928 587.642C854.176 591.248 853.136 594.488 852.81 597.36C852.483 600.233 852.18 603.621 851.9 607.526C852.192 608.607 852.454 609.682 852.684 610.751C852.915 611.82 853.176 612.895 853.468 613.976L856.405 618.405C857.778 619.194 859.065 620.093 860.266 621.103C865.076 622.589 869.636 623.257 873.947 623.108C878.258 622.959 882.651 621.613 887.127 619.07C887.3 618.85 887.644 618.568 888.161 618.225C888.677 617.883 889.231 617.516 889.821 617.124C890.412 616.733 890.965 616.366 891.482 616.023C891.998 615.681 892.33 615.461 892.478 615.363L893.918 613.929Z"/>
</g>
<clipPath id="TextBounds_2">
<rect height="381.948" width="872.824" x="59.9656" y="467.655"/>
</clipPath>
<g id="Fill_2">
<path clip-path="url(#TextBounds_2)" d="M373.418 682.801C372.846 685.624 371.281 687.831 368.722 689.421C366.164 691.011 363.412 691.508 360.467 690.911C357.153 690.24 354.627 688.674 352.889 686.213C351.152 683.753 350.569 681.112 351.141 678.289C351.713 675.466 353.284 673.228 355.854 671.577C358.425 669.926 361.367 669.436 364.681 670.107C367.627 670.704 369.962 672.263 371.688 674.785C373.413 677.306 373.989 679.978 373.418 682.801Z"/>
<path clip-path="url(#TextBounds_2)" d="M462.497 697.206C463.645 699.738 463.86 701.986 463.143 703.949C462.426 705.912 461.305 707.346 459.78 708.251C458.255 709.156 456.486 709.372 454.474 708.901C452.461 708.429 450.672 707.013 449.106 704.651C448.616 703.913 448.194 703.157 447.84 702.382C447.486 701.608 447.248 700.889 447.127 700.225C442.799 702.67 438.03 704.292 432.821 705.089C427.613 705.887 422.523 705.782 417.552 704.775C412.581 703.768 408.03 701.792 403.899 698.847C399.768 695.902 396.604 691.971 394.406 687.053C392.745 683.267 391.809 679.212 391.599 674.889C391.389 670.566 391.713 666.287 392.57 662.053C393.428 657.819 394.795 653.751 396.671 649.851C398.548 645.95 400.644 642.382 402.961 639.146C405.08 636.253 407.782 633.798 411.065 631.78C414.349 629.762 417.687 628.266 421.078 627.292C424.225 626.268 427.652 625.589 431.362 625.254C435.071 624.92 438.534 625.014 441.75 625.538C444.695 626.135 447.629 626.793 450.549 627.512C453.47 628.232 456.255 629.307 458.904 630.738C460.572 621.876 461.99 614.401 463.159 608.313C464.329 602.225 465.125 598.138 465.548 596.052C466.511 593.819 467.823 592.232 469.483 591.291C471.143 590.349 472.746 590.003 474.293 590.253C475.84 590.502 477.237 591.328 478.487 592.731C479.736 594.134 480.492 596.076 480.756 598.558L461.25 694.845C461.421 695.263 461.629 695.656 461.873 696.025C462.118 696.394 462.326 696.788 462.497 697.206ZM448.981 680.668L449.503 678.091C450.423 673.549 451.436 668.548 452.543 663.086C453.649 657.624 454.638 652.426 455.51 647.492L454.517 646.716C454.199 646.396 453.911 646.082 453.654 645.774C453.397 645.466 453.109 645.153 452.791 644.833C449.332 642.982 445.565 641.708 441.49 641.01C437.415 640.312 433.455 640.309 429.61 640.999C425.764 641.689 422.187 643.105 418.879 645.246C415.57 647.386 412.941 650.432 410.991 654.381C409.238 657.987 408.199 661.226 407.872 664.099C407.546 666.971 407.243 670.36 406.963 674.264C407.255 675.346 407.516 676.421 407.747 677.49C407.977 678.559 408.239 679.634 408.531 680.715L411.467 685.143C412.84 685.932 414.128 686.832 415.328 687.842C420.139 689.327 424.699 689.996 429.009 689.847C433.32 689.698 437.713 688.352 442.19 685.809C442.362 685.588 442.707 685.307 443.223 684.964C443.74 684.621 444.293 684.254 444.884 683.863C445.474 683.471 446.028 683.104 446.544 682.762C447.061 682.419 447.393 682.199 447.541 682.101L448.981 680.668Z"/>
<path clip-path="url(#TextBounds_2)" d="M546.876 705.483C549.652 705.023 551.886 705.348 553.578 706.457C555.27 707.567 556.353 709 556.828 710.757C557.302 712.514 557.065 714.319 556.114 716.171C555.164 718.023 553.386 719.388 550.781 720.265C546.258 721.777 541.466 723.042 536.404 724.061C531.342 725.08 526.343 725.473 521.407 725.239C516.472 725.006 511.752 724.018 507.25 722.276C502.748 720.533 498.647 717.754 494.948 713.938C490.514 709.334 487.562 703.721 486.093 697.098C484.623 690.476 484.492 683.869 485.7 677.278C486.907 670.686 489.385 664.608 493.132 659.042C496.878 653.476 501.825 649.399 507.971 646.811C514.388 644.15 521.103 642.54 528.116 641.98C535.129 641.42 541.862 642.561 548.314 645.401C551.479 646.809 554.169 648.983 556.384 651.923C558.6 654.864 560.219 658.067 561.242 661.532C562.265 664.998 562.483 668.492 561.897 672.015C561.311 675.537 559.787 678.647 557.324 681.342C554.542 684.356 550.944 686.662 546.532 688.26C542.119 689.857 537.444 691.018 532.506 691.743C527.567 692.467 522.685 692.916 517.859 693.088C513.032 693.26 508.801 693.489 505.166 693.775C503.618 693.845 502.194 693.62 500.894 693.101C501.939 697.402 504.017 701.177 507.128 704.426C510.24 707.676 514.533 709.664 520.008 710.39C524.353 711.014 528.922 710.694 533.714 709.429C538.507 708.164 542.894 706.848 546.876 705.483ZM518.919 658.996C513.906 660.408 509.865 663.007 506.798 666.794C503.731 670.581 501.725 674.806 500.78 679.47C501.764 679.031 502.784 678.726 503.84 678.557C506.174 678.391 508.544 678.2 510.952 677.985C513.359 677.77 515.791 677.592 518.247 677.451C519.795 677.381 521.901 677.233 524.566 677.006C527.232 676.779 530.014 676.448 532.913 676.013C535.812 675.579 538.497 674.941 540.967 674.099C543.438 673.258 545.203 672.114 546.262 670.668C547.328 666.667 546.906 663.707 544.995 661.786C543.084 659.866 540.594 658.595 537.526 657.973C534.457 657.352 531.161 657.227 527.635 657.599C524.11 657.971 521.205 658.436 518.919 658.996Z"/>
<path clip-path="url(#TextBounds_2)" d="M630.309 664.503C631.959 662.665 633.681 661.577 635.474 661.237C637.268 660.898 638.888 661.098 640.336 661.839C641.783 662.579 642.873 663.822 643.605 665.568C644.338 667.313 644.406 669.34 643.811 671.647C640.75 677.926 637.444 683.997 633.893 689.858C630.342 695.719 626.815 701.617 623.313 707.551C620.033 713.02 616.802 718.403 613.621 723.7C610.439 728.997 607.05 734.22 603.451 739.368C600.695 741.621 598.004 742.29 595.378 741.375C592.753 740.459 591.014 738.318 590.163 734.951C588.106 722.396 585.933 709.945 583.643 697.598C581.353 685.251 578.503 672.983 575.095 660.793C574.365 658.089 574.5 655.849 575.499 654.071C576.498 652.292 577.827 651.092 579.486 650.47C581.146 649.848 582.951 649.926 584.901 650.705C586.852 651.483 588.401 653.139 589.549 655.671C592.104 665.133 594.389 674.668 596.404 684.276C598.419 693.884 600.286 703.589 602.005 713.393C603.337 711.235 604.638 709.071 605.908 706.9C607.178 704.73 608.479 702.566 609.81 700.408C613.313 694.473 616.809 688.569 620.298 682.696C623.788 676.822 627.125 670.758 630.309 664.503Z"/>
</g>
<clipPath id="TextBounds_3">
<rect height="264.544" width="270.203" x="654.373" y="175.219"/>
</clipPath>
<path clip-path="url(#TextBounds_3)" d="M755.874 421.463L774.6 427.663C781.09 429.812 787.2 427.515 790.894 421.64L800.897 405.098L805.869 404.995L818.158 419.763C822.524 425.22 829.011 426.442 835.181 423.342L852.458 414.66C858.721 411.591 861.519 405.625 859.838 398.896L855.23 380.191L858.248 376.356L877.491 378.201C884.41 378.743 889.9 375.211 892.049 368.722L898.157 350.273C900.306 343.784 898.008 337.674 892.133 333.98L875.838 323.852L875.52 318.912L890.473 306.684C895.837 302.288 897.122 295.923 893.959 289.63L885.308 272.261C882.177 266.183 876.335 263.323 869.513 264.974L850.839 269.489L846.849 266.316L848.694 247.073C849.266 240.062 845.704 234.665 839.215 232.516L820.488 226.315C813.906 224.136 807.919 226.372 804.195 232.339L794.191 248.881L789.003 249.015L776.714 234.247C772.225 228.852 765.83 227.66 759.783 230.699L742.384 239.442C736.183 242.636 733.323 248.478 735.096 255.238L739.704 273.943L736.5 277.717L717.474 276.149C710.463 275.576 705.066 279.138 702.917 285.628L696.808 304.077C694.66 310.566 696.957 316.676 702.832 320.37L719.281 330.343L719.415 335.222L704.554 347.481C699.19 351.877 697.875 358.334 701.068 364.534L709.749 381.811C712.85 387.981 718.785 390.872 725.545 389.098L744.219 384.583L748.24 387.663L746.395 406.906C745.853 413.824 749.291 419.283 755.874 421.463ZM760.793 410.644C758.568 409.908 757.7 408.489 758.005 406.327L760.087 382.018C755.449 378.94 751.272 375.397 748.177 372.006L724.472 377.736C722.342 378.265 720.735 377.527 719.588 375.398L712.115 360.374C711.061 358.276 711.397 356.639 713.217 355.184L731.869 339.551C731.304 335.352 730.706 329.702 731.097 324.174L710.226 311.399C708.309 310.353 707.596 308.78 708.332 306.555L713.673 290.424C714.41 288.199 715.829 287.331 718.115 287.574L742.392 289.749C745.532 284.925 749.507 280.686 752.219 277.778L746.551 254.195C745.991 251.85 746.605 250.304 748.703 249.25L763.728 241.777C765.918 240.754 767.556 241.09 769.134 242.847L784.612 261.345C789.058 260.657 794.924 260.337 800.422 260.511L813.165 239.733C814.211 237.816 815.754 237.195 817.979 237.932L834.295 243.334C836.52 244.071 837.419 245.397 837.083 247.652L834.94 272.146C839.702 275.163 843.631 278.83 846.88 282.066L870.462 276.398C872.778 275.93 874.292 276.637 875.439 278.766L883.035 293.728C884.089 295.826 883.66 297.433 881.81 298.981L863.189 314.52C863.722 318.503 864.413 324.184 864.023 330.021L884.801 342.765C886.78 343.934 887.308 345.446 886.571 347.671L881.23 363.802C880.493 366.027 879.075 366.895 876.912 366.59L852.542 364.385C849.433 369.116 845.797 373.261 842.653 376.232L848.29 399.907C848.881 402.161 848.174 403.675 846.169 404.76L831.114 412.325C828.923 413.349 827.193 412.982 825.8 411.286L810.198 392.541C805.784 393.446 800.411 393.827 794.759 393.499L781.923 414.246C780.846 416.256 779.334 416.784 777.109 416.047L760.793 410.644ZM785.803 362.45C805.271 368.896 826.527 358.137 832.973 338.669C839.358 319.386 828.692 298.161 809.224 291.715C789.848 285.299 768.53 295.934 762.146 315.217C755.699 334.686 766.427 356.034 785.803 362.45ZM789.487 351.325C776.229 346.935 768.85 332.251 773.27 318.901C777.629 305.736 792.314 298.357 805.571 302.747C818.735 307.105 826.115 321.79 821.756 334.955C817.366 348.212 802.651 355.684 789.487 351.325Z" id="Fill_3"/>
</defs>
<clipPath id="ArtboardFrame">
<rect height="1024" width="1024" x="0" y="0"/>
</clipPath>
<g clip-path="url(#ArtboardFrame)" id="Cloud">
<g filter="url(#Filter)">
<path d="M927.25 454.844C926.339 455.01 925.474 455.522 924.906 456.344C923.77 457.988 924.2 460.27 925.844 461.406C940.263 471.384 953.837 482.502 965.781 495.375C973.983 504.214 981.549 513.826 987.938 524.062C999.909 543.245 1008.02 564.69 1011.09 587.125C1015.81 621.562 1008.77 657.076 992.5 687.688C986.354 699.254 979.015 710.471 969.875 719.906C962.293 727.733 953.402 734.367 943.906 739.688C923.89 750.904 900.873 756.277 878 756.312C866.749 756.33 855.603 754.981 844.594 752.719C843.962 752.589 843.349 752.993 843.219 753.625C843.089 754.257 843.493 754.87 844.125 755C849.773 756.16 855.451 757.141 861.188 757.75C879.639 759.71 898.473 758.432 916.375 753.469C934.16 748.538 950.973 739.896 964.938 727.781C977.405 716.965 987.236 703.533 995.219 689.156C1012.45 658.114 1020.26 621.819 1016.16 586.469C1012.4 554.148 998.712 523.555 978.062 498.5C964.282 481.779 947.756 467.711 929.969 455.438C929.147 454.87 928.161 454.677 927.25 454.844Z" fill="#3887de" stroke="none"/>
</g>
<g filter="url(#Filter_2)">
<path d="M856.344 687.094C854.375 686.751 852.5 688.063 852.156 690.031C850.293 700.689 847.968 711.243 844.906 721.625C837.787 745.766 827.265 768.851 813.875 790.156C798.503 814.615 779.427 836.656 757.281 855.219C731.831 876.552 702.488 893.179 671.125 904.094C617.273 922.834 557.577 924.56 502.844 908.469C474.614 900.169 447.764 887.328 423.562 870.594C394.159 850.262 369.193 824.469 349.469 794.688C349.075 794.093 348.282 793.95 347.688 794.344C347.093 794.737 346.919 795.531 347.312 796.125C367.218 826.18 392.421 852.201 422.094 872.719C443.325 887.399 466.59 899.132 491.031 907.438C533.587 921.898 579.614 926.167 624.094 919.719C648.639 916.161 672.717 909.31 695.469 899.438C718.967 889.242 741.065 875.813 760.938 859.656C784.873 840.196 805.779 816.772 822.031 790.531C835.645 768.551 846.093 744.601 853 719.688C855.596 710.323 857.648 700.853 859.312 691.281C859.656 689.313 858.312 687.437 856.344 687.094Z" fill="#3887de" stroke="none"/>
</g>
<g filter="url(#Filter_3)">
<path d="M724.438 169.094C687.735 167.844 650.717 175.368 619.219 194.875C612.534 199.015 606.162 203.635 600.188 208.75C591.312 216.349 583.509 224.996 576.562 234.375C575.372 235.98 575.707 238.248 577.312 239.438C578.918 240.628 581.185 240.293 582.375 238.688C589.006 229.752 596.438 221.518 604.906 214.281C610.22 209.74 615.879 205.587 621.781 201.844C663.405 175.451 715.602 170.401 763.281 179.219C788.559 183.893 813.047 192.499 835.969 204.094C855.426 213.936 873.777 225.997 890.594 239.875C909.29 255.304 926.245 273.03 940.375 292.75C949.133 304.973 956.784 318.038 963.219 331.625C982.737 372.839 990.862 420.933 977.906 465.344C974.961 475.441 970.886 485.103 965.938 494.375C965.602 495.004 965.84 495.79 966.469 496.125C967.097 496.46 967.883 496.222 968.219 495.594C973.251 486.165 977.411 476.331 980.406 466.062C993.55 421.005 985.368 372.321 965.562 330.5C955.313 308.857 941.923 288.665 926.375 270.469C884.24 221.155 824.742 185.143 760.812 173.156C748.862 170.916 736.672 169.51 724.438 169.094Z" fill="#3887de" stroke="none"/>
</g>
<g filter="url(#Filter_4)">
<path d="M457.562 206.625C443.137 207.067 428.723 208.819 414.594 211.75C403.776 213.994 393.097 216.985 382.688 220.688C369.025 225.548 355.933 231.725 343.344 238.906C342.725 239.259 342.522 240.037 342.875 240.656C343.228 241.275 344.006 241.478 344.625 241.125C350.763 237.624 356.992 234.314 363.406 231.344C378.714 224.255 394.825 218.826 411.281 215.125C418.458 213.511 425.724 212.147 433.031 211.281C441.798 210.243 450.643 209.822 459.469 209.875C487.162 210.04 515.071 215.396 540.25 227.125C549.073 231.235 557.455 236.189 565.438 241.75C577.056 249.844 587.398 259.515 596.062 270.719C597.283 272.301 599.574 272.596 601.156 271.375C602.738 270.154 603.033 267.894 601.812 266.312C596.531 259.453 590.688 253.072 584.219 247.312C568.21 233.06 548.998 222.975 528.688 216.344C505.71 208.842 481.605 205.888 457.562 206.625Z" fill="#3887de" stroke="none"/>
</g>
<g filter="url(#Filter_5)">
<path d="M201.156 320.781C192.04 324.475 183.068 328.482 174.312 332.969C167.1 336.665 160.023 340.664 153.156 344.969C147.614 348.443 142.191 352.102 136.938 356C106.473 378.603 79.4721 410.46 73.125 448.938C71.6384 457.949 71.3312 467.131 72.25 476.219C72.9877 483.516 74.5154 490.735 76.75 497.719C85.7307 525.787 105.812 549.15 129.062 566.656C137.151 572.747 145.734 578.214 154.531 583.219C159.707 586.163 164.939 588.962 170.281 591.594C179.452 596.111 188.914 600.028 198.562 603.406C200.724 604.163 202.905 604.951 205.094 605.625C207.749 606.443 210.458 607.091 213.156 607.75C219.115 609.206 225.129 610.426 231.156 611.562C232.126 611.801 233.105 611.22 233.344 610.25C233.583 609.28 233.001 608.27 232.031 608.031C226.676 606.395 221.343 604.678 216.062 602.812C213.054 601.749 210.08 600.568 207.062 599.531C203.254 598.223 199.441 596.972 195.656 595.594C183.611 591.209 171.684 586.306 160.281 580.438C150.036 575.165 140.274 569.001 131.031 562.125C115.864 550.842 102.153 537.397 91.9375 521.406C85.2563 510.948 80.1586 499.44 77.3125 487.344C75.2557 478.602 74.3621 469.6 74.6875 460.625C74.916 454.322 75.7325 448.026 77.125 441.875C85.2185 406.125 111.139 377.296 140.094 356.281C144.7 352.938 149.428 349.741 154.25 346.719C161.066 342.446 168.091 338.481 175.25 334.812C183.951 330.354 192.878 326.389 201.938 322.719C202.47 322.503 202.716 321.876 202.5 321.344C202.284 320.812 201.688 320.566 201.156 320.781Z" fill="#3887de" stroke="none"/>
</g>
<g filter="url(#Filter_6)">
<path d="M153 595.219C152.649 595.22 152.299 595.325 152.031 595.594C146.56 601.091 141.8 607.143 137.969 613.906C134.052 620.819 131.326 628.193 129.375 635.875C128.471 639.437 127.628 642.99 127.062 646.625C125.698 655.394 125.566 664.309 126.562 673.125C128.328 688.753 133.716 703.987 141.312 717.719C150.267 733.906 162.247 748.382 175.938 760.781C204.724 786.853 242.123 804.803 281.062 807.938C309.761 810.247 340.175 804.721 362.719 785.781C366.442 782.653 369.885 779.204 373 775.469C378.023 769.445 381.993 762.786 385.219 755.656C385.531 754.965 385.253 754.156 384.562 753.844C383.872 753.531 383.031 753.84 382.719 754.531C379.595 761.436 375.77 767.885 370.906 773.719C349.52 799.369 314.565 808.138 282.375 804.938C260.548 802.767 239.296 795.746 220.031 785.344C188.052 768.076 160.992 741.526 144.812 708.844C137.732 694.541 132.864 679.043 131.125 663.156C130.409 656.621 130.357 650.01 131.031 643.469C131.272 641.131 131.565 638.798 132.062 636.5C132.804 633.076 133.894 629.682 135.125 626.406C139.271 615.373 145.723 605.847 154 597.531C154.535 596.994 154.537 596.129 154 595.594C153.731 595.326 153.351 595.218 153 595.219Z" fill="#3887de" stroke="none"/>
</g>
<g filter="url(#Filter_7)">
<path d="M337.031 209.938C322.708 210.059 308.269 213.151 295.156 217.875C290.582 219.523 286.102 221.403 281.688 223.438C275.786 226.157 270.048 229.253 264.531 232.688C257.676 236.955 251.115 241.751 245.031 247.062C237.352 253.767 230.396 261.295 224.469 269.594C213.499 284.953 205.907 303.467 207.312 322.625C207.683 327.67 208.64 332.647 210.375 337.406C211.403 340.225 212.687 342.951 214.219 345.531C216.371 349.156 219.16 352.934 222.344 355.719C226.594 359.437 231.643 362.201 236.812 364.406C237.695 364.874 238.782 364.539 239.25 363.656C239.718 362.774 239.383 361.687 238.5 361.219C235.785 359.461 233.195 357.535 230.812 355.344C228.819 353.51 227.034 351.509 225.188 349.531C222.325 346.464 219.84 342.989 217.875 339.281C216.296 336.302 215.004 333.177 214.062 329.938C211.378 320.704 211.85 311.059 214.062 301.781C217.208 288.588 223.789 276.392 232.062 265.719C237.955 258.118 244.767 251.182 252.156 245.031C257.9 240.251 264.013 235.929 270.406 232.062C275.504 228.979 280.748 226.123 286.188 223.688C291.286 221.405 296.542 219.468 301.875 217.812C326.071 210.3 354.355 208.737 377.094 221.5C377.595 221.781 378.219 221.626 378.5 221.125C378.781 220.624 378.626 219.969 378.125 219.688C365.562 212.638 351.354 209.816 337.031 209.938Z" fill="#3887de" stroke="none"/>
</g>
<g opacity="1">
<use fill="#4083cd" fill-opacity="0.439198" stroke="none" xlink:href="#Fill"/>
<mask height="1841.4" id="StrokeMask" maskUnits="userSpaceOnUse" width="2336" x="-621.895" y="-408.291">
<rect fill="#ffffff" height="1841.4" stroke="none" width="2336" x="-621.895" y="-408.291"/>
<use fill="#000000" fill-rule="evenodd" stroke="none" xlink:href="#Fill"/>
</mask>
<use fill="none" mask="url(#StrokeMask)" stroke="#3887de" stroke-linecap="round" stroke-linejoin="round" stroke-width="8" xlink:href="#Fill"/>
</g>
<g opacity="1">
<use fill="#f7e639" stroke="none" xlink:href="#Fill_2"/>
<mask height="815.671" id="StrokeMask_2" maskUnits="userSpaceOnUse" width="941.813" x="29.8272" y="251.101">
<rect fill="#ffffff" height="815.671" stroke="none" width="941.813" x="29.8272" y="251.101"/>
<use fill="#000000" fill-rule="evenodd" stroke="none" xlink:href="#Fill_2"/>
</mask>
<use fill="none" mask="url(#StrokeMask_2)" stroke="#e09d18" stroke-linecap="round" stroke-linejoin="round" stroke-width="8" xlink:href="#Fill_2"/>
</g>
<g opacity="1">
<use fill="#1f84e1" fill-opacity="0.953368" stroke="none" xlink:href="#Fill_3"/>
<mask height="757.347" id="StrokeMask_3" maskUnits="userSpaceOnUse" width="771.638" x="410.152" y="-60.3722">
<rect fill="#ffffff" height="757.347" stroke="none" width="771.638" x="410.152" y="-60.3722"/>
<use fill="#000000" fill-rule="evenodd" stroke="none" xlink:href="#Fill_3"/>
</mask>
<use fill="none" mask="url(#StrokeMask_3)" stroke="#4c88cb" stroke-linecap="round" stroke-linejoin="round" stroke-width="0.4" xlink:href="#Fill_3"/>
</g>
</g>
</svg>
