<?xml version="1.0" encoding="UTF-8" standalone="no"?>
<!DOCTYPE svg PUBLIC "-//W3C//DTD SVG 1.1//EN" "http://www.w3.org/Graphics/SVG/1.1/DTD/svg11.dtd">
<!-- Created with Vectornator (http://vectornator.io/) -->
<svg height="100%" stroke-miterlimit="10" style="fill-rule:nonzero;clip-rule:evenodd;stroke-linecap:round;stroke-linejoin:round;" version="1.1" viewBox="0 0 1024 1024" width="100%" xml:space="preserve" xmlns="http://www.w3.org/2000/svg" xmlns:xlink="http://www.w3.org/1999/xlink">
    <defs>
        <filter color-interpolation-filters="sRGB" filterUnits="userSpaceOnUse" height="337.051" id="Filter" width="208.523" x="825.366" y="449.414">
            <feDropShadow dx="-3.67321e-05" dy="10" flood-color="#82b8f3" flood-opacity="1" in="SourceGraphic" result="Shadow" stdDeviation="5"/>
        </filter>
        <filter color-interpolation-filters="sRGB" filterUnits="userSpaceOnUse" height="268.396" id="Filter_2" width="545.336" x="329.397" y="681.649">
            <feDropShadow dx="-3.67321e-05" dy="10" flood-color="#82b8f3" flood-opacity="1" in="SourceGraphic" result="Shadow" stdDeviation="5"/>
        </filter>
        <filter color-interpolation-filters="sRGB" filterUnits="userSpaceOnUse" height="360.891" id="Filter_3" width="444.053" x="560.456" y="163.082">
            <feDropShadow dx="-3.67321e-05" dy="10" flood-color="#82b8f3" flood-opacity="1" in="SourceGraphic" result="Shadow" stdDeviation="5"/>
        </filter>
        <filter color-interpolation-filters="sRGB" filterUnits="userSpaceOnUse" height="98.3391" id="Filter_4" width="292.944" x="324.995" y="199.183">
            <feDropShadow dx="-3.67321e-05" dy="10" flood-color="#82b8f3" flood-opacity="1" in="SourceGraphic" result="Shadow" stdDeviation="5"/>
        </filter>
        <filter color-interpolation-filters="sRGB" filterUnits="userSpaceOnUse" height="324.047" id="Filter_5" width="194.404" x="55.178" y="313.75">
            <feDropShadow dx="-3.67321e-05" dy="10" flood-color="#82b8f3" flood-opacity="1" in="SourceGraphic" result="Shadow" stdDeviation="5"/>
        </filter>
        <filter color-interpolation-filters="sRGB" filterUnits="userSpaceOnUse" height="255.705" id="Filter_6" width="300.917" x="105.701" y="583.941">
            <feDropShadow dx="-3.67321e-05" dy="10" flood-color="#82b8f3" flood-opacity="1" in="SourceGraphic" result="Shadow" stdDeviation="5"/>
        </filter>
        <filter color-interpolation-filters="sRGB" filterUnits="userSpaceOnUse" height="194.17" id="Filter_7" width="210.319" x="188.482" y="199.833">
            <feDropShadow dx="-3.67321e-05" dy="10" flood-color="#82b8f3" flood-opacity="1" in="SourceGraphic" result="Shadow" stdDeviation="5"/>
        </filter>
        <clipPath id="TextBounds">
            <rect height="381.948" width="872.824" x="128.778" y="342.295"/>
        </clipPath>
        <g id="Fill">
            <!--
        <path clip-path="url(#TextBounds)" d="M279.697 422.169C280.808 419.838 282.163 418.196 283.762 417.242C285.361 416.289 287.019 415.986 288.738 416.334C290.333 416.657 291.725 417.514 292.913 418.905C294.1 420.295 294.765 422.219 294.906 424.675C291.35 442.226 287.784 459.2 284.207 475.598C280.629 491.995 276.572 508.869 272.035 526.222C272.035 526.222 272.083 526.296 272.181 526.443L271.997 526.406C271.75 526.995 271.583 527.504 271.496 527.933C271.409 528.363 271.316 528.823 271.216 529.314C270.082 531.129 268.771 532.397 267.284 533.117C265.796 533.838 264.316 534.049 262.843 533.751C260.634 533.304 258.746 531.899 257.18 529.537C257.034 528.997 256.875 528.517 256.705 528.099C256.534 527.681 256.363 527.264 256.192 526.846L256.008 526.808L256.082 526.44C253.181 518.058 250.088 509.989 246.804 502.232C243.52 494.475 240.088 486.816 236.509 479.255C232.929 471.694 229.246 464.176 225.458 456.7C221.669 449.225 217.759 441.565 213.726 433.72C212.408 440.225 211.134 446.516 209.903 452.591C208.672 458.666 207.429 464.803 206.173 471.002C204.918 477.2 203.637 483.68 202.331 490.443C201.024 497.206 199.576 504.515 197.984 512.371C197.29 515.169 196.032 517.118 194.212 518.219C192.392 519.319 190.562 519.683 188.72 519.31C187.002 518.962 185.537 517.995 184.325 516.407C183.114 514.82 182.597 512.639 182.776 509.865C186.133 493.295 189.502 476.505 192.884 459.493C196.267 442.482 199.636 425.691 202.993 409.122C203.931 407.012 205.2 405.48 206.799 404.526C208.398 403.572 210.056 403.269 211.774 403.617C213.493 403.966 215.197 405.014 216.887 406.761C221.166 414.656 225.352 422.372 229.447 429.909C233.543 437.447 237.539 444.997 241.438 452.559C245.336 460.121 249.05 467.805 252.58 475.611C256.109 483.418 259.46 491.475 262.632 499.784C265.858 486.383 268.819 473.502 271.514 461.143C274.21 448.784 276.938 435.793 279.697 422.169Z"/>
        <path clip-path="url(#TextBounds)" d="M356.467 527.61C359.244 527.15 361.478 527.475 363.17 528.585C364.862 529.694 365.945 531.127 366.419 532.884C366.894 534.642 366.656 536.446 365.706 538.298C364.756 540.15 362.978 541.515 360.373 542.393C355.85 543.904 351.058 545.169 345.996 546.188C340.934 547.207 335.935 547.6 330.999 547.367C326.063 547.133 321.344 546.145 316.842 544.403C312.339 542.66 308.239 539.881 304.539 536.065C300.106 531.461 297.154 525.848 295.684 519.226C294.215 512.603 294.084 505.996 295.292 499.405C296.499 492.814 298.976 486.735 302.723 481.169C306.47 475.604 311.417 471.527 317.563 468.939C323.98 466.278 330.695 464.667 337.708 464.107C344.721 463.548 351.454 464.688 357.906 467.528C361.071 468.936 363.761 471.11 365.976 474.051C368.191 476.991 369.811 480.194 370.833 483.659C371.856 487.125 372.075 490.619 371.489 494.142C370.903 497.665 369.379 500.774 366.916 503.469C364.133 506.483 360.536 508.789 356.123 510.387C351.711 511.984 347.036 513.146 342.097 513.87C337.159 514.595 332.277 515.043 327.45 515.215C322.624 515.388 318.393 515.616 314.757 515.902C313.21 515.972 311.786 515.747 310.486 515.228C311.531 519.529 313.609 523.304 316.72 526.554C319.831 529.803 324.124 531.791 329.599 532.517C333.945 533.142 338.514 532.821 343.306 531.556C348.098 530.291 352.485 528.976 356.467 527.61ZM328.511 481.123C323.497 482.535 319.457 485.134 316.39 488.921C313.323 492.708 311.317 496.934 310.372 501.598C311.355 501.158 312.375 500.853 313.432 500.684C315.766 500.518 318.136 500.327 320.543 500.112C322.951 499.897 325.383 499.719 327.839 499.578C329.386 499.508 331.493 499.36 334.158 499.133C336.823 498.906 339.606 498.576 342.505 498.141C345.404 497.706 348.089 497.068 350.559 496.227C353.029 495.385 354.794 494.242 355.854 492.795C356.92 488.795 356.497 485.834 354.587 483.914C352.676 481.993 350.186 480.722 347.118 480.101C344.049 479.479 340.752 479.354 337.227 479.726C333.702 480.098 330.796 480.564 328.511 481.123Z"/>
        <path clip-path="url(#TextBounds)" d="M444.102 545.363C446.878 544.903 449.112 545.228 450.804 546.338C452.496 547.447 453.579 548.88 454.054 550.638C454.528 552.395 454.29 554.199 453.34 556.051C452.39 557.903 450.612 559.268 448.007 560.146C443.484 561.657 438.692 562.922 433.63 563.941C428.568 564.96 423.569 565.353 418.633 565.12C413.697 564.886 408.978 563.898 404.476 562.156C399.973 560.413 395.873 557.634 392.174 553.818C387.74 549.214 384.788 543.601 383.319 536.979C381.849 530.356 381.718 523.749 382.926 517.158C384.133 510.567 386.611 504.488 390.357 498.922C394.104 493.357 399.051 489.28 405.197 486.692C411.614 484.031 418.329 482.42 425.342 481.86C432.355 481.301 439.088 482.441 445.54 485.281C448.705 486.689 451.395 488.863 453.61 491.804C455.826 494.744 457.445 497.947 458.468 501.412C459.491 504.878 459.709 508.372 459.123 511.895C458.537 515.418 457.013 518.527 454.55 521.222C451.768 524.236 448.17 526.542 443.758 528.14C439.345 529.738 434.67 530.899 429.731 531.623C424.793 532.348 419.911 532.796 415.084 532.968C410.258 533.141 406.027 533.37 402.391 533.655C400.844 533.725 399.42 533.501 398.12 532.982C399.165 537.282 401.243 541.057 404.354 544.307C407.465 547.556 411.758 549.544 417.233 550.27C421.579 550.895 426.148 550.574 430.94 549.309C435.732 548.044 440.12 546.729 444.102 545.363ZM416.145 498.876C411.132 500.288 407.091 502.887 404.024 506.674C400.957 510.461 398.951 514.687 398.006 519.351C398.99 518.911 400.01 518.607 401.066 518.437C403.4 518.271 405.77 518.08 408.178 517.865C410.585 517.65 413.017 517.472 415.473 517.331C417.021 517.261 419.127 517.113 421.792 516.886C424.458 516.659 427.24 516.329 430.139 515.894C433.038 515.459 435.723 514.821 438.193 513.98C440.663 513.138 442.428 511.995 443.488 510.548C444.554 506.548 444.132 503.587 442.221 501.667C440.31 499.746 437.82 498.475 434.752 497.854C431.683 497.232 428.387 497.107 424.861 497.479C421.336 497.851 418.431 498.317 416.145 498.876Z"/>
        <path clip-path="url(#TextBounds)" d="M482.139 508.029C479.513 507.113 477.705 505.789 476.715 504.055C475.725 502.321 475.404 500.595 475.752 498.876C476.1 497.158 477.147 495.613 478.895 494.242C480.642 492.871 482.927 492.472 485.75 493.044L496.06 495.132L501.952 466.044C503.063 463.713 504.418 462.071 506.017 461.117C507.616 460.163 509.274 459.861 510.993 460.209C512.588 460.532 513.98 461.389 515.168 462.779C516.355 464.17 517.02 466.093 517.161 468.55L511.156 498.191L528.83 501.771C531.038 502.857 532.551 504.218 533.37 505.853C534.189 507.488 534.436 509.104 534.113 510.699C533.765 512.418 532.841 513.828 531.34 514.929C529.839 516.031 527.799 516.64 525.22 516.756L508.098 513.287C506.061 522.713 504.09 532.44 502.187 542.468C500.283 552.496 498.374 562.235 496.459 571.686C495.887 574.509 494.63 576.458 492.687 577.534C490.744 578.61 488.913 578.974 487.195 578.626C485.477 578.278 484.012 577.31 482.8 575.723C481.588 574.136 481.072 571.955 481.251 569.18C483.19 559.607 485.148 549.781 487.126 539.705C489.103 529.628 491.062 519.803 493.001 510.229L482.139 508.029Z"/>
        <path clip-path="url(#TextBounds)" d="M607.646 569.678C609.933 568.48 612.12 568.093 614.206 568.515C616.17 568.913 617.69 569.924 618.767 571.547C619.844 573.171 620.171 575.026 619.748 577.113C619.524 578.217 618.944 579.505 618.007 580.977C615.274 583.745 612.345 586.378 609.219 588.875C606.094 591.373 602.767 593.446 599.239 595.095C595.71 596.744 591.993 597.907 588.086 598.585C584.18 599.263 580.017 599.155 575.598 598.26C568.971 596.917 563.199 594.342 558.284 590.536C553.37 586.729 549.39 582.09 546.346 576.617C543.302 571.145 541.346 565.031 540.479 558.275C539.612 551.519 539.911 544.52 541.378 537.279C542.423 532.124 544.067 527.474 546.313 523.329C549.347 517.81 552.539 513.091 555.889 509.169C559.239 505.248 562.943 501.942 567.003 499.25C571.062 496.559 575.537 494.335 580.429 492.579C585.32 490.823 590.825 489.35 596.944 488.162C600.949 487.312 604.604 486.775 607.908 486.55C611.211 486.325 614.275 486.498 617.098 487.07C621.394 487.94 625.011 489.951 627.95 493.102C630.89 496.253 633.297 501.085 635.172 507.598C635.316 508.777 635.277 509.919 635.053 511.024C634.605 513.233 633.57 514.876 631.946 515.952C630.323 517.029 628.529 517.368 626.565 516.971C624.233 516.498 622.284 515.081 620.718 512.719C619.671 509.057 618.609 506.415 617.533 504.791C616.456 503.167 615.059 502.182 613.34 501.833C611.99 501.56 610.326 501.574 608.348 501.876C606.371 502.178 603.871 502.534 600.849 502.945C595.812 503.841 590.878 505.173 586.048 506.942C581.218 508.71 576.797 511.137 572.786 514.221C568.775 517.306 565.321 521.11 562.424 525.634C559.527 530.159 557.445 535.55 556.177 541.81C555.281 546.229 555.08 550.692 555.572 555.2C556.065 559.708 557.227 563.904 559.059 567.789C560.892 571.674 563.444 575.002 566.716 577.773C569.987 580.544 574.017 582.415 578.803 583.384C581.626 583.956 584.377 583.938 587.056 583.331C589.734 582.724 592.303 581.711 594.763 580.293C597.222 578.874 599.535 577.234 601.701 575.373C603.867 573.512 605.848 571.614 607.646 569.678Z"/>
        <path clip-path="url(#TextBounds)" d="M654.538 601.218C656.424 603.262 657.346 605.333 657.304 607.433C657.262 609.533 656.632 611.226 655.413 612.512C654.194 613.798 652.571 614.556 650.544 614.784C648.518 615.012 646.401 614.264 644.195 612.539C643.24 611.579 642.284 610.619 641.329 609.659C640.373 608.699 639.357 607.726 638.278 606.741C637.373 605.535 636.823 604.465 636.629 603.532C636.434 602.598 636.376 601.308 636.454 599.663L657.153 497.485C658.117 495.252 659.429 493.665 661.089 492.724C662.749 491.782 664.352 491.436 665.899 491.686C667.445 491.935 668.843 492.761 670.092 494.164C671.341 495.567 672.098 497.509 672.362 499.991L652.296 599.039C652.615 599.359 652.958 599.716 653.325 600.11C653.693 600.504 654.097 600.873 654.538 601.218Z"/>
        <path clip-path="url(#TextBounds)" d="M681.769 568.978C683.915 565.324 686.349 561.824 689.071 558.478C691.793 555.132 694.815 552.199 698.137 549.677C701.459 547.156 705.092 545.145 709.038 543.644C712.984 542.144 717.204 541.338 721.698 541.226C729.14 541.073 735.257 542.887 740.049 546.669C744.841 550.45 748.323 555.181 750.495 560.859C752.667 566.538 753.622 572.705 753.36 579.36C753.097 586.015 751.572 592.126 748.783 597.695C745.475 604.563 740.855 610.655 734.923 615.97C728.99 621.284 722.179 624.632 714.489 626.013C708.788 627.03 703.57 626.772 698.834 625.237C694.097 623.703 690.057 621.255 686.713 617.895C683.369 614.534 680.77 610.493 678.915 605.773C677.06 601.053 676.176 595.955 676.263 590.478C676.321 587.04 676.765 583.744 677.596 580.59C678.426 577.436 679.472 574.326 680.732 571.259L681.769 568.978ZM695.272 576.121C694.258 578.599 693.442 580.894 692.823 583.004C692.204 585.115 691.805 587.557 691.626 590.332C691.323 593.721 691.763 596.908 692.947 599.895C694.131 602.882 695.807 605.33 697.976 607.239C700.144 609.148 702.739 610.376 705.758 610.924C708.778 611.472 712.008 611.136 715.449 609.916C719.997 608.282 723.865 605.744 727.054 602.301C730.243 598.858 732.912 594.991 735.059 590.698C736.787 587.215 737.797 583.331 738.09 579.046C738.383 574.761 737.871 570.824 736.554 567.235C735.237 563.646 733.064 560.81 730.036 558.727C727.008 556.644 723.037 556.063 718.123 556.984C712.791 558.076 708.29 560.423 704.622 564.024C700.954 567.625 697.837 571.658 695.272 576.121Z"/>
        <path clip-path="url(#TextBounds)" d="M836.665 634.089C837.667 636.081 837.957 638.12 837.534 640.207C837.112 642.293 836.095 643.844 834.484 644.859C832.872 645.875 831.085 646.183 829.121 645.785C826.421 645.238 824.344 643.508 822.89 640.594C821.436 637.68 820.357 634.491 819.653 631.026C815.766 633.816 811.432 635.973 806.651 637.496C801.87 639.019 797.21 639.321 792.668 638.401C789.354 637.729 786.281 636.5 783.449 634.712C780.617 632.925 778.086 630.751 775.858 628.191C773.629 625.632 771.776 622.796 770.298 619.686C768.82 616.576 767.888 613.448 767.503 610.303C767.167 606.913 767.207 603.248 767.622 599.307C768.037 595.366 768.667 591.309 769.513 587.136C770.532 582.104 771.65 577.219 772.865 572.482C774.08 567.745 775.06 563.536 775.806 559.854C776.917 557.523 778.272 555.881 779.871 554.927C781.47 553.973 783.128 553.671 784.847 554.019C786.442 554.342 787.834 555.199 789.022 556.589C790.209 557.98 790.874 559.903 791.015 562.36C789.846 568.128 788.629 573.664 787.363 578.965C786.098 584.267 784.856 589.925 783.637 595.939C782.245 602.812 782.574 608.757 784.625 613.772C786.675 618.787 790.217 621.805 795.249 622.824C797.09 623.197 799.006 623.202 800.996 622.838C802.986 622.475 804.903 621.841 806.747 620.937C808.592 620.033 810.35 618.92 812.024 617.598C813.697 616.275 815.248 614.929 816.676 613.557C816.971 613.361 817.321 613.208 817.727 613.099C818.132 612.989 818.483 612.837 818.778 612.641C819.285 606.355 820.172 600.082 821.44 593.823C822.161 590.263 822.919 586.679 823.714 583.071C824.509 579.463 825.487 576.211 826.649 573.316C827.81 570.421 829.228 568.152 830.902 566.511C832.576 564.87 834.579 564.285 836.911 564.758C838.752 565.131 840.266 566.172 841.453 567.882C842.64 569.592 842.96 571.797 842.413 574.497C841.841 577.32 840.93 580.713 839.68 584.676C838.43 588.64 837.357 592.831 836.462 597.249C835.766 600.686 835.192 604.147 834.742 607.634C834.291 611.12 834.025 614.484 833.943 617.726C833.861 620.967 834.02 623.97 834.418 626.734C834.816 629.498 835.566 631.95 836.665 634.089Z"/>
        <path clip-path="url(#TextBounds)" d="M926.399 651.884C927.547 654.417 927.763 656.665 927.046 658.628C926.329 660.591 925.208 662.025 923.683 662.929C922.158 663.834 920.389 664.051 918.376 663.579C916.363 663.108 914.574 661.691 913.008 659.33C912.519 658.592 912.097 657.835 911.743 657.061C911.389 656.286 911.151 655.567 911.03 654.904C906.701 657.349 901.933 658.97 896.724 659.768C891.515 660.566 886.426 660.461 881.455 659.454C876.484 658.447 871.933 656.471 867.802 653.526C863.671 650.58 860.506 646.649 858.308 641.732C856.648 637.946 855.712 633.891 855.502 629.568C855.291 625.245 855.615 620.966 856.473 616.732C857.331 612.497 858.698 608.43 860.574 604.529C862.45 600.629 864.547 597.061 866.863 593.825C868.983 590.932 871.684 588.477 874.968 586.458C878.252 584.44 881.589 582.944 884.981 581.97C888.127 580.947 891.555 580.268 895.264 579.933C898.974 579.598 902.436 579.693 905.652 580.217C908.598 580.813 911.531 581.471 914.452 582.191C917.373 582.91 920.158 583.986 922.807 585.417C924.474 576.555 925.893 569.08 927.062 562.992C928.231 556.904 929.028 552.817 929.45 550.73C930.414 548.498 931.725 546.911 933.385 545.969C935.046 545.028 936.649 544.682 938.196 544.931C939.742 545.181 941.14 546.007 942.389 547.41C943.638 548.813 944.395 550.755 944.659 553.236L925.153 649.523C925.324 649.941 925.531 650.335 925.776 650.704C926.021 651.073 926.229 651.466 926.399 651.884ZM912.883 635.347L913.406 632.769C914.326 628.228 915.339 623.226 916.445 617.765C917.552 612.303 918.541 607.105 919.413 602.17L918.42 601.394C918.101 601.074 917.814 600.76 917.557 600.453C917.299 600.145 917.012 599.831 916.693 599.511C913.235 597.661 909.468 596.386 905.393 595.689C901.318 594.991 897.357 594.987 893.512 595.678C889.667 596.368 886.09 597.784 882.781 599.924C879.473 602.065 876.843 605.11 874.893 609.059C873.141 612.665 872.101 615.905 871.775 618.777C871.448 621.65 871.145 625.038 870.865 628.943C871.157 630.024 871.419 631.099 871.649 632.168C871.88 633.237 872.141 634.312 872.433 635.394L875.37 639.822C876.743 640.611 878.03 641.511 879.231 642.521C884.041 644.006 888.601 644.674 892.912 644.525C897.223 644.376 901.616 643.03 906.092 640.487C906.265 640.267 906.609 639.985 907.126 639.643C907.642 639.3 908.196 638.933 908.786 638.542C909.377 638.15 909.93 637.783 910.447 637.44C910.963 637.098 911.296 636.878 911.443 636.78L912.883 635.347Z"/>
        -->
        </g>
        <clipPath id="TextBounds_2">
            <rect height="381.948" width="872.824" x="92.5066" y="490.088"/>
        </clipPath>

        <g id="Fill_2">
            <!--
        <path clip-path="url(#TextBounds_2)" d="M470.46 714.66C471.608 717.193 471.823 719.441 471.106 721.404C470.389 723.367 469.268 724.801 467.743 725.706C466.218 726.611 464.449 726.827 462.437 726.356C460.424 725.884 458.634 724.467 457.068 722.106C456.579 721.368 456.157 720.611 455.803 719.837C455.449 719.062 455.211 718.343 455.09 717.68C450.762 720.125 445.993 721.747 440.784 722.544C435.576 723.342 430.486 723.237 425.515 722.23C420.544 721.223 415.993 719.247 411.862 716.302C407.731 713.357 404.567 709.425 402.368 704.508C400.708 700.722 399.772 696.667 399.562 692.344C399.352 688.021 399.675 683.742 400.533 679.508C401.391 675.273 402.758 671.206 404.634 667.306C406.511 663.405 408.607 659.837 410.924 656.601C413.043 653.708 415.744 651.253 419.028 649.235C422.312 647.217 425.65 645.721 429.041 644.747C432.187 643.723 435.615 643.044 439.325 642.709C443.034 642.374 446.497 642.469 449.713 642.993C452.658 643.59 455.592 644.248 458.512 644.967C461.433 645.687 464.218 646.762 466.867 648.193C468.534 639.331 469.953 631.856 471.122 625.768C472.292 619.68 473.088 615.593 473.511 613.506C474.474 611.274 475.786 609.687 477.446 608.745C479.106 607.804 480.709 607.458 482.256 607.707C483.803 607.957 485.2 608.783 486.449 610.186C487.699 611.589 488.455 613.531 488.719 616.012L469.213 712.3C469.384 712.718 469.592 713.111 469.836 713.48C470.081 713.849 470.289 714.242 470.46 714.66ZM456.944 698.123L457.466 695.545C458.386 691.004 459.399 686.002 460.506 680.541C461.612 675.079 462.601 669.881 463.473 664.946L462.48 664.17C462.162 663.85 461.874 663.536 461.617 663.229C461.36 662.921 461.072 662.607 460.753 662.287C457.295 660.437 453.528 659.163 449.453 658.465C445.378 657.767 441.418 657.763 437.572 658.454C433.727 659.144 430.15 660.56 426.842 662.7C423.533 664.841 420.904 667.886 418.954 671.836C417.201 675.441 416.161 678.681 415.835 681.553C415.509 684.426 415.206 687.815 414.926 691.719C415.218 692.8 415.479 693.875 415.71 694.944C415.94 696.013 416.202 697.088 416.494 698.17L419.43 702.598C420.803 703.387 422.09 704.287 423.291 705.297C428.101 706.782 432.662 707.45 436.972 707.302C441.283 707.153 445.676 705.807 450.153 703.263C450.325 703.043 450.67 702.761 451.186 702.419C451.703 702.076 452.256 701.709 452.847 701.318C453.437 700.926 453.991 700.559 454.507 700.217C455.024 699.874 455.356 699.654 455.503 699.556L456.944 698.123Z"/>
        <path clip-path="url(#TextBounds_2)" d="M554.839 722.938C557.615 722.478 559.849 722.803 561.541 723.912C563.233 725.022 564.316 726.455 564.791 728.212C565.265 729.969 565.028 731.774 564.077 733.626C563.127 735.478 561.349 736.842 558.744 737.72C554.221 739.232 549.429 740.497 544.367 741.516C539.305 742.535 534.306 742.927 529.37 742.694C524.434 742.461 519.715 741.473 515.213 739.73C510.711 737.988 506.61 735.208 502.911 731.392C498.477 726.789 495.525 721.176 494.056 714.553C492.586 707.931 492.455 701.324 493.663 694.733C494.87 688.141 497.348 682.063 501.094 676.497C504.841 670.931 509.788 666.854 515.934 664.266C522.351 661.605 529.066 659.995 536.079 659.435C543.092 658.875 549.825 660.015 556.277 662.856C559.442 664.264 562.132 666.438 564.347 669.378C566.563 672.318 568.182 675.521 569.205 678.987C570.228 682.452 570.446 685.946 569.86 689.469C569.274 692.992 567.75 696.101 565.287 698.797C562.505 701.811 558.907 704.117 554.495 705.714C550.082 707.312 545.407 708.473 540.469 709.198C535.53 709.922 530.648 710.371 525.821 710.543C520.995 710.715 516.764 710.944 513.129 711.23C511.581 711.3 510.157 711.075 508.857 710.556C509.902 714.857 511.98 718.632 515.091 721.881C518.202 725.131 522.495 727.119 527.97 727.844C532.316 728.469 536.885 728.149 541.677 726.884C546.469 725.618 550.857 724.303 554.839 722.938ZM526.882 676.45C521.869 677.862 517.828 680.462 514.761 684.249C511.694 688.036 509.688 692.261 508.743 696.925C509.727 696.485 510.747 696.181 511.803 696.012C514.137 695.846 516.507 695.655 518.915 695.44C521.322 695.225 523.754 695.047 526.21 694.905C527.758 694.836 529.864 694.687 532.529 694.461C535.195 694.234 537.977 693.903 540.876 693.468C543.775 693.033 546.46 692.395 548.93 691.554C551.401 690.713 553.166 689.569 554.225 688.123C555.291 684.122 554.869 681.162 552.958 679.241C551.047 677.321 548.557 676.05 545.489 675.428C542.42 674.807 539.124 674.682 535.598 675.054C532.073 675.426 529.168 675.891 526.882 676.45Z"/>
        <path clip-path="url(#TextBounds_2)" d="M638.272 681.958C639.922 680.12 641.644 679.031 643.437 678.692C645.231 678.353 646.851 678.553 648.299 679.294C649.746 680.034 650.836 681.277 651.568 683.022C652.301 684.768 652.369 686.794 651.774 689.102C648.713 695.381 645.407 701.452 641.856 707.313C638.305 713.174 634.778 719.071 631.276 725.006C627.996 730.475 624.765 735.858 621.584 741.155C618.402 746.452 615.012 751.675 611.414 756.823C608.658 759.076 605.967 759.744 603.341 758.829C600.716 757.914 598.977 755.773 598.126 752.406C596.069 739.851 593.896 727.4 591.606 715.053C589.316 702.706 586.466 690.438 583.058 678.248C582.328 675.544 582.463 673.303 583.462 671.525C584.461 669.747 585.79 668.547 587.449 667.925C589.109 667.303 590.914 667.381 592.864 668.159C594.815 668.938 596.364 670.593 597.512 673.126C600.067 682.588 602.352 692.123 604.367 701.73C606.382 711.338 608.249 721.044 609.968 730.848C611.3 728.69 612.6 726.525 613.871 724.355C615.141 722.185 616.442 720.021 617.773 717.863C621.276 711.928 624.772 706.024 628.261 700.15C631.751 694.277 635.088 688.213 638.272 681.958Z"/>
        -->
        </g>
        <path d="M710.82 364.843C714.629 363.891 718.511 363.378 722.612 363.378C726.714 363.378 730.669 363.891 734.551 364.916L734.551 309.252C734.551 304.345 736.748 301.781 742.095 301.781L768.242 301.781L768.242 333.056C768.242 348.217 775.274 355.248 790.361 355.248L821.563 355.248L821.563 410.912C821.563 415.893 819.365 418.383 814.019 418.383L773.296 418.383C772.783 427.025 769.927 435.155 765.313 442.113L817.534 442.113C835.112 442.113 845.293 431.933 845.293 414.281L845.293 347.851C845.293 335.106 843.096 328.368 834.893 320.092L803.325 288.378C795.195 280.248 788.384 278.051 775.859 278.051L738.579 278.051C720.928 278.051 710.82 288.231 710.82 305.883L710.82 364.843ZM786.699 331.591L786.699 302.733L820.61 336.791L791.826 336.791C788.457 336.791 786.699 335.033 786.699 331.591ZM719.317 455.663L725.762 455.663C728.984 455.663 731.548 453.612 732.28 450.536L733.818 443.944C734.404 443.725 734.917 443.578 735.43 443.285L741.143 446.801C743.853 448.485 747.149 448.266 749.492 445.922L754.033 441.381C756.231 439.11 756.45 435.741 754.766 432.958L751.323 427.318C751.616 426.806 751.763 426.366 751.983 425.854L758.574 424.242C761.724 423.437 763.775 420.946 763.775 417.724L763.775 411.352C763.775 408.202 761.724 405.565 758.574 404.833L752.056 403.295C751.909 402.782 751.616 402.27 751.397 401.83L754.985 395.971C756.597 393.261 756.377 389.818 754.033 387.621L749.346 383.08C747.149 381.029 744.146 380.59 741.362 382.128L735.43 385.79C734.917 385.497 734.404 385.351 733.892 385.131L732.28 378.393C731.475 375.316 728.984 373.192 725.762 373.192L719.317 373.192C716.021 373.192 713.604 375.316 712.798 378.466L711.187 385.058C710.674 385.204 710.088 385.497 709.502 385.79L703.643 382.128C701.006 380.59 697.857 380.956 695.659 383.08L690.972 387.621C688.701 389.745 688.408 393.187 690.093 395.971L693.682 401.83C693.389 402.27 693.169 402.855 692.949 403.295L686.504 404.833C683.281 405.639 681.304 408.202 681.304 411.352L681.304 417.724C681.304 420.946 683.355 423.437 686.504 424.242L693.096 425.854C693.316 426.366 693.535 426.806 693.682 427.318L690.239 433.031C688.555 435.741 688.775 439.11 690.972 441.381L695.586 445.922C697.857 448.192 701.152 448.485 703.862 446.801L709.649 443.285C710.088 443.578 710.674 443.725 711.187 443.944L712.798 450.536C713.604 453.612 716.021 455.663 719.317 455.663ZM722.539 426.293C716.094 426.293 710.747 420.946 710.747 414.428C710.747 408.056 716.094 402.636 722.539 402.636C728.984 402.636 734.404 408.056 734.404 414.428C734.404 420.946 728.984 426.293 722.539 426.293Z" id="Fill_3"/>
        <clipPath id="TextBounds_3">
            <rect height="54.86" width="70.9991" x="327.795" y="656.947"/>
        </clipPath>
        <path clip-path="url(#TextBounds_3)" d="M361.537 702.838L365.053 702.838C366.733 702.838 368.08 701.783 368.432 700.162L369.291 696.568C369.643 696.451 369.955 696.314 370.248 696.178L373.393 698.131C374.779 698.99 376.498 698.814 377.65 697.662L380.131 695.182C381.303 694.01 381.459 692.232 380.561 690.865L378.647 687.74C378.783 687.467 378.9 687.174 379.018 686.861L382.65 686.002C384.272 685.65 385.307 684.303 385.307 682.623L385.307 679.185C385.307 677.525 384.272 676.178 382.65 675.807L379.057 674.967C378.94 674.635 378.822 674.322 378.686 674.049L380.6 670.846C381.498 669.42 381.361 667.701 380.15 666.549L377.611 664.068C376.44 663.014 374.916 662.818 373.51 663.56L370.248 665.572C369.955 665.435 369.643 665.318 369.311 665.182L368.432 661.529C368.08 659.889 366.733 658.853 365.053 658.853L361.537 658.853C359.858 658.853 358.529 659.889 358.158 661.549L357.299 665.142C356.967 665.26 356.615 665.396 356.322 665.553L353.08 663.56C351.654 662.818 350.15 662.994 348.959 664.088L346.44 666.549C345.229 667.701 345.092 669.42 345.99 670.846L347.904 674.049C347.768 674.322 347.65 674.635 347.533 674.967L343.959 675.807C342.318 676.178 341.283 677.525 341.283 679.185L341.283 682.623C341.283 684.303 342.318 685.65 343.959 686.002L347.572 686.861C347.69 687.174 347.807 687.467 347.943 687.74L346.029 690.865C345.131 692.232 345.287 694.01 346.459 695.182L348.94 697.662C350.092 698.814 351.811 698.99 353.217 698.131L356.342 696.178C356.635 696.314 356.967 696.451 357.299 696.568L358.158 700.162C358.529 701.783 359.858 702.838 361.537 702.838ZM363.295 687.467C359.662 687.467 356.693 684.498 356.693 680.846C356.693 677.232 359.662 674.244 363.295 674.244C366.928 674.244 369.916 677.232 369.916 680.846C369.916 684.498 366.928 687.467 363.295 687.467Z" id="Fill_4"/>
    </defs>
<clipPath id="ArtboardFrame">
<rect height="1024" width="1024" x="0" y="0"/>
</clipPath>
<g clip-path="url(#ArtboardFrame)" id="Cloud">
<g filter="url(#Filter)">
<path d="M926.438 450.406C924.388 450.781 922.465 451.932 921.188 453.781C918.632 457.48 919.582 462.569 923.281 465.125C930.648 470.231 937.811 475.574 944.625 481.406C957.122 492.102 968.264 504.14 978.062 517.344C979.616 519.437 981.179 521.508 982.656 523.656C984.676 526.593 986.502 529.682 988.312 532.75C993.991 542.376 998.682 552.561 1002.16 563.188C1004.75 571.12 1006.66 579.278 1007.91 587.531C1013.13 622.283 1006.1 658.169 989.594 689.062C983.901 699.718 977.195 710.13 968.844 718.906C962.801 725.257 955.697 730.756 948.281 735.406C927.351 748.53 902.607 754.805 878 754.844C866.848 754.861 855.818 753.523 844.906 751.281C843.485 750.989 842.073 751.923 841.781 753.344C841.489 754.765 842.423 756.145 843.844 756.438C849.538 757.607 855.248 758.605 861.031 759.219C879.665 761.198 898.702 759.887 916.781 754.875C932.796 750.435 948.043 743.025 961.156 732.781C967.587 727.757 973.584 722.034 978.938 715.875C985.223 708.644 990.706 700.654 995.562 692.406C1014.31 660.565 1023.17 622.905 1019.34 586.062C1016.81 561.66 1008.82 538.053 996.312 516.969C993.089 511.536 989.714 506.235 985.906 501.188C971.169 481.655 952.607 465.547 932.531 451.719C930.682 450.441 928.487 450.032 926.438 450.406Z" fill="#3887de" stroke="none"/>
</g>
<g filter="url(#Filter_2)">
<path d="M857.125 682.625C852.696 681.853 848.491 684.821 847.719 689.25C845.424 702.337 842.323 715.242 838.188 727.875C830.289 752.001 818.907 774.775 804.875 795.906C802.374 799.672 799.866 803.45 797.188 807.094C789.55 817.486 781.097 827.332 772.062 836.531C747.325 861.722 717.591 881.884 685.125 895.719C649.194 911.03 610.054 918.276 571.031 917.375C551.938 916.934 532.944 914.556 514.406 909.938C483.195 902.162 453.418 888.871 426.781 870.844C405.197 856.236 385.702 838.561 369.062 818.5C362.519 810.611 356.471 802.356 350.812 793.812C349.927 792.476 348.118 792.115 346.781 793C345.445 793.885 345.084 795.663 345.969 797C365.462 826.433 389.968 852.011 418.812 872.406C438.407 886.261 459.811 897.605 482.281 906.031C497.916 911.894 513.985 916.208 530.375 919.344C548.689 922.847 567.253 924.714 585.906 924.688C625.205 924.632 664.458 916.404 700.406 900.5C724.722 889.743 747.537 875.543 767.969 858.531C783.154 845.887 796.925 831.739 809.188 816.25C815.136 808.736 820.733 801.007 825.812 792.875C839.734 770.586 850.368 746.23 857.375 720.906C860.006 711.397 862.065 701.781 863.75 692.062C864.522 687.633 861.554 683.397 857.125 682.625Z" fill="#3887de" stroke="none"/>
</g>
<g filter="url(#Filter_3)">
<path d="M715.406 165.031C710.26 165.005 705.132 165.137 700 165.469C694.9 165.799 689.814 166.416 684.75 167.094C680.856 167.615 676.98 168.179 673.125 168.938C653.836 172.735 635.012 179.99 618.188 190.156C610.798 194.621 603.774 199.662 597.219 205.281C588.089 213.106 580.05 221.999 572.906 231.656C570.229 235.268 570.982 240.385 574.594 243.062C578.205 245.74 583.322 244.987 586 241.375C592.433 232.716 599.63 224.729 607.844 217.719C627.084 201.296 650.479 190.573 674.969 184.688C679.502 183.598 684.023 182.543 688.625 181.781C713.098 177.731 738.23 178.337 762.625 182.594C787.662 186.962 811.958 195.271 834.719 206.531C861.645 219.851 886.52 237.448 908.125 258.312C919.386 269.188 929.88 280.997 939.062 293.688C947.812 305.78 955.396 318.829 961.781 332.312C981.13 373.17 989.22 420.844 976.375 464.875C973.46 474.866 969.428 484.42 964.531 493.594C963.776 495.008 964.304 496.776 965.719 497.531C967.133 498.286 968.901 497.758 969.656 496.344C974.741 486.817 978.911 476.875 981.938 466.5C995.193 421.062 986.975 371.993 967 329.812C962.915 321.187 958.366 312.803 953.344 304.688C950.01 299.301 946.443 294.064 942.812 288.875C924.602 262.843 901.913 240.074 876.375 221.219C842.332 196.084 803.021 177.954 761.438 169.75C746.312 166.766 730.845 165.11 715.406 165.031Z" fill="#3887de" stroke="none"/>
</g>
<g filter="url(#Filter_4)">
<path d="M463.25 204.281C452.926 204.535 442.709 205.617 432.5 207.125C428.594 207.702 424.669 208.244 420.781 208.938C407.652 211.278 394.721 214.718 382.156 219.188C368.404 224.08 355.234 230.272 342.562 237.5C341.17 238.294 340.675 240.076 341.469 241.469C342.263 242.861 344.045 243.325 345.438 242.531C351.536 239.053 357.721 235.764 364.094 232.812C378.508 226.137 393.607 220.943 409.062 217.281C416.998 215.401 425.102 213.774 433.219 212.906C442.73 211.889 452.416 211.726 461.969 212.062C491.592 213.106 521.433 220.295 547.219 235.188C549.344 236.415 551.47 237.605 553.531 238.938C554.991 239.881 556.41 240.925 557.844 241.906C563.176 245.554 568.41 249.32 573.344 253.5C580.42 259.496 586.818 266.172 592.5 273.5C595.247 277.059 600.347 277.716 603.906 274.969C607.466 272.222 608.122 267.122 605.375 263.562C599.013 255.279 591.849 247.651 583.812 240.969C578.292 236.378 572.418 232.112 566.188 228.531C564.527 227.577 562.824 226.727 561.125 225.844C559.076 224.779 557.026 223.674 554.938 222.688C549.666 220.196 544.266 218.006 538.781 216.031C514.666 207.35 488.836 203.653 463.25 204.281Z" fill="#3887de" stroke="none"/>
</g>
<g filter="url(#Filter_5)">
<path d="M200.562 319.344C191.811 322.889 183.174 326.73 174.75 331C167.839 334.503 161.074 338.261 154.469 342.312C132.365 355.872 111.83 372.749 96.2188 393.594C92.0214 399.198 88.2856 405.076 84.875 411.188C79.9672 419.981 75.9533 429.236 73.3125 438.969C70.7145 448.543 69.4266 458.453 69.5625 468.375C69.6742 476.53 70.7537 484.679 72.7188 492.594C80.3033 523.141 100.775 548.786 125.031 568.094C135.045 576.064 146.032 582.74 157.062 589.188C168.199 595.697 179.749 601.442 191.812 606.031C194.838 607.182 197.87 608.278 200.938 609.312C201.822 609.611 202.695 609.934 203.594 610.188C206.301 610.952 209.198 611.315 211.969 611.781C218.117 612.815 224.301 613.538 230.5 614.188C232.925 614.785 235.372 613.3 235.969 610.875C236.566 608.45 235.082 606.004 232.656 605.406C227.458 603.339 222.324 601.162 217.219 598.875C215.558 598.131 213.905 597.381 212.25 596.625C211.026 596.066 209.794 595.438 208.531 594.969C207.289 594.507 206.007 594.143 204.75 593.719C202.255 592.876 199.762 592.01 197.281 591.125C185.403 586.888 173.519 582.433 162.156 576.938C151.948 572 142.375 565.887 133.219 559.219C120.9 550.247 109.49 540.041 100.125 527.969C92.2134 517.771 85.8069 506.338 81.75 494.062C78.5941 484.513 76.881 474.496 76.75 464.438C76.6614 457.634 77.291 450.834 78.5938 444.156C80.6608 433.561 84.3937 423.229 89.4375 413.688C92.7404 407.439 96.7278 401.496 101 395.875C112.224 381.106 126.048 368.406 141.031 357.531C145.941 353.968 150.97 350.603 156.125 347.406C162.574 343.407 169.216 339.679 175.969 336.219C184.628 331.781 193.484 327.809 202.5 324.156C203.831 323.617 204.477 322.112 203.938 320.781C203.398 319.451 201.893 318.805 200.562 319.344Z" fill="#3887de" stroke="none"/>
</g>
<g filter="url(#Filter_6)">
<path d="M153 591.781C151.77 591.784 150.561 592.247 149.625 593.188C141.681 601.169 135.187 610.33 130.75 620.719C129.512 623.617 128.446 626.578 127.531 629.594C126.982 631.403 126.602 633.253 126.062 635.062C125.698 636.284 125.192 637.481 124.781 638.688C123.945 641.141 123.163 643.619 122.5 646.125C119.901 655.951 118.603 666.18 119.25 676.344C120.22 691.591 125.088 706.636 132.312 720.062C137.269 729.274 143.477 737.828 150.25 745.781C162.519 760.188 177.076 772.6 193.031 782.75C218.925 799.223 248.86 810.037 279.625 811.781C285.315 812.104 290.935 811.949 296.625 811.781C304.467 811.55 312.235 810.891 319.938 809.344C336.934 805.93 353.251 798.674 366.344 787.188C370.158 783.841 373.682 780.155 376.844 776.188C381.521 770.318 385.287 763.888 388.375 757.062C389.469 754.644 388.387 751.813 385.969 750.719C383.55 749.625 380.688 750.675 379.594 753.094C376.598 759.717 372.916 765.935 368.25 771.531C353.491 789.233 331.419 798.725 308.875 801.375C304.769 801.858 300.606 802.179 296.469 802.188C294.513 802.192 292.543 802.051 290.594 801.906C285.938 801.56 281.316 800.967 276.719 800.156C236.948 793.142 199.713 769.961 174.344 738.75C165.086 727.36 157.515 714.694 151.25 701.438C145.644 689.576 141.281 677.192 138.094 664.469C136.419 657.783 135.301 650.998 135.156 644.094C135.109 641.857 135.036 639.497 135.406 637.281C135.68 635.646 136.238 633.991 136.719 632.406C137.369 630.262 138.102 628.141 138.938 626.062C142.938 616.106 148.902 607.539 156.438 599.969C158.31 598.087 158.288 595.029 156.406 593.156C155.466 592.22 154.23 591.778 153 591.781Z" fill="#3887de" stroke="none"/>
</g>
<g filter="url(#Filter_7)">
<path d="M342.469 207.469C329.592 206.906 316.483 208.786 304.219 212.219C299.149 213.638 294.168 215.356 289.281 217.312C287.186 218.151 285.117 219.078 283.031 219.938C274.377 223.501 266.078 227.763 258.156 232.75C250.746 237.415 243.701 242.703 237.219 248.594C228.387 256.621 220.513 265.749 214.219 275.906C209.743 283.129 205.955 290.976 203.594 299.156C201.221 307.376 200.535 316.104 200.906 324.625C201.135 329.882 201.841 335.089 203.406 340.125C205.331 346.315 208.5 352.087 212.656 357.062C213.916 358.571 215.222 360.238 216.844 361.375C218.066 362.231 219.49 362.909 220.812 363.594C225.166 365.849 229.904 367.383 234.688 368.406C237.777 370.044 241.612 368.871 243.25 365.781C244.888 362.692 243.715 358.856 240.625 357.219C238.474 355.023 236.531 352.623 234.875 350.031C234.307 349.142 233.743 348.26 233.219 347.344C232.72 346.473 232.336 345.526 231.688 344.75C230.475 343.299 229.123 341.977 227.969 340.469C223.951 335.218 220.55 329.04 219.156 322.531C217.783 316.119 218.579 309.567 219.875 303.219C223.367 286.115 232.668 270.813 244.312 258C252.44 249.057 261.818 241.264 271.969 234.719C276.868 231.56 281.95 228.509 287.25 226.062C290.717 224.462 294.304 223.104 297.906 221.844C307.67 218.428 317.848 216.069 328.156 215.125C344.559 213.623 361.275 215.618 375.812 223.781C377.565 224.765 379.798 224.128 380.781 222.375C381.765 220.622 381.128 218.421 379.375 217.438C367.988 211.051 355.345 208.031 342.469 207.469Z" fill="#3887de" stroke="none"/>
</g>
<g opacity="1">
<use fill="#4083cd" fill-opacity="0.439198" stroke="none" xlink:href="#Fill"/>
<mask height="1841.4" id="StrokeMask" maskUnits="userSpaceOnUse" width="2336" x="-602.93" y="-386.874">
<rect fill="#ffffff" height="1841.4" stroke="none" width="2336" x="-602.93" y="-386.874"/>
<use fill="#000000" fill-rule="evenodd" stroke="none" xlink:href="#Fill"/>
</mask>
<use fill="none" mask="url(#StrokeMask)" stroke="#3887de" stroke-linecap="round" stroke-linejoin="round" stroke-width="8" xlink:href="#Fill"/>
</g>
<g opacity="1">
<use fill="#f7e639" stroke="none" xlink:href="#Fill_2"/>
<mask height="734.975" id="StrokeMask_2" maskUnits="userSpaceOnUse" width="831.902" x="111.064" y="312.615">
<rect fill="#ffffff" height="734.975" stroke="none" width="831.902" x="111.064" y="312.615"/>
<use fill="#000000" fill-rule="evenodd" stroke="none" xlink:href="#Fill_2"/>
</mask>
<use fill="none" mask="url(#StrokeMask_2)" stroke="#e09d18" stroke-linecap="round" stroke-linejoin="round" stroke-width="8" xlink:href="#Fill_2"/>
</g>
<g opacity="1">
<use fill="#4083cd" fill-opacity="0.531354" fill-rule="nonzero" stroke="none" xlink:href="#Fill_3"/>
<mask height="177.612" id="StrokeMask_3" maskUnits="userSpaceOnUse" width="163.989" x="681.304" y="278.051">
<rect fill="#000000" height="177.612" stroke="none" width="163.989" x="681.304" y="278.051"/>
<use fill="#ffffff" fill-rule="evenodd" stroke="none" xlink:href="#Fill_3"/>
</mask>
<use fill="none" mask="url(#StrokeMask_3)" stroke="#1f84e1" stroke-linecap="round" stroke-linejoin="round" stroke-opacity="0.953368" stroke-width="6" xlink:href="#Fill_3"/>
</g>
<g opacity="1">
<use fill="#4083cd" fill-opacity="0.531354" stroke="none" xlink:href="#Fill_4"/>
<mask height="132.031" id="StrokeMask_4" maskUnits="userSpaceOnUse" width="132.07" x="297.26" y="614.83">
<rect fill="#000000" height="132.031" stroke="none" width="132.07" x="297.26" y="614.83"/>
<use fill="#ffffff" fill-rule="evenodd" stroke="none" xlink:href="#Fill_4"/>
</mask>
<use fill="none" mask="url(#StrokeMask_4)" stroke="#1f84e1" stroke-linecap="round" stroke-linejoin="round" stroke-opacity="0.953368" stroke-width="8" xlink:href="#Fill_4"/>
</g>
</g>
</svg>
