<?xml version="1.0" encoding="UTF-8"?>
<svg xmlns="http://www.w3.org/2000/svg" xmlns:xlink="http://www.w3.org/1999/xlink" version="1.1"
	width="173px" height="353px" viewBox="-0.5 -0.5 173 353">
	<style type="text/css">
		.main_engine{fill:#C6E7E5;}
		.left_engine{fill:#C6E7E5;}
		.right_engine{fill:#C6E7E5;}
		.body{fill:rgb(216, 235, 240);}
		.tail{fill:rgb(174, 160, 217);}
		.head{fill:rgb(174, 160, 217);}
		.right_wing{fill:rgb(174, 160, 217);}
		.left_wing{fill:rgb(174, 160, 217);}
		.window{fill:rgb(174, 160, 217);}
	</style>
	<g>
		<!--main engine-->
		<path
			class="main_engine"
			d="M 85 251 L 120 341 C 120 346.52 104.33 351 85 351 C 65.67 351 50 346.52 50 341 Z"
			stroke="rgb(0, 0, 0)" stroke-width="3" stroke-miterlimit="10"
			pointer-events="all" />
		<!--left engine-->
		<path
			class="left_engine"
			d="M 135.5 231 L 170.5 321 C 170.5 326.52 154.83 331 135.5 331 C 116.17 331 100.5 326.52 100.5 321 Z"
			fill="rgb(255, 255, 255)" stroke="rgb(0, 0, 0)" stroke-width="3" stroke-miterlimit="10"
			pointer-events="all" />
		<!--right engine-->
		<path
			class="right_engine"
			d="M 35.5 231 L 70.5 321 C 70.5 326.52 54.83 331 35.5 331 C 16.17 331 0.5 326.52 0.5 321 Z"
			stroke="rgb(0, 0, 0)" stroke-width="3" stroke-miterlimit="10"
			pointer-events="all" />
		<!--body-->
		<path
			class="body"
			d="M -18.75 98.5 Q 187.5 98.5 187.5 148.5 Q 187.5 198.5 -18.75 198.5 Z"
			stroke="rgb(0, 0, 0)" stroke-width="3" stroke-miterlimit="10"
			transform="rotate(-90,84.38,148.5)" pointer-events="all" />
		<!--tail-->
		<rect
			class="tail"
			x="35" y="251" width="100" height="60" stroke="rgb(0, 0, 0)"
			stroke-width="2" pointer-events="all" />
		<!--head-->
		<path
			class="head"
			d="M 85 1 L 115 73 C 115 77.42 101.57 81 85 81 C 68.43 81 55 77.42 55 73 Z"
			fill="rgb(255, 255, 255)" stroke="rgb(0, 0, 0)" stroke-width="3" stroke-miterlimit="10"
			pointer-events="all" />
		<!--right wing-->
		<path
			class="left_wing"
			d="M 105 191 C 105 257.27 118.66 311 135.5 311 C 152.34 311 166 257.27 166 191 Z"
			fill="rgb(255, 255, 255)" stroke="rgb(0, 0, 0)" stroke-width="3" stroke-miterlimit="10"
			transform="rotate(-180,135.5,251)" pointer-events="all" />
		<!-- left wing -->
		<path
			class="left_wing"
			d="M 5 191 C 5 257.27 18.66 311 35.5 311 C 52.34 311 66 257.27 66 191 Z"
			fill="rgb(255, 255, 255)" stroke="rgb(0, 0, 0)" stroke-width="3" stroke-miterlimit="10"
			transform="rotate(-180,35.5,251)" pointer-events="all" />

		<rect x="74.38" y="281" width="20" height="40" fill="none" stroke="none"
			transform="rotate(90,84.38,301)" pointer-events="all" />

		<path d="M 74.38 281 M 94.38 281 L 94.38 321 M 74.38 321 L 74.38 281" fill="none"
			stroke="rgb(0, 0, 0)" stroke-width="2" stroke-linecap="square" stroke-miterlimit="10"
			transform="rotate(90,84.38,301)" pointer-events="all" />
		<!-- window -->
		<path
			class="window"
			d="M 54.37 161 C 54.37 144.43 67.8 131 84.37 131 C 92.33 131 99.96 134.16 105.58 139.79 C 111.21 145.41 114.37 153.04 114.37 161 C 114.37 168.96 111.21 176.59 105.58 182.21 C 99.96 187.84 92.33 191 84.37 191 C 76.41 191 68.78 187.84 63.16 182.21 C 57.53 176.59 54.37 168.96 54.37 161 Z M 84.37 144 C 74.98 144 67.37 151.61 67.37 161 C 67.37 170.39 74.98 178 84.37 178 C 93.76 178 101.37 170.39 101.37 161 C 101.37 151.61 93.76 144 84.37 144 Z"
			stroke="rgb(0, 0, 0)" stroke-width="2" stroke-miterlimit="10"
			pointer-events="all" />

		<rect x="25.5" y="251" width="20" height="60" fill="none" stroke="none" pointer-events="all" />

		<path d="M 25.5 251 M 45.5 251 L 45.5 311 M 25.5 311 L 25.5 251" fill="none"
			stroke="rgb(0, 0, 0)" stroke-width="2" stroke-linecap="square" stroke-miterlimit="10"
			pointer-events="all" />

		<rect x="125.5" y="251" width="20" height="57.5" fill="none" stroke="none"
			pointer-events="all" />

		<path d="M 125.5 251 M 145.5 251 L 145.5 308.5 M 125.5 308.5 L 125.5 251" fill="none"
			stroke="rgb(0, 0, 0)" stroke-width="2" stroke-linecap="square" stroke-miterlimit="10"
			pointer-events="all" />

		<rect x="75" y="311" width="20" height="20" fill="none" stroke="none" pointer-events="all" />

		<path d="M 75 311 M 95 311 L 95 331 M 75 331 L 75 311" fill="none" stroke="rgb(0, 0, 0)"
			stroke-width="2" stroke-linecap="square" stroke-miterlimit="10" pointer-events="all" />
	</g>
</svg>