<?xml version="1.0" encoding="iso-8859-1"?>
<!-- Generator: Adobe Illustrator 19.0.0, SVG Export Plug-In . SVG Version: 6.00 Build 0)  -->
<svg xmlns="http://www.w3.org/2000/svg" xmlns:xlink="http://www.w3.org/1999/xlink" version="1.1" id="Capa_1" x="0px" y="0px" viewBox="0 0 505 505" style="enable-background:new 0 0 505 505;" xml:space="preserve" width="512" height="512">
<g>
	<rect x="7.5" y="99.663" style="fill:#FFA317;" width="490" height="365.069"/>
	<rect x="76.793" y="40.269" style="fill:#FFA317;" width="138.585" height="59.394"/>
	<rect x="339.116" y="140.285" style="fill:#B1DCEE;" width="98.99" height="39.597"/>
	<polyline style="fill:#5A9DEE;" points="381.143,220.504 497.5,220.504 497.5,464.731 7.5,464.731 7.5,220.504 97.652,220.504  "/>
	<circle style="fill:#B1DCEE;" cx="190.037" cy="282.197" r="111.082"/>
	<path style="fill:#5A9DEE;" d="M190.037,364.6c-45.438,0-82.404-36.966-82.404-82.403s36.967-82.403,82.404-82.403   s82.403,36.966,82.403,82.403S235.474,364.6,190.037,364.6z"/>
	<g>
		<path style="fill:#214245;" d="M222.878,92.163V32.769H69.293v59.394H0v120.841v259.228h505V213.004V92.163H222.878z     M84.293,47.769h123.585v44.394H84.293V47.769z M490,228.004v229.228H15V228.004h69.581    c-8.386,16.252-13.126,34.679-13.126,54.193c0,65.386,53.196,118.582,118.582,118.582s118.582-53.196,118.582-118.582    c0-19.514-4.741-37.94-13.126-54.193h65.648v-15h-74.862c-21.551-29.892-56.66-49.389-96.242-49.389s-74.691,19.498-96.242,49.389    H15V107.163h54.293h153.585H490v105.841H381.143v15H490z M293.619,282.197c0,57.115-46.467,103.582-103.582,103.582    S86.455,339.312,86.455,282.197c0-57.115,46.467-103.582,103.582-103.582S293.619,225.082,293.619,282.197z"/>
		<path style="fill:#214245;" d="M445.606,132.785h-113.99v54.597h113.99V132.785z M430.606,172.382h-83.99v-24.597h83.99V172.382z"/>
		<path style="fill:#214245;" d="M190.037,192.294c-49.573,0-89.904,40.33-89.904,89.903c0,49.573,40.331,89.903,89.904,89.903    c49.573,0,89.903-40.331,89.903-89.903C279.94,232.624,239.609,192.294,190.037,192.294z M190.037,357.1    c-41.302,0-74.904-33.602-74.904-74.903c0-41.302,33.602-74.903,74.904-74.903c41.302,0,74.903,33.602,74.903,74.903    C264.94,323.499,231.338,357.1,190.037,357.1z"/>
		<path style="fill:#214245;" d="M130.132,282.197h15c0-24.76,20.144-44.903,44.904-44.903v-15    C157.005,222.294,130.132,249.166,130.132,282.197z"/>
	</g>
</g>















</svg>
