<?xml version="1.0" encoding="iso-8859-1"?>
<!-- Generator: Adobe Illustrator 19.0.0, SVG Export Plug-In . SVG Version: 6.00 Build 0)  -->
<svg version="1.1" id="Layer_1" xmlns="http://www.w3.org/2000/svg" xmlns:xlink="http://www.w3.org/1999/xlink" x="0px" y="0px"
	 viewBox="0 0 511.999 511.999" style="enable-background:new 0 0 511.999 511.999;" xml:space="preserve">
<path style="fill:#FF8189;" d="M111.283,25.729c-23.624-23.624-61.927-23.622-85.55,0c-23.624,23.624-23.624,61.926,0,85.551
	l42.775,42.776c-23.624-23.625-23.624-61.928,0-85.552c23.624-23.622,61.925-23.622,85.551,0L111.283,25.729z"/>
<rect x="34.155" y="198.591" transform="matrix(-0.7071 -0.7071 0.7071 -0.7071 259.0971 625.4869)" style="fill:#F6C65B;" width="449.873" height="120.984"/>
<rect x="34.156" y="238.919" transform="matrix(-0.7071 -0.7071 0.7071 -0.7071 259.0979 625.4887)" style="fill:#F7B334;" width="449.873" height="40.328"/>
<rect x="5.634" y="267.441" transform="matrix(-0.7071 -0.7071 0.7071 -0.7071 190.2416 654.0088)" style="fill:#FFA400;" width="449.873" height="40.327"/>
<path style="fill:#F4DBB2;" d="M503.914,494.856l0.033-0.033c0-12.623-19.236-76.545-30.49-101.173
	c-2.933-6.632-7.103-12.849-12.537-18.283c-23.624-23.624-61.928-23.624-85.553,0c-23.623,23.623-23.623,61.928,0,85.552
	c5.436,5.435,11.652,9.602,18.283,12.537c24.627,11.253,88.552,30.491,101.172,30.491l0.033-0.033
	c2.392,0.234,4.864-0.529,6.696-2.363C503.384,499.72,504.147,497.247,503.914,494.856z"/>
<path style="fill:#333E48;" d="M503.914,494.856l0.033-0.033c0-4.888-2.893-17.486-7.083-32.507
	c-9.417-2.523-19.884-0.116-27.274,7.272c-7.39,7.391-9.797,17.856-7.271,27.276c15.019,4.191,27.617,7.083,32.504,7.083
	l0.033-0.033c2.392,0.234,4.864-0.529,6.696-2.363C503.384,499.72,504.147,497.247,503.914,494.856z"/>
<path style="fill:#7D868C;" d="M142.811,57.259c-23.624-23.624-61.926-23.624-85.549,0c-23.625,23.623-23.625,61.925-0.001,85.549
	l42.775,42.776c-23.623-23.622-23.624-61.926,0-85.551c23.624-23.623,61.927-23.623,85.551,0L142.811,57.259z"/>
<path style="fill:#5C6670;" d="M154.059,68.504c-23.626-23.622-61.927-23.622-85.551,0c-23.624,23.623-23.624,61.926,0,85.552
	l10.643,10.642c-23.623-23.623-23.623-61.926,0-85.55c23.624-23.622,61.926-23.622,85.55,0L154.059,68.504z"/>
<path d="M480.814,390.395c-3.429-7.749-8.208-14.72-14.206-20.717L191.274,94.346l0.001-0.001c-0.013-0.013-0.026-0.024-0.039-0.036
	l-31.492-31.491l0.001-0.001L116.97,20.042c-26.722-26.723-70.204-26.723-96.927,0s-26.723,70.204,0,96.927l31.529,31.529l0,0
	L369.67,466.598c0.003,0.003,0.006,0.007,0.01,0.011c5.995,5.994,12.964,10.773,20.628,14.165
	c24.128,11.026,89.599,31.218,104.515,31.218c0.085,0,0.169-0.001,0.253-0.004c0.207,0.008,0.414,0.012,0.619,0.012l0,0
	c4.378,0,8.479-1.691,11.54-4.756c3.221-3.217,4.923-7.603,4.753-12.166c0.002-0.085,0.004-0.169,0.004-0.254
	C511.993,479.907,491.8,414.436,480.814,390.395z M31.421,105.592c-20.45-20.45-20.45-53.725,0-74.174
	c20.451-20.451,53.725-20.45,74.174,0l0.343,0.344c-1.952-0.165-3.919-0.265-5.902-0.265c-18.307,0-35.518,7.129-48.463,20.074
	c-12.946,12.945-20.075,30.156-20.075,48.463c0,1.982,0.1,3.949,0.265,5.901L31.421,105.592z M74.195,148.368L74.195,148.368
	L62.948,137.12l0,0c-9.906-9.906-15.362-23.077-15.362-37.086s5.456-27.18,15.363-37.086c9.905-9.906,23.076-15.362,37.086-15.362
	s27.18,5.456,37.087,15.362l11.623,11.622c-19.471-1.676-39.528,4.906-54.398,19.775c-12.945,12.945-20.074,30.157-20.074,48.465
	c0,1.983,0.1,3.95,0.265,5.903L74.195,148.368z M105.723,179.896L105.723,179.896c-9.905-9.907-15.36-23.078-15.36-37.088
	c0-14.01,5.455-27.181,15.361-37.088c20.439-20.437,53.683-20.447,74.137-0.036l244.186,244.185
	c-1.953-0.165-3.919-0.266-5.902-0.266c-18.308,0-35.519,7.129-48.465,20.075c-14.87,14.87-21.452,34.928-19.775,54.401
	L105.723,179.896z M453.512,485.967c-20.625-6.135-43.634-13.939-56.604-19.865c-5.931-2.627-11.265-6.283-15.853-10.87
	c-9.906-9.906-15.361-23.077-15.361-37.088c0-14.011,5.455-27.182,15.361-37.088c9.906-9.906,23.078-15.362,37.088-15.362
	c14.011,0,27.182,5.456,37.088,15.363c4.589,4.588,8.246,9.921,10.908,15.937c5.906,12.923,13.698,35.905,19.827,56.517
	c-8.224,0.817-16.077,4.4-22.067,10.391C457.912,469.891,454.33,477.744,453.512,485.967z M495.861,495.866
	c-0.014,0.014-0.044,0.045-0.164,0.045l-0.058-0.002c-0.254-0.025-0.508-0.038-0.763-0.038c-0.189,0-0.378,0.006-0.565,0.02
	c-3.981-0.178-13.301-2.27-24.88-5.395c-0.264-5.616,1.812-11.18,5.848-15.219c4.038-4.037,9.603-6.111,15.22-5.849
	c3.119,11.556,5.209,20.864,5.394,24.858c-0.032,0.446-0.027,0.898,0.017,1.349C495.911,495.663,495.922,495.805,495.861,495.866z"
	/>
<g>
</g>
<g>
</g>
<g>
</g>
<g>
</g>
<g>
</g>
<g>
</g>
<g>
</g>
<g>
</g>
<g>
</g>
<g>
</g>
<g>
</g>
<g>
</g>
<g>
</g>
<g>
</g>
<g>
</g>
</svg>
