<?xml version="1.0" encoding="iso-8859-1"?>
<!-- Generator: Adobe Illustrator 19.0.0, SVG Export Plug-In . SVG Version: 6.00 Build 0)  -->
<svg version="1.1" id="Layer_1" xmlns="http://www.w3.org/2000/svg" xmlns:xlink="http://www.w3.org/1999/xlink" x="0px" y="0px"
	 viewBox="0 0 512.003 512.003" style="enable-background:new 0 0 512.003 512.003;" xml:space="preserve">
<g>
	<circle style="fill:#F4AD47;" cx="256" cy="256.001" r="86.184"/>
	<path style="fill:#F4AD47;" d="M474.634,288.397l25.86-15.948v-32.895l-25.86-15.948h-28.823
		c-2.016-11.895-5.116-23.423-9.207-34.469l24.937-14.396l14.421-26.742l-16.447-28.486l-30.369-0.882l-24.977,14.419
		c-7.611-9.161-16.055-17.605-25.216-25.216l14.421-24.977l-0.882-30.369L364.005,36.04l-26.742,14.421l-14.398,24.937
		c-11.047-4.092-22.573-7.191-34.469-9.207V37.367l-15.948-25.86h-32.895l-15.948,25.86V66.19
		c-11.895,2.016-23.423,5.116-34.469,9.207l-14.398-24.937L147.995,36.04l-28.486,16.447l-0.882,30.369l14.421,24.977
		c-9.161,7.611-17.605,16.055-25.216,25.216l-24.977-14.421l-30.369,0.882l-16.447,28.486l14.421,26.742l24.937,14.396
		c-4.092,11.047-7.192,22.574-9.207,34.469H37.366l-25.86,15.95v32.895l25.86,15.948h28.823c2.016,11.895,5.116,23.423,9.207,34.469
		l-24.937,14.398l-14.421,26.742l16.447,28.486l30.369,0.882l24.977-14.421c7.611,9.161,16.055,17.605,25.216,25.216l-14.421,24.977
		l0.882,30.369l28.486,16.447l26.742-14.421l14.398-24.937c11.047,4.092,22.573,7.191,34.469,9.207v28.823l15.948,25.86h32.895
		l15.948-25.86v-28.823c11.895-2.016,23.423-5.116,34.469-9.207l14.398,24.937l26.742,14.421l28.486-16.447l0.882-30.369
		l-14.421-24.977c9.161-7.611,17.605-16.055,25.216-25.216l24.977,14.421l30.369-0.882l16.447-28.486l-14.421-26.742l-24.937-14.398
		c4.092-11.047,7.192-22.573,9.207-34.469L474.634,288.397L474.634,288.397z M256,400.864c-80.006,0-144.863-64.857-144.863-144.863
		S175.994,111.139,256,111.139s144.863,64.857,144.863,144.863S336.006,400.864,256,400.864z"/>
</g>
<g>
	<path style="fill:#231F20;" d="M256,99.633c-86.222,0-156.369,70.147-156.369,156.369S169.778,412.37,256,412.37
		s156.369-70.147,156.369-156.369S342.222,99.633,256,99.633z M256,389.359c-73.534,0-133.357-59.823-133.357-133.357
		S182.466,122.644,256,122.644s133.357,59.823,133.357,133.357S329.534,389.359,256,389.359z"/>
	<path style="fill:#231F20;" d="M506.533,229.761l-25.859-15.948c-1.815-1.12-3.906-1.713-6.039-1.713h-19.341
		c-1.312-5.983-2.895-11.907-4.736-17.734l16.736-9.663c1.847-1.067,3.361-2.626,4.374-4.503l14.421-26.742
		c1.894-3.514,1.832-7.758-0.163-11.214l-16.449-28.488c-1.996-3.457-5.641-5.632-9.629-5.748l-30.369-0.882
		c-2.143-0.06-4.24,0.47-6.086,1.536l-16.778,9.688c-4.125-4.51-8.457-8.841-12.965-12.964l9.688-16.78
		c1.066-1.848,1.598-3.955,1.536-6.086l-0.883-30.368c-0.116-3.99-2.292-7.634-5.749-9.63l-28.486-16.447
		c-3.455-1.996-7.702-2.058-11.214-0.163l-26.743,14.421c-1.878,1.012-3.437,2.527-4.504,4.375l-9.662,16.736
		c-5.826-1.842-11.752-3.424-17.733-4.736V37.367c0-2.133-0.593-4.224-1.711-6.04L282.24,5.467
		c-2.095-3.397-5.802-5.465-9.794-5.465h-32.893c-3.991,0-7.699,2.068-9.793,5.467l-15.948,25.86
		c-1.12,1.815-1.713,3.906-1.713,6.039v19.341c-5.983,1.312-11.907,2.894-17.734,4.736l-9.663-16.736
		c-1.067-1.848-2.626-3.361-4.503-4.375l-26.742-14.421c-3.512-1.894-7.758-1.834-11.214,0.163l-28.486,16.447
		c-3.457,1.996-5.632,5.641-5.748,9.63l-0.882,30.371c-0.062,2.131,0.47,4.24,1.536,6.086l9.688,16.78
		c-4.509,4.123-8.841,8.455-12.964,12.964l-16.778-9.688c-1.847-1.066-3.955-1.606-6.086-1.536l-30.369,0.882
		c-3.99,0.116-7.635,2.291-9.63,5.748l-16.447,28.486c-1.996,3.457-2.058,7.7-0.163,11.214l14.421,26.742
		c1.012,1.877,2.527,3.436,4.375,4.503l16.736,9.663c-1.842,5.826-3.424,11.75-4.736,17.734H37.366
		c-2.133,0-4.224,0.593-6.039,1.713l-25.86,15.947C2.068,231.857,0,235.563,0,239.554v32.895c0,3.991,2.068,7.699,5.467,9.793
		l25.86,15.948c1.815,1.12,3.906,1.713,6.039,1.713h19.341c1.313,5.983,2.895,11.908,4.736,17.734L44.707,327.3
		c-1.848,1.067-3.361,2.626-4.375,4.503l-14.421,26.742c-1.894,3.514-1.832,7.758,0.163,11.214l16.447,28.488
		c1.996,3.456,5.641,5.632,9.63,5.749l30.371,0.882c2.143,0.063,4.24-0.47,6.086-1.536l16.78-9.688
		c4.125,4.509,8.455,8.839,12.964,12.964l-9.688,16.78c-1.067,1.847-1.598,3.955-1.536,6.086l0.882,30.369
		c0.116,3.99,2.291,7.635,5.748,9.63l28.488,16.447c3.456,1.996,7.702,2.057,11.214,0.163l26.742-14.421
		c1.877-1.012,3.436-2.527,4.503-4.375l9.663-16.736c5.826,1.842,11.75,3.424,17.734,4.736v19.341c0,2.133,0.593,4.224,1.713,6.04
		l15.948,25.859c2.095,3.397,5.802,5.465,9.793,5.465h32.893c3.991,0,7.699-2.068,9.793-5.465l15.95-25.859
		c1.12-1.816,1.713-3.906,1.713-6.04v-19.341c5.983-1.313,11.905-2.895,17.733-4.736l9.662,16.736
		c1.067,1.847,2.626,3.361,4.504,4.375l26.743,14.421c3.509,1.894,7.758,1.832,11.214-0.163l28.486-16.447
		c3.456-1.996,5.632-5.641,5.749-9.63l0.882-30.369c0.062-2.131-0.47-4.24-1.536-6.086l-9.688-16.78
		c4.509-4.123,8.839-8.454,12.965-12.964l16.778,9.688c1.845,1.066,3.931,1.592,6.086,1.536l30.369-0.882
		c3.988-0.116,7.634-2.291,9.629-5.749l16.449-28.488c1.996-3.456,2.058-7.7,0.163-11.214l-14.421-26.742
		c-1.013-1.877-2.527-3.436-4.374-4.503l-16.736-9.663c1.841-5.826,3.424-11.752,4.736-17.734h19.341
		c2.133,0,4.225-0.593,6.039-1.713l25.859-15.948c3.397-2.095,5.467-5.802,5.467-9.793v-32.895
		C512,235.563,509.932,231.857,506.533,229.761z M488.989,266.027l-17.617,10.864h-25.56c-5.612,0-10.405,4.05-11.345,9.584
		c-1.871,11.045-4.782,21.944-8.654,32.396c-1.947,5.258,0.18,11.156,5.037,13.961l22.111,12.766l9.824,18.218l-10.026,17.363
		l-20.69,0.601l-22.15-12.79c-4.848-2.8-11.02-1.7-14.602,2.61c-7.146,8.6-15.127,16.581-23.719,23.719
		c-4.31,3.583-5.415,9.748-2.612,14.603l12.79,22.151l-0.601,20.69l-17.362,10.026l-18.219-9.824l-12.764-22.111
		c-2.803-4.855-8.697-6.982-13.961-5.037c-10.451,3.87-21.35,6.781-32.396,8.654c-5.534,0.938-9.583,5.731-9.583,11.345v25.56
		l-10.867,17.615h-20.05l-10.866-17.617v-25.56c0-5.612-4.049-10.405-9.583-11.345c-11.048-1.873-21.947-4.783-32.395-8.654
		c-5.261-1.949-11.155,0.18-13.961,5.037l-12.765,22.111l-18.218,9.826l-17.363-10.026l-0.6-20.689l12.79-22.153
		c2.803-4.854,1.7-11.021-2.612-14.603c-8.596-7.141-16.577-15.121-23.719-23.717c-3.581-4.31-9.748-5.416-14.602-2.612
		l-22.151,12.79l-20.689-0.601l-10.026-17.363l9.824-18.218l22.111-12.766c4.857-2.804,6.984-8.701,5.037-13.961
		c-3.869-10.449-6.781-21.347-8.654-32.395c-0.938-5.534-5.731-9.583-11.345-9.583H40.629l-17.618-10.866v-20.05l17.618-10.866
		h25.56c5.612,0,10.405-4.049,11.345-9.583c1.873-11.048,4.783-21.947,8.654-32.395c1.947-5.26-0.18-11.156-5.037-13.961
		L59.04,166.407l-9.824-18.218l10.026-17.363l20.689-0.6l22.151,12.79c4.855,2.803,11.022,1.7,14.604-2.612
		c7.141-8.598,15.121-16.577,23.719-23.719c4.312-3.583,5.415-9.75,2.612-14.604l-12.79-22.151l0.6-20.69l17.363-10.026
		l18.218,9.826l12.765,22.111c2.804,4.857,8.701,6.984,13.961,5.037c10.45-3.87,21.349-6.781,32.396-8.652
		c5.534-0.938,9.584-5.731,9.584-11.345V40.631l10.864-17.618h20.05l10.866,17.618v25.56c0,5.613,4.05,10.407,9.584,11.345
		c11.044,1.871,21.944,4.782,32.394,8.652c5.259,1.947,11.156-0.18,13.961-5.037l12.764-22.111l18.219-9.824l17.362,10.026
		l0.601,20.69l-12.79,22.151c-2.802,4.854-1.699,11.021,2.612,14.604c8.593,7.138,16.572,15.118,23.719,23.719
		c3.581,4.31,9.751,5.415,14.602,2.61l22.15-12.79l20.69,0.6l10.026,17.363l-9.824,18.218l-22.111,12.765
		c-4.857,2.804-6.984,8.701-5.037,13.961c3.87,10.453,6.783,21.352,8.654,32.395c0.938,5.534,5.731,9.584,11.345,9.584h25.56
		l17.618,10.866V266.027z"/>
	<path style="fill:#231F20;" d="M256,158.312c-53.866,0-97.69,43.823-97.69,97.69s43.823,97.69,97.69,97.69
		s97.69-43.823,97.69-97.69S309.866,158.312,256,158.312z M256,330.68c-41.177,0-74.679-33.5-74.679-74.679
		s33.5-74.679,74.679-74.679s74.679,33.5,74.679,74.679S297.179,330.68,256,330.68z"/>
</g>
<g>
</g>
<g>
</g>
<g>
</g>
<g>
</g>
<g>
</g>
<g>
</g>
<g>
</g>
<g>
</g>
<g>
</g>
<g>
</g>
<g>
</g>
<g>
</g>
<g>
</g>
<g>
</g>
<g>
</g>
</svg>
