<?xml version="1.0" encoding="UTF-8" standalone="no"?>
<!DOCTYPE svg PUBLIC "-//W3C//DTD SVG 1.1//EN" "http://www.w3.org/Graphics/SVG/1.1/DTD/svg11.dtd">
<!-- Created with Vectornator (http://vectornator.io/) -->
<svg height="100%" stroke-miterlimit="10" style="fill-rule:nonzero;clip-rule:evenodd;stroke-linecap:round;stroke-linejoin:round;" version="1.1" viewBox="0 0 48 48" width="100%" xml:space="preserve" xmlns="http://www.w3.org/2000/svg" xmlns:xlink="http://www.w3.org/1999/xlink">
<defs/>
<g id="Untitled">
<path d="M0 0L48 0L48 0L48 48L48 48L0 48L0 48L0 0L0 0Z" fill="#ffffff" fill-opacity="0.01" fill-rule="nonzero" opacity="1" stroke="none"/>
<path d="M44 38L44 10C44 8.89543 43.1046 8 42 8L6 8C4.89543 8 4 8.89543 4 10L4 38C4 39.1046 4.89543 40 6 40L42 40C43.1046 40 44 39.1046 44 38Z" fill="#3887de" fill-rule="nonzero" opacity="1" stroke="#000000" stroke-linecap="round" stroke-linejoin="round" stroke-width="4"/>
<path d="M25 8C25 8 20 18 21 25L27 25L28 40" fill="none" opacity="1" stroke="#ffffff" stroke-linecap="round" stroke-linejoin="round" stroke-width="4"/>
<path d="M34 40L22 40" fill="none" opacity="1" stroke="#000000" stroke-linecap="round" stroke-linejoin="round" stroke-width="4"/>
<path d="M30 8L18 8" fill="none" opacity="1" stroke="#000000" stroke-linecap="round" stroke-linejoin="round" stroke-width="4"/>
<path d="M34 16L34 18" fill="none" opacity="1" stroke="#ffffff" stroke-linecap="round" stroke-linejoin="round" stroke-width="4"/>
<path d="M14 16L14 18" fill="none" opacity="1" stroke="#ffffff" stroke-linecap="round" stroke-linejoin="round" stroke-width="4"/>
<path d="M13 29C13 29 17.1905 32 24 32C30.8095 32 35 29 35 29" fill="none" opacity="1" stroke="#ffffff" stroke-linecap="round" stroke-linejoin="round" stroke-width="4"/>
</g>
</svg>
