<?xml version="1.0" encoding="iso-8859-1"?>
<!-- Generator: Adobe Illustrator 19.0.0, SVG Export Plug-In . SVG Version: 6.00 Build 0)  -->
<svg version="1.1" id="Layer_1" xmlns="http://www.w3.org/2000/svg" xmlns:xlink="http://www.w3.org/1999/xlink" x="0px" y="0px"
	 viewBox="0 0 490 490" style="enable-background:new 0 0 490 490;" xml:space="preserve">
<g>
	<g id="XMLID_46_">
		<g>
			<path style="fill:#31C0D8;" d="M480,374.933v80c0,5.53-4.47,10-10,10H40c-5.53,0-10-4.47-10-10v-80c0-5.53,4.47-10,10-10h410h20
				C475.53,364.933,480,369.403,480,374.933z"/>
			<path style="fill:#FFD248;" d="M460,274.933v80c0,5.53-4.47,10-10,10H40H20c-5.53,0-10-4.47-10-10v-80c0-5.53,4.47-10,10-10h190
				h70h170C455.53,264.933,460,269.403,460,274.933z"/>
			<path style="fill:#F4661E;" d="M345,149.933v50c0,35.9-29.1,65-65,65c-12.9,0-24.89-3.81-35-10.28
				c-10.11,6.471-22.1,10.28-35,10.28c-35.9,0-65-29.1-65-65v-50c0-35.9,29.1-65,65-65c12.9,0,24.89,3.81,35,10.28
				c10.11-6.471,22.1-10.28,35-10.28C315.9,84.933,345,114.033,345,149.933z"/>
		</g>
		<g>
			<path d="M470,354.933v-80c0-11.028-8.972-20-20-20H330.92c14.796-13.709,24.08-33.286,24.08-55v-50c0-41.355-33.645-75-75-75
				c-8.645,0-17.163,1.504-25.227,4.401c0.7-18.866,4.879-42.538,16.871-44.537l-3.287-19.729
				c-27.672,4.612-33.015,41.499-33.655,64.073c-7.908-2.774-16.245-4.209-24.701-4.209c-41.355,0-75,33.645-75,75v50
				c0,21.714,9.284,41.291,24.08,55H20c-11.028,0-20,8.972-20,20v80c0,11.028,8.972,20,20,20v80c0,11.028,8.972,20,20,20h430
				c11.028,0,20-8.972,20-20v-80C490,363.905,481.028,354.933,470,354.933z M155,199.933v-50c0-30.327,24.673-55,55-55
				c10.475,0,20.714,3.01,29.609,8.703c3.285,2.104,7.496,2.104,10.781,0c8.896-5.693,19.135-8.703,29.609-8.703
				c30.327,0,55,24.673,55,55v50c0,30.327-24.673,55-55,55c-10.475,0-20.714-3.01-29.609-8.703
				c-1.643-1.052-3.517-1.577-5.391-1.577s-3.748,0.525-5.391,1.577c-8.896,5.693-19.135,8.703-29.609,8.703
				C179.673,254.933,155,230.26,155,199.933z M20,274.933h430l0.018,79.999c0,0-0.006,0.001-0.018,0.001H20V274.933z M470,454.933
				H40l-0.018-79.999c0,0,0.005-0.001,0.018-0.001h410h20V454.933z"/>
			<rect x="345" y="289.933" width="80" height="20"/>
			<rect x="245" y="319.933" width="180" height="20"/>
			<rect x="45" y="299.933" width="20" height="30"/>
			<rect x="60" y="389.933" width="120" height="20"/>
			<rect x="60" y="419.933" width="220" height="20"/>
			<rect x="200" y="389.933" width="30" height="20"/>
			<rect x="250" y="389.933" width="30" height="20"/>
			<rect x="430" y="389.933" width="20" height="50"/>
			<path d="M175,154.933h20c0-13.785,11.215-25,25-25v-20C195.186,109.933,175,130.12,175,154.933z"/>
		</g>
	</g>
</g>
<g>
</g>
<g>
</g>
<g>
</g>
<g>
</g>
<g>
</g>
<g>
</g>
<g>
</g>
<g>
</g>
<g>
</g>
<g>
</g>
<g>
</g>
<g>
</g>
<g>
</g>
<g>
</g>
<g>
</g>
</svg>
