<?xml version="1.0" encoding="utf-8"?>
<svg version="1.1" id="Layer_1" xmlns="http://www.w3.org/2000/svg"
	xmlns:xlink="http://www.w3.org/1999/xlink" x="0px" y="0px"
	viewBox="0 0 1366 768" style="enable-background:new 0 0 1366 768;" xml:space="preserve">
<style type="text/css">
	.st0{fill:#C6E7E5;}
	.st1{fill:#FFFFFF;}
	.st2{fill:#D3D3D3;}
	.st3{fill:none;}
	.st4{
		fill:#171717;
		}
	.st5{fill:#C2E6E3;}
</style>
	<g>
		<!-- austronaut pumpes-->
		<g>
			<path class="st1" d="M395.8,289.9c-3.9-5.1-10.5-9.7-15-13.6c-6.2-5.5-13-10.7-20.6-14.3c-12.5-5.9-25.8-6.1-38-1.8
				c-0.8-1.8-1.6-3.6-2.4-5.2c13-5.3,29.9-3.9,43.3,1.1c3.1,1.2,6.1,2.7,9,4.2c3.6,3.4,8.3,6.4,11.6,9.6c5.3,5.1,9.8,10.6,14.7,16
				C397.4,287.1,396.7,288.5,395.8,289.9z"/>
			<path class="st1" d="M531,381.1c-7.3-0.6-14.9,1-22,2.1c-9.2,1.5-18.3,3.2-27.7,4.4c-17.3,2.1-36,2.3-52.4-5.6
				c-16.8-8-25.7-24-31.3-39.8c-5.6-15.8-6.2-32.3,0.9-47.1c1.5-2.9,3-5.7,4.9-8.3c0.6-0.5,0.9-1,1.2-1.7c6.9-9.4,16.2-17.2,26.5-23
				c15.2-8.4,32.5-10.3,48.1,0.6c12.9,9,20.3,24.3,18,38.7c-2.7,18-19.8,30.6-39.7,28.4c-20.1-2.2-36.3-15.8-48-30.6
				c-0.2-0.3-0.5-0.5-0.8-0.7c0.6-1.4,1.2-2.6,1.9-3.9c2.7,3.4,5.6,7.4,9,10.7c0.1,0.7,0.4,1.3,1.1,1.9c11.2,10,25.4,20,41.5,17.4
				c13.2-2,24.5-13.9,27.1-25.8c2.5-12-3.4-25.5-14.7-32.8c-12.4-8.2-28.3-5.9-40.6-0.6c-25.7,11.1-39.2,37.2-35,63.5
				c2.1,12.8,7.7,25.3,16.6,35.6c11.1,13.1,27.1,18.7,44.2,20.2c17.7,1.6,34.8-1.6,51.6-5.7c9.9-2.3,20.3-4.5,30.1,0.2
				c9.4,4.5,13.9,12.8,19.8,20.4c0.8,1.6,1.7,3.6,2.8,5.1c-1.3,0.1-2.5,0.4-3.7,0.6C553.9,394.1,545.6,382.2,531,381.1z"/>
			<path class="st1" d="M595.1,419.2c-1.9-0.8-4-2-6-1.9c-5.4-1.6-11.4-1.9-15.5-1.9c-11.4,0-26.7,3.4-32.9,12.9
				c-4.7,7.1-1.5,18.4,9.1,19c14.6,0.7,16.3-15.3,15.3-25.2c-0.1-0.3-0.1-0.5-0.2-0.8c1.3-0.2,2.5-0.5,3.8-0.6
				c-0.3,0.4-0.4,0.9-0.2,1.5c3.9,11.9,1.9,29.5-14.2,31.3c-16.8,2-23.4-17.3-17-28.4c5.9-10.2,18.9-15.6,31.2-16.1
				c12.1-0.4,22.9,3.8,32.6,10.4c-0.2,1.1-0.4,2.1-0.6,3.1C598.9,421.3,597,420.1,595.1,419.2z"/>
			<path class="st2" d="M571.1,427c0-0.5-0.2-0.8-0.4-1.3c-0.1-0.3,0-0.5,0-0.9c0-0.4-0.1-0.7-0.2-1.1c-0.1-0.9-0.3-1.6-0.8-2.4
				c-0.5-1.1-2.1-1.5-3.1-1.4c-1.3,0.2-2.3,1.1-2.7,2.2c-0.3,0.8-0.3,1.7-0.1,2.6c0.1,0.3,0,0.5,0,0.8c-0.3,0.4-0.4,0.9-0.4,1.4
				c0.1,0.7,0.4,1.1,0.8,1.6c0.6,0.7,2.1,1,3,1.2c1.4,0.1,2.5-0.4,3.5-1.2C570.8,428.4,571.2,427.6,571.1,427z"/>
			<path class="st2" d="M564.9,402.3c-0.5-0.7-1.3-1.3-2-1.8c0.1-1.1-0.6-2-1.8-2.4c-0.9-0.2-2,0-2.9,0.2c-0.8,0.1-1.4,1-1.5,1.7
				c-0.1,0.6,0.2,1.6,1.1,1.9c0.3,0.1,0.5,0.2,0.8,0.2c0.2,1.7,1.3,3.4,3,4.4c1.3,0.8,2.9,0.1,3.7-0.9
				C566.1,404.7,565.8,403.3,564.9,402.3z"/>
			<path class="st2" d="M482.8,323.6c-6.1,1.5-12.5,3.9-18.9,4.2c-7.1,0.3-14.7-2.8-21-6.1c-9.8-5.1-17.4-12.7-25.1-20.2
				c0-0.5-0.1-0.9-0.4-1.5c-0.4-0.9-0.9-1.6-1.5-2.3c-0.4-0.5-0.9-1.1-1.5-1.5c-0.2-0.2-0.6-0.4-0.8-0.6s-1.4-1.1-0.6-0.4
				c-1.4-1.1-3.6-0.7-4.3,0.7c-1,1.9,0,3.7,1.1,5.3c0.6,0.8,1.2,1.5,2,2.3c0.8,0.6,1.5,1,2.5,1.3c1.5,2.1,3.2,4.2,4.9,6
				c2.5,2.8,5.7,5.6,9.2,7.6c4.6,4.1,9.9,7.6,15.9,10.1c12.9,5.4,28.1,3.2,39-4.1C483.6,324.1,483.4,323.5,482.8,323.6z"/>
			<path class="st2" d="M398.4,286c-0.6-2.1-1.6-3.9-3.2-5.6c-0.8-0.7-2.1-0.6-2.9,0c-3-2.9-7.1-5.3-10.1-7.4
				c-6.6-4.5-13-7.4-20.5-10.4c-0.1,0-0.2,0.1,0,0.1c6.5,3.8,13.2,8.7,19,13.4c3.6,2.8,7,7.2,11.1,10c0.1,0.5,0.2,1.1,0.5,1.7
				C393.6,291.5,399.4,289.5,398.4,286z"/>
			<path class="st2" d="M603.5,417.9c-0.1-2.1-1.9-2.9-3.7-2.6c-0.7-0.5-1.6-0.8-2.4-0.9c-7.4-6.8-21.8-11.8-30.8-8.2
				c-1,0.3-1.6,1.8-0.3,2.3c9.4,4.1,20.5,4.1,28.1,11.7c0.7,0.6,1.3,0.9,2,0.9c0.4,0.4,0.9,0.7,1.4,0.8c0.9,2,4.3,2,5.1-0.5
				C603.5,420.1,603.7,419.6,603.5,417.9z"/>
			<path class="st3" d="M568.7,408.9c-12.3,0.5-25.3,5.9-31.2,16.1c-6.4,11.1,0.2,30.5,17,28.4c16.1-1.9,18-19.4,14.2-31.3
				c-0.2-0.6-0.1-1.1,0.2-1.5c-1.3,0.1-2.5,0.4-3.8,0.6c0.1,0.3,0.1,0.5,0.2,0.8c1,9.9-0.8,25.9-15.3,25.2
				c-10.7-0.5-13.9-11.9-9.1-19c6.2-9.4,21.5-12.8,32.9-12.9c4.1,0,10,0.3,15.5,1.9c2-0.1,4.2,1,6,1.9c2,0.9,3.8,2.1,5.7,3.3
				c0.2-1.1,0.4-2.1,0.6-3.1C591.6,412.8,580.8,408.5,568.7,408.9z"/>
			<path class="st3" d="M507.9,431.9c10.5,9.9,22.7-1.5,25.6-10.5c2.5-7.9,1.6-16.3,1.1-24.3c-0.9,0.2-1.5,0.5-2.4,0.7
				C519.5,402,491.3,416.4,507.9,431.9z"/>
			<path class="st3" d="M568.7,408.9c-12.3,0.5-25.3,5.9-31.2,16.1c-6.4,11.1,0.2,30.5,17,28.4c16.1-1.9,18-19.4,14.2-31.3
				c-0.2-0.6-0.1-1.1,0.2-1.5c-1.3,0.1-2.5,0.4-3.8,0.6c0.1,0.3,0.1,0.5,0.2,0.8c1,9.9-0.8,25.9-15.3,25.2
				c-10.7-0.5-13.9-11.9-9.1-19c6.2-9.4,21.5-12.8,32.9-12.9c4.1,0,10,0.3,15.5,1.9c2-0.1,4.2,1,6,1.9c2,0.9,3.8,2.1,5.7,3.3
				c0.2-1.1,0.4-2.1,0.6-3.1C591.6,412.8,580.8,408.5,568.7,408.9z"/>
			<path class="st3" d="M507.9,431.9c10.5,9.9,22.7-1.5,25.6-10.5c2.5-7.9,1.6-16.3,1.1-24.3c-0.9,0.2-1.5,0.5-2.4,0.7
				C519.5,402,491.3,416.4,507.9,431.9z"/>
			<path class="st3" d="M568.7,408.9c-12.3,0.5-25.3,5.9-31.2,16.1c-6.4,11.1,0.2,30.5,17,28.4c16.1-1.9,18-19.4,14.2-31.3
				c-0.2-0.6-0.1-1.1,0.2-1.5c-1.3,0.1-2.5,0.4-3.8,0.6c0.1,0.3,0.1,0.5,0.2,0.8c1,9.9-0.8,25.9-15.3,25.2
				c-10.7-0.5-13.9-11.9-9.1-19c6.2-9.4,21.5-12.8,32.9-12.9c4.1,0,10,0.3,15.5,1.9c2-0.1,4.2,1,6,1.9c2,0.9,3.8,2.1,5.7,3.3
				c0.2-1.1,0.4-2.1,0.6-3.1C591.6,412.8,580.8,408.5,568.7,408.9z"/>
			<path class="st3" d="M507.9,431.9c10.5,9.9,22.7-1.5,25.6-10.5c2.5-7.9,1.6-16.3,1.1-24.3c-0.9,0.2-1.5,0.5-2.4,0.7
				C519.5,402,491.3,416.4,507.9,431.9z"/>
			<path class="st4" d="M588.9,407.4c-6.2-2.3-13-3.3-19.8-3c-0.2-3-2.7-6.1-4.5-8.6c-0.6-0.8-1.2-1.6-1.9-2.5
				c-3.6-7.8-10.4-14.9-18.2-18.8c-10.8-5.4-22.7-3.5-33.6-1c-25.6,5.8-61.9,12.5-84.5-7.1c-17.6-15.3-25.1-40.7-19.5-61.4
				c10.6,12.6,23.8,23.7,40.6,28c15.5,4,32.9,1.5,44-9c23.9-22,9.4-62.5-23.1-72.5c-17.7-5.4-33,2.1-46.5,11.1
				c-7.3,4.9-13.8,10.8-19.2,17.4c-5.2-5.6-10.7-10.8-16.7-15.6c-2.4-1.9-5-4.1-7.9-5.8c-5.1-3.5-10.7-6.3-16.7-8.3
				c-15.1-5.1-29.5-4.3-44.2-0.9l2.7,5.3c13-5.1,29.8-3.8,43,1.2c3.1,1.2,6.1,2.7,9,4.2c3.6,3.4,8.3,6.4,11.6,9.6
				c5.3,5.1,9.8,10.6,14.7,16c-0.9,1.2-1.7,2.7-2.5,4.1c-3.9-5.1-10.5-9.7-15-13.6c-6.2-5.5-13-10.7-20.6-14.3
				c-12.3-5.9-25.5-6.1-37.5-1.9l2.4,4.8c13.2-5.2,28-2.4,40.4,5.5c6.1,3.8,11.4,8.7,16.6,13.4c3.8,3.5,7.5,7.8,12.3,10.2
				c-0.9,1.9-1.7,3.8-2.4,5.9c-5.8,16.4-3,34.3,4.2,50.6c6.9,16.1,17.2,30.4,35,37.4c20.2,8,41.6,6,62.1,2.7c12.1-2,25-5.7,37.4-4.9
				c12.7,0.8,20,11.3,25.8,20.7c-14.2,3.9-25.6,13.6-26.9,27.9s12.4,28.9,28.5,24.9c18-4.6,20.5-23.4,15-38
				c-0.1-0.3-0.3-0.5-0.4-0.6c7.1-0.3,14.4,0.9,21.1,3.6c2.1,1.4,4.3,3,6.3,4.5l0,0l2.7-15.3C599.3,411.2,592.7,407.9,588.9,407.4z
				 M531,381.1c-7.3-0.6-14.9,1-22,2.1c-9.2,1.5-18.3,3.2-27.7,4.4c-17.3,2.1-36,2.3-52.4-5.6c-16.8-8-25.7-24-31.3-39.8
				c-5.6-15.8-6.2-32.3,0.9-47.1c1.5-2.9,3-5.7,4.9-8.3c0.6-0.5,0.9-1,1.2-1.7c6.9-9.4,16.2-17.2,26.5-23
				c15.2-8.4,32.5-10.3,48.1,0.6c12.9,9,20.3,24.3,18,38.7c-2.7,18-19.8,30.6-39.7,28.4c-20.1-2.2-36.3-15.8-48-30.6
				c-0.2-0.3-0.5-0.5-0.8-0.7c0.6-1.4,1.2-2.6,1.9-3.9c2.7,3.4,5.6,7.4,9,10.7c0.1,0.7,0.4,1.3,1.1,1.9c11.2,10,25.4,20,41.5,17.4
				c13.2-2,24.5-13.9,27.1-25.8c2.5-12-3.4-25.5-14.7-32.8c-12.4-8.2-28.3-5.9-40.6-0.6c-25.7,11.1-39.2,37.2-35,63.5
				c2.1,12.8,7.7,25.3,16.6,35.6c11.1,13.1,27.1,18.7,44.2,20.2c17.7,1.6,34.8-1.6,51.6-5.7c9.9-2.3,20.3-4.5,30.1,0.2
				c9.4,4.5,13.9,12.8,19.8,20.4c0.8,1.6,1.7,3.6,2.8,5.1c-1.3,0.1-2.5,0.4-3.7,0.6C553.9,394.1,545.6,382.2,531,381.1z M413,290.7
				c4.8-7.3,11.5-13.5,19.7-17.9c11.7-6.3,28.5-9.9,40.2,0.2c14.2,12.2,11.5,30.7-2,40.8c-13.6,10.1-29.5,1.3-41.3-8.4
				c-4.5-5-10.9-8.8-15.4-13.9C413.9,291.1,413.5,290.8,413,290.7z M595.1,419.2c-1.9-0.8-4-2-6-1.9c-5.4-1.6-11.4-1.9-15.5-1.9
				c-11.4,0-26.7,3.4-32.9,12.9c-4.7,7.1-1.5,18.4,9.1,19c14.6,0.7,16.3-15.3,15.3-25.2c-0.1-0.3-0.1-0.5-0.2-0.8
				c1.3-0.2,2.5-0.5,3.8-0.6c-0.3,0.4-0.4,0.9-0.2,1.5c3.9,11.9,1.9,29.5-14.2,31.3c-16.8,2-23.4-17.3-17-28.4
				c5.9-10.2,18.9-15.6,31.2-16.1c12.1-0.4,22.9,3.8,32.6,10.4c-0.2,1.1-0.4,2.1-0.6,3.1C598.9,421.3,597,420.1,595.1,419.2z
				 M559.5,434.9c-1.5,4.7-7.8,10.6-13.2,5.4c-8.6-8.1,6-15.5,12.6-17.7c0.5-0.1,0.8-0.3,1.2-0.4
				C560.3,426.5,560.7,430.8,559.5,434.9z"/>
		</g>
		<!-- astronaut-->
		<g>
			<!--maske  -->		
			<path class="st1" d="M690.6,181.4c27.9-34.3,82-52.5,123.5-35.4c38.7,15.9,59.6,55.8,55,96.5c-5.4,49.3-43,78.5-91,81
				c-45.1,2.4-96.3-12.2-112.1-57.7C662.8,236.2,673.6,202.5,690.6,181.4z"/>
			
			<path class="st1" d="M828.3,178.2c-20.4-12.6-46.3-11.6-69.1-16.5c-16.4-3.6-34.1-5.2-46.7,6.9c-21.4,14.3-33.8,43.7-32.3,68.3
				c2.7,39.9,53.9,50.9,85.7,54.9c34.5,4.3,70.9,4.5,88.3-31.1C868.8,230.8,856.1,195.3,828.3,178.2z"/>
			
			<path class="st5" d="M816.7,282.7c-17.2,5.3-36.8,1.4-54.3-0.8c-21.6-2.6-44.9-7.5-61.6-22.9c-15.8-14.6-14.6-36.3-6.9-54.8
				c4.6-10.6,11.2-18.9,19.1-26.4c1,0.1,2.3-0.1,3.2-1c16.8-13.8,38.5-5.6,57.7-2.6c21.2,3,42.5,4,58.9,19.5
				C860.4,220,856.1,270.9,816.7,282.7z"/>

			<!-- maske lines-->
			<path class="st1" d="M839,240.2c1.9-10.4-1.7-23.4-8.3-31.7c-2.7-3.4-14.3-13.9-18.7-10.4l0,0c5.7,4.1,7.9,15.2,10,21.4
				c2.6,7.4,2.7,14.6,3.5,22.3C826.1,250.5,837.8,246.9,839,240.2z"/>
			
			<path class="st1" d="M834.9,257.9L834.9,257.9c-0.1-2.3-1.2-4-3.1-4.8c-3.3-1.3-7.6,1-8.4,4.5c-0.8,3.2,0.7,6.4,4.2,7.3
				C831.3,265.9,835.6,262.3,834.9,257.9z"/>
			<!--costume -->
			<path class="st4" d="M828.3,178.2c-20.4-12.6-46.3-11.6-69.1-16.5c-16.4-3.6-34.1-5.2-46.7,6.9c-21.4,14.3-33.8,43.7-32.3,68.3
				c2.7,39.9,53.9,50.9,85.7,54.9c34.5,4.3,70.9,4.5,88.3-31.1C868.8,230.8,856.1,195.3,828.3,178.2z M816.7,282.7
				c-17.2,5.3-36.8,1.4-54.3-0.8c-21.6-2.6-44.9-7.5-61.6-22.9c-15.8-14.6-14.6-36.3-6.9-54.8c4.6-10.6,11.2-18.9,19.1-26.4
				c1,0.1,2.3-0.1,3.2-1c16.8-13.8,38.5-5.6,57.7-2.6c21.2,3,42.5,4,58.9,19.5C860.4,220,856.1,270.9,816.7,282.7z"/>
			<path class="st4" d="M711,362.1c0.6-1.5,0-3.8-1.6-4.7c-19.8-10.3-39.4-21.1-59.6-31c-2.1-1.1-4.8-0.7-6,1.6
				c-3.2,5.3-5.8,10.6-8.5,15.9c-4.7,7.3-8.5,15.2-11.6,23.6c-3.9,10.2-9.9,23.8-8.8,35c1.1,9.9,9.3,12.9,17.3,16.5
				c15.8,6.4,31.5,13,47.8,18.1c2.3,0.7,5.4-0.9,5.9-3.2C692.7,409.3,701.8,385.4,711,362.1z M653.1,415.7
				c-9.5-3.6-29.3-7-28.8-19.6c0.4-9.8,5.8-21.4,9.4-30.7l0,0c0.1-0.2,0.1-0.2,0.1-0.2c5.4-9.5,10.2-19.6,15.4-29.2
				c17.4,9.3,35.2,18.3,52.7,27.2c-8.3,20.6-15.4,41.7-22.8,62.7C670.6,422.2,662,419,653.1,415.7z"/>
			<path class="st4" d="M748.5,183.4c0.1-0.2,0-0.7,0.1-1c0.1-2.8-1.6-4.7-4.6-4.9c-9.3-1-21.3,5.4-28.6,10.9
				c-5.6,4.4-15.2,14.2-10.9,21.9c0.1,0.3,0.3,0.4,0.4,0.2c6.9-3.8,10.6-11.8,17.6-15.8c7.4-4.4,14.8-5.7,23-7.5
				C747,186.4,748.4,184.9,748.5,183.4z"/>
			<path class="st4" d="M825.9,355.6c-3.9-1.6-8.5-1.1-12.1,1.5c-1.7,1.1-3.4,3.2-4.4,5.1c-0.3,0.1-0.5,0.6-0.8,0.7
				c-3,3.6-3,9.3-1.4,13.5c3.5,9.6,16.5,12.1,22.4,3.2C835,372.2,835.9,359.9,825.9,355.6z M824.7,373.7c-1.3,2.5-2.7,4.8-5.9,4
				c-2.1-0.6-3.5-2.2-4.2-4.2c-0.7-2.1-0.7-3.9-0.1-5.4c0.7-1,1.5-2.5,2.2-3.5c0.9-0.9,2.1-2,3.4-2.7c0.8-0.2,1.6-0.1,2.7,0.3
				C827.9,364,826.5,369.8,824.7,373.7z"/>
			<path class="st4" d="M834.2,399.5c-5.4-5-18.3-5.9-21.1,2.4c0,0,0,0-0.1,0.2c-2.8,3.2-3.9,7.8-2,11.9c3.3,7.5,14.7,11,21.6,6.5
				C839.7,415.5,840.5,405.3,834.2,399.5z M828.7,414.1c-3,3.1-9.7,0.7-12-2.6c-1.7-2.2-0.9-4.7,0.4-7.2c3-0.6,5.7-2,8.9-0.5
				C829.8,405.9,832.1,410.9,828.7,414.1z"/>
			<path class="st4" d="M830.2,438.2c-2.7-3.4-7-5.4-11.3-5.4c-3.8,0-9.6,1-9.9,5.7c-0.1,0.2,0,0.5,0.2,0.8
				c-0.1,0.2-0.4,0.3-0.5,0.6c-3.1,3.9-4.4,8.9-3.3,13.7c2.2,9.8,13,13.2,21,8C834.5,456.5,836.4,445.5,830.2,438.2z M824.7,453.8
				c-3.8,5.1-11.1,4.2-12.9-2.2c-1-3.2-0.2-6.5,1.9-9.2c0.5-0.6,0.9-0.9,1.3-1.3c1.9-0.3,4.2-0.9,6.1-0.1
				C825.9,443.1,827.9,449.5,824.7,453.8z"/>
			<path class="st4" d="M666.1,353.3c-3.3-1.9-6.9-3.8-10.2-5.7c-2.1-1.1-4.4-2.3-6.9-1.3c-2.5,1-3.7,4.1-4.7,6.5
				c-1.6,3.4-3.5,6.7-4,10.4c0,0.7,0,1.3,0.3,1.9c-1,1.9-0.5,3.6,1.5,4.4c4.4,1.8,8.7,3.8,13.1,5.5c1.1,0.4,2.9-0.3,3.6-1.3
				c3-5.4,6-11.1,8.5-16.7C667.7,355.8,667.1,354,666.1,353.3z M656.3,356c1.3,0.5,2.4,1,3.6,1.7c-1.7,3.6-3.4,7.1-5.3,10.6
				c-2.6-1.1-5.2-2.3-7.6-3.3c1.2-1.8,1.9-4.1,2.7-6c0.5-1.3,1.2-3.6,2-5C653.5,354.3,655.2,355.6,656.3,356z"/>
			<path class="st4" d="M654.2,384.5c-0.2-2.6-1.8-3.8-3.9-4.9c-2.8-1.4-5.5-2.7-8.3-4.1c-2.1-1.1-4.3,0-5.5,1.6
				c-0.1,0.2-0.3,0.1-0.3,0.1c-1.9,2.1-2.7,4.8-3.8,7.4c-1.2,3.1-3.2,6.1-3.5,9.3c-0.5,6.2,8.2,8.2,12.5,10.2c2.4,1,4.6,0.1,5.5-2.1
				c1.5-3,3-6.2,4.5-9.2C652.4,390.4,654.4,387.4,654.2,384.5z M636.9,392c0.8-2.7,2.2-5.5,3.3-8.1c1.1,0.4,2.1,1.1,3.2,1.6
				c0.7,0.3,1.7,0.9,2.5,1.3l0,0c-1.9,2.8-3.2,6.1-4.6,9.4c-0.7-0.3-1.5-0.6-2.2-0.9C637.3,394.2,635.9,394.4,636.9,392z"/>
			<path class="st4" d="M683.2,390.4c3.8-8.2,7.3-16.2,11.1-24.3c0.5-1.3-0.2-2.6-1.2-3.3c-4.9-3.5-9.6-5.9-15.8-6.9
				c-1-0.1-2.1,0.2-2.6,0.7c-0.8,0.2-1.5,0.4-2,1.2c-4.9,7.2-7.4,15.6-10.6,23.8c-3.3,8.1-6.6,15.7-8.5,24.1c0,0.7,0.3,1.7,0.9,2.2
				c5.7,3.1,14.4,10.4,19.2,3.7C678.2,405.4,680.4,396.9,683.2,390.4z M659.7,404.3c4.2-6.5,7.2-13.4,10.1-20.6
				c2.8-6.8,6.1-13.8,7.6-21.2c3.7,1,7.2,2.4,10.5,4.3l-9.1,20.6c-2.7,6-5.3,14.9-9.2,20.8C666,407.1,662.8,405.6,659.7,404.3z"/>
			<path class="st3" d="M597.1,238.9c-8-4.2-16.8-5.8-25.8-3.1c-13.1,4.1-18.6,17-19.4,29.6c-0.2,3.7-0.2,7.3,0.3,11.1
				c4.7-10.9,14.3-20.2,22.8-26.7C579.6,246.4,588.8,240.6,597.1,238.9z"/>
			<path class="st3" d="M585,224.8c2.2-4.2,3.7-13,4.6-15.7c2.8-8.3,4.7-17.2,4.7-26.1c-0.2-5.7-1.3-14.5-7.4-17.6
				c-9.2-4.5-15,4.9-17.3,11.1c-3.5,9.3-1.3,17.6,0.6,26.8c0.9,4.2-4.8,6.2-7,2.8c-2.5-3.8-3.7-8.4-4.3-13.2
				c-1.1,3.9-0.9,7.8-1,11.9c0,3.8-5.6,5.1-7.4,1.9c-3.1-5.6-2.1-12.6,0.5-18.2c1.5-3.7,4.3-8.2,8.2-10.2
				c-2.6-11.8-1.8-23.9-16.6-28.9c-19.2-6.2-35.5,10.1-37.9,28c-2.1,14.7,3.4,30,11.2,42.3c8.6,13.4,20.7,20.6,32.5,30.5l0.2,0.1
				c0.4-0.9,0.6-1.5,1.2-2.3C556.4,231.9,570.1,223.9,585,224.8z"/>
			<path class="st3" d="M659.6,281.8c-2.9,3.4-6.1,7-6,11.6c0.1,0.3,0,0.7-0.2,1.2c1.5,2.6,3.2,5.4,5.2,8c0.7-4.3,2.6-8.4,5.9-10.9
				C662.5,288.6,660.9,285.4,659.6,281.8z"/>


			<!-- costume -->			
			<path class="st4" d="M912.5,669.7c-0.6-0.5-1-0.7-1.7-0.9c-0.1-8.5-4.4-16.3-15.4-20.5c-13.2-5.1-26.6,0.3-38.1,7
				c-1.4-1.1-0.6-0.5-2-1.5c2.3-8.9,3.4-18.3,3.5-26.7c0.8-31-10.1-61.5-26.6-87.3c0,0,0,0-0.2-0.1c6.5-9.9,11.8-21.5,14.8-35.3
				c6.6-30.2,9.1-61.6,8.5-92.7c28.3-4.9,58.7-10.2,84.2-23.3c9.7-5,18.8-11.8,24.8-20.3c7.4,0.7,16.8-3.7,23-6.5
				c1.8-0.8,4.4-2,7.3-3.4c0,0,0,0.1,0,0.1l7.3-5.5c0,0,0,0,0-0.1c0.8-0.7,1.4-1.5,1.7-2.4c2.1-0.2,4-0.4,6.1-1.1
				c18.9-5.8,27.4-30,21.5-47.9c-5-15.3-21.9-20.9-36.2-17c0.1-0.2,0-0.7,0.1-1c0,0,0,0,0-0.1c-0.1-3.9-1.9-7.6-5-10l-2.5-1.9
				c-2.1-1.6-4.7-2.7-7.4-2.7c-3.9,0-8.2,1.2-12,3.6c-11.5,7.6-22.4,21.3-23.8,35.5c-9.8-3.5-21.6-3.4-33.9-2
				c-17.4,2.1-38.1,7.3-53.8,17.5c3.2-6.6,3.6-13.9-1-21.6c4.8-4.9,9.1-10.6,12.7-16.8c14.6,6.7,26.6-20.9,29.2-31
				c3-12.3-1.1-29.5-15.6-27c-1.2-33.6-16.9-66-47.5-84.3c-43.9-26.4-98-12.4-135.8,18.5c-1.2,1-2.4,2.1-3.6,3.1
				c-3.1-1.2-6.5-1.6-9.7-1.4c-2.4-0.4-5-0.2-7.6,0.5c-9.1,2.4-16.5,10.4-20.7,18.4c-7.4,13.3-11.8,38.6,4.1,47.1
				c-0.4,2.2-0.6,4.1-1,6.2c-1,7-1.8,14.6-1.7,21.8c-0.3,0.1-0.4,0.3-0.4,0.3c-8-0.4-13.5,8.1-15.4,15.4c-0.3,1.4-0.7,3-0.8,4.5
				c-3.3-7.5-8.4-14.6-12-20.2c-7-11-15.8-21.5-27.7-27.3c-4-2.1-8.3-3.4-12.3-4.2c6.7-5.2,10.4-20.5,11.4-25.7
				c3-12.5,5.2-29.8-5.4-39.5c-9.3-8.6-21.7-5-28.8,4.4c-0.2,0.4-0.5,0.6-0.7,1c-1.7-9.6-7.9-19-15.9-23
				c-16.6-8.8-36.3-0.4-46.1,14.2c-22.1,33.1,4,90.2,41.1,100.8c0.7,0.3,1.2,0.2,1.7,0.2c-4.7,19.8,0.2,42.4,9.7,59.8
				c6,11.1,14,21,23.3,29.3c6.6,5.7,15.9,14.9,25.3,16.9c-3.3,8.9-6.5,18-9.2,27.1c0,0-0.1-0.1-0.1-0.1l-7.9,29l0.1,0.1
				c-1.8,6.9-3.6,13.9-5.1,20.7c-3.7,16.6-9.2,35.8-8.8,53.8c-18.4,26.5-34.1,58.4-44.3,88.7c-4.7,14.2-8.5,29.2-6.6,42.7
				c-13.4-9.8-30.7-16.2-44.4-7.5c-10,6.4-13,17.7-11,28.4c-4.6,2-7.3,9.3-6.6,14.4c2.3,15.7,26.7,27.9,39.2,33.7
				c15.2,7.2,32,10.4,48.7,7.7c13.1-2.1,31.7-8.3,35.7-22.5c8.4-4.3,15.2-10.4,17.1-18.3c4.8-1.9,9.1-4.2,12.7-7.4
				c10.9-9.3,18.8-23.8,25.6-36.1c8.1-14.3,14.9-29.2,20-45c19.8,6,40.9,9.9,62,10.6c-4.1,12.1-3.1,27.1-1.6,39.2
				c1.8,15,5.2,31.2,13.9,43.9c4.6,7,10.4,12.6,17,17.1c2.4,11.2,13.9,21.7,22.4,27.9c4.1,3.2,8.6,5.8,13.4,8
				c-4.3,7.4,7.1,17.2,14.3,19.6c17.2,6,37.5,5,55.2,0.4c17.5-4.7,33.8-13.6,46.3-26.7C913.5,702.3,926.8,682.7,912.5,669.7z
				 M886.8,658c7,1.6,10.5,5.5,11.4,10.2c-5.6-4.5-16-5.2-22.5-5c-5.2,0.2-10.6,1.1-15.9,2.2C868.2,660.5,877.7,655.9,886.8,658z
				 M839.7,582.8c3,9.6,5.1,19.4,6.2,29.5c0.2,2.1,0.2,4.4,0.3,6.8c-2.8-0.6-5.5-0.9-8.1-2.8c-4.4-3-6-8.5-6.3-13.5
				c-0.2-4.4,0.7-8.6,2.6-12.7C835.4,588.5,837.3,584.9,839.7,582.8z M983.7,306.2c2.8-4.5,6.4-8.1,8.4-12.4
				c12-1.8,24.5-3.8,29.8,10.8c4.5,12.8-0.9,31.8-14.4,36.2c-9.9,3.1-19.1-2.6-24-11.3C978.6,321.8,978.5,313.8,983.7,306.2z
				 M971,279.4c5.5-4.7,9.8-1.6,13.6,9.3c-0.1,0.2-0.3,0.1-0.4,0.3c-1.7,1.1-1.7,2.9-0.6,4.1l-1.7,2.9c-2.1,3.2-5.3,6-7.5,9.2
				c-2.6,3.8-3.9,7.8-3.8,12.5c0.4,13.4,10.1,26.8,22.6,31.1c-2.9,1.6-6.1,3.7-8.2,4.6c-4.1,1.9-8.2,3.3-12.7,4.3
				c-1.1,0.3-2.5,0.5-3.6,0.8c3-7.5,3.4-16-0.2-25.3c-4.4-11.7-11.2-18.8-19.7-23C954.2,298.9,959.4,284.9,971,279.4z M958,336.9
				c5.2,13.6-0.3,24.1-10,32.2c3-11.3,3.9-23.4,0.2-34.6c-2.1-6.2-5.9-12.6-10.9-17.2C946.5,319.9,953.8,325.7,958,336.9z
				 M897.2,318.6c7.3-1.6,15.2-3,22.8-3.3c10.6,7.1,18.4,14.3,20.9,27.8c2,11.5-1.4,22.9-4.8,33.8c-7.5,4.1-15.2,7.4-21.7,9.6
				c-15.9,5.8-31.5,11-47.7,14.6c2-2.5,3.6-5.2,4.8-7.5c4.6-8.3,6.5-18,5.5-27.4c-1.3-11.2-9.8-29.2-22.2-32.2
				C869,328.6,882.2,321.7,897.2,318.6z M867.4,371.6c0.6,7.9-2,15.5-6.7,22.3c-2,3-4.6,5-6.8,7.4c-1-21.3-3.5-42.5-7.1-63.1
				C858.4,346.5,866.9,356.4,867.4,371.6z M889.8,241.4c1.4,5.9-1.3,12.7-3.2,18.1c-2,5.6-4.7,11.1-9.6,15c-1.9,1.5-3.5,2.4-5.1,3.1
				c1.5-3,2.6-6.4,3.7-9.7c3.7-11.5,5.8-23.7,5.8-35.7C885,234.3,888.5,236.3,889.8,241.4z M840.8,327.7c-0.4-1.5-1.2-2.8-1.8-3.8
				c-1.1-2.2-2-4.4-3.6-6.3c4.1-2.4,8-5.2,11.8-8.2C850,316.9,846.8,322.9,840.8,327.7z M818.1,325.8c4.3-1.8,8.6-3.7,12.8-5.8
				c0.2,2.1,0.6,4.1,1.2,6.4c0.3,1.7,0.9,4,1.7,5.8c-3.9,2-7.9,3.7-12,5.1c-0.6-2.8-1.6-5.5-2.6-8.2
				C818.9,328.2,818.4,327,818.1,325.8z M813.4,339.8c-3.4,0.9-6.5,1.7-9.1,2.2c-1.1,0.3-2.2,0.4-3.6,0.6c-0.1-2.3-0.7-4.6-1.1-6.8
				c-0.2-1.4-0.6-2.8-1.1-4.3c4.5-1,8.7-2.1,13.2-3.6c0.2,1.4,0.1,2.9,0.3,4.2C812.4,334.8,812.9,337.3,813.4,339.8z M662.9,218.9
				c-5.4-10.1-5.3-20.3,0.1-31.8c2.7-5.3,6.2-10.2,11.3-13.5c0.4-0.3,1-0.6,1.4-1c1.5-0.4,2.6-0.7,4-0.9c2.7-0.4,4.9-0.1,7.2,0.4
				C675.4,185.4,667.6,201.6,662.9,218.9z M690.6,181.4c27.9-34.3,82-52.5,123.5-35.4c38.7,15.9,59.6,55.8,55,96.5
				c-5.4,49.3-43,78.5-91,81c-45.1,2.4-96.3-12.2-112.1-57.7C662.8,236.2,673.6,202.5,690.6,181.4z M793.2,343.8
				c-5.8,1-11.6,1.4-17.6,1.8c0.2-1.7,0.1-3.5,0.1-5.3c0-1.8,0-3.8-0.2-5.7c5.7-0.2,11.6-0.9,17.1-2c-0.1,1.5-0.1,2.8,0.1,4.1
				C793,339.2,793,341.7,793.2,343.8z M767.2,346.1c-4.1,0.1-8.4-0.1-12.3-0.4c0.5-1.8,0.5-3.9,0.9-6c0.2-1.7,0.5-3.6,0.4-5.4
				c1.7,0.2,3.2,0.3,4.9,0.5c2.5,0,5,0.2,7.6,0.3c-0.3,1.9-0.5,3.6-0.7,5.6C767.6,342.1,767,344.2,767.2,346.1z M730.5,337.3
				c0.4-2.1,1-4.4,1.6-6.5c6.1,1.2,12.4,2.2,18.2,3c-0.3,1.4-0.7,3-1,4.4c-0.4,2.1-1.3,4.6-1.5,6.8c-1.7-0.2-3.2-0.3-4.9-0.5
				c-4.6-0.6-9.1-1.4-13.6-2.4C730.1,340.7,730.3,339,730.5,337.3z M724.6,341.1c-3.7-1-7.4-2-11-3.2c0.5-1.8,0.8-3.8,1.3-5.6
				c0.5-1.8,1.3-3.8,1.8-5.7c3.4,1.1,6.6,1.9,10.1,2.8c-0.9,2.2-1.5,4.3-1.9,6.6C724.5,337.7,724.2,339.6,724.6,341.1z M697.1,322
				c0.1-1,0.4-1.6,0.8-2.5c4.3,2,8.6,4,13.1,5.5c-1.1,2.1-2,4.3-2.7,6.6c-0.6,1.5-0.9,2.9-1.2,4.3c-4.3-1.5-8.5-3.5-12.6-5.4
				c0.7-0.5,1.2-1,1.5-1.7C696.9,326.5,696.8,324.2,697.1,322z M681,312.2c0.4-0.9,0.6-1.5,1-2.4c3.2,2.3,6.4,4.4,9.7,6.2
				c-2.2,3.5-3.4,7.8-2.6,11.4c-3.3-1.9-6.9-3.8-10-6.1c-0.2-0.1-0.6-0.5-0.8-0.6C680.2,318.5,679.7,315.2,681,312.2z M672.4,316.9
				c-2.8-2.4-5.8-5.2-8.7-8.1c0.7-0.5,1-1.1,1-1.9c0.3-3.2,0.4-6,2.1-8.9c0.3-0.7,0.7-1,0.9-1.7c2.7,3.4,5.7,6.7,9.1,9.6
				c-0.9,0.9-1.4,2.2-2.2,3.5C673.7,311.3,672.5,314.3,672.4,316.9z M658.6,302.6c-2-2.6-3.7-5.3-5.2-8c0.2-0.4,0.4-0.9,0.2-1.2
				c-0.2-4.7,3.1-8.2,6-11.6c1.3,3.6,2.9,6.8,4.9,9.9C661.2,294.2,659.3,298.3,658.6,302.6z M549.9,247.9c-0.6,0.8-0.8,1.4-1.2,2.3
				l-0.2-0.1c-11.8-9.9-23.9-17.1-32.5-30.5c-7.8-12.3-13.3-27.6-11.2-42.3c2.4-17.9,18.7-34.3,37.9-28c14.8,5,14,17.1,16.6,28.9
				c-3.9,2-6.7,6.5-8.2,10.2c-2.5,5.6-3.6,12.6-0.5,18.2c1.7,3.3,7.4,2,7.4-1.9c0.1-4-0.1-7.9,1-11.9c0.6,4.8,1.8,9.4,4.3,13.2
				c2.2,3.4,7.9,1.4,7-2.8c-1.9-9.2-4.1-17.5-0.6-26.8c2.3-6.2,8.1-15.6,17.3-11.1c6.2,3,7.2,11.8,7.4,17.6c0,8.9-1.9,17.9-4.7,26.1
				c-0.8,2.7-2.4,11.5-4.6,15.7C570.1,223.9,556.4,231.9,549.9,247.9z M551.9,265.5c0.8-12.7,6.3-25.5,19.4-29.6
				c9-2.7,17.8-1.2,25.8,3.1c-8.3,1.7-17.6,7.4-22,11c-8.5,6.5-18.2,15.9-22.8,26.7C551.8,272.8,551.7,269.2,551.9,265.5z
				 M573.6,324c-7.6-9.5-14.3-20.8-18.2-32.6c7-13.5,13.5-24.6,25.8-34.2c5.3-4.2,10.7-7.6,17.4-9.5c2.9-0.9,5.3-1.2,7.5-2.1
				c8.7,7.4,16,16.7,22.3,26.1c2.2,3.4,4.2,7.3,6.2,11.2c-4.3,0-9,1.5-12.6,2.8c-9.9,3.6-18.8,10.5-24.7,19.3
				c-5.9,8.8-9.2,24.1-6.6,36.4C584.6,336.1,578.8,330.2,573.6,324z M608.6,353.5c-0.6-0.5-1.1-1-1.9-1.5
				c-2.7-5.9-6.4-10.7-7.5-17.3c-1.4-8,0-15.8,3.9-22.9c8.1-15.1,21.6-18,36.4-21.2c0.3,0.4,0.7,0.8,1,1.2
				C627.9,311.1,617.4,331.8,608.6,353.5z M656.3,266c0.2,3.2,0.7,6.4,1.6,9.3c-3.4,1.4-5.9,4.5-8,7.2l-0.1,0.2
				C648.9,276.7,650.8,270.9,656.3,266z M487.6,624.7c9.1-2.2,16.8,2,24.4,6.6c-6.2-2.3-12.6-3.6-19.2-2.9
				c-4.8,0.6-11.6,2.9-15.7,6.7C478.5,630.2,482,626,487.6,624.7z M519.7,693.3c-12.2-2.6-55.9-20.6-50.1-38.9
				c1.8,4.3,4.4,8.1,7.4,11.4c16.7,17.2,47.8,24.4,71,23.7c5.4-0.1,12.4-1.1,19.9-3.2C554.2,695.8,536.6,697.1,519.7,693.3z
				 M579.7,669.9c-7.2,4.5-15.4,7-23.7,8.2c-18.9,2.6-39.6-1.8-56.9-9.5c-9.2-4.3-18.8-10.9-21.7-21.3c-0.3-1.1-0.6-2.3-0.7-3.3
				c10-7.2,17.6-10.7,31.6-6.1c8.4,2.6,16.2,7.8,24.5,10.7c2.4,2.8,5.3,5.2,8.7,7.6c11.4,7.7,28.1,11.1,43.5,9.7
				C583.3,667.3,581.8,668.7,579.7,669.9z M532.1,621.3c3.7,6.1,9.2,11.4,13.8,14.5c10.7,7.6,25,17,39.3,19.5
				c-15.7,2.3-32.6-2-43.5-12.8C535.6,636.5,533,629,532.1,621.3z M614.6,639.1c-3.3,4.3-7.5,7.7-12.1,10.4c-0.6-1-1.5-1.9-3.2-2.1
				c-15.5-1.4-27.9-6.7-41.4-14.2c-6.2-3.5-12.9-7.3-17.6-12.7c-4.3-5.1-5.7-10.5-7.1-16.4c1-5,2.5-10,4.1-14.6
				c12.2,3.9,25.9-7.4,30.3-18.1c4.8-11.8,1.8-24-9.3-29.3c2.2-4.2,4.4-8.4,6.4-12.7c0.3,12.4,4.8,24.7,13.4,33.7
				c17,18.4,51.7,24.8,72.2,8.1l0.2,0.1C641.5,594.9,630.2,618.4,614.6,639.1z M540.1,581.4c2.6-5.8,5.1-11.2,7.1-16.3
				c2.7-6,5.5-11.8,8.5-17.7l0.2,0.1c5.9,4.4,7.2,10.6,5.2,17.4C557.7,576.3,549.6,578.6,540.1,581.4z M576.4,511.9
				c5.9,18.2,20.6,32.3,36.8,42c7.7,4.4,16.2,8.6,25.4,12.3c-6.2,2.1-12.4,4.7-19.4,4.4c-12.4-0.2-24.8-5.5-33.3-14.8
				c-7.6-8.2-11.7-19.5-11.8-30.8C574.1,520.7,575.3,516.3,576.4,511.9z M632,551.5c-19.1-8.8-38.3-21.9-45.3-42.6
				c-7.2-21.3,1.5-49.1,6.4-70.1c11.4-49.5,31-94.8,51.9-140.7c1.4,3.4,3.5,6.5,5.6,9.4c18.6,24.6,54.3,39.8,83.8,45.1
				c1.2,0.2,2.1,0.4,3.3,0.6c-8.7,34.7-12.2,71.1-16.8,106.4c-4.9,37.3-8.6,74.8-12.3,112.1c0,0.5,0.1,1.1,0.1,1.6
				C681.9,570.7,655.7,562.4,632,551.5z M716.5,574c0.5-0.6,0.5-1.3,0.8-2c4.4-36.7,9.3-73.3,14.1-109.8
				c4.6-35.9,11.4-71.7,13.6-107.8c26.8,3.2,54.8,0.2,80.2-7.8c3.8-1.3,7.5-2.8,11.4-4.8c7.1,42.4,8.5,85.3,3.7,128.1
				c-2.7,23.7-5.4,50.6-21.7,69.3c-14,16.3-35.1,26.1-55.7,31C747.7,573.9,732.3,574.8,716.5,574z M817.7,555.3
				c-3,21.2-14,40.8-36.4,47.7c-11.4,3.6-23.3,2.8-33.8-2.7c-7.3-4-11.5-10.5-17.4-15.7C763.6,584.4,795.4,575.8,817.7,555.3z
				 M739.7,655.9c-6.2-11.7-8.7-25.7-10.1-38.8c-0.7-6.4-0.3-13.1-0.2-19.7c4.8,5.8,11.9,10.4,17.5,12.9c11.7,5.2,25.1,5.3,37.2,1.3
				c25.1-7.9,40.7-31.2,43.9-56.2c3.8,6.9,7,14.3,9.7,21.5c-2,0.5-4.2,1.6-5.6,2.6c-6.3,4.8-9.1,13.1-9.9,20.7
				c-0.5,8.2,1.4,16.6,7.5,22.4c4.1,3.7,10.9,7,16.3,5.1c-0.1,2.2-0.3,4.5-0.4,6.7c-12.5,15.1-24.9,26.1-44.8,31.3
				c-10,2.6-20.3,3-30.5,2.2c-8.6-0.7-17.2-3.6-25.7-4.5C742.7,661.2,741.2,658.5,739.7,655.9z M755,673c16.5,4.6,36.7,3.1,50.8-0.6
				c12.9-3.5,27-10.5,37.1-21c-2.3,8.8-6.2,15.3-11.8,20.2c-1.1,0.8-2.3,1.9-3.4,2.7c-4.6,3.2-10,5.9-16.1,7.7
				C792.2,688.1,770.6,684.9,755,673z M771.1,698.2c-2.3-1.9-4.2-4.2-5.8-6.4c14.6,5.4,30.9,6.1,46.1,2.1
				c8.8-2.3,17.9-6.3,25.5-11.9c8.5-2.7,16.9-6.4,25.6-8.5c10.3-2.2,25.9-4.1,35.7,2.5c-1.5,7.5-6.5,15.5-11.2,20
				c-7.2,7-16.3,11.8-25.6,15.4c-19.1,6.8-41.7,9.7-61.2,3.8C789.4,711.5,779.5,705.7,771.1,698.2z M859.4,730.1
				c-10.6,3.6-66.3,11.9-67-7.2c5.9,2.4,12.1,4.1,18.4,4.9c25.8,3.8,57.3-3.6,77.8-19.5c7.5-5.9,15.2-16,18.9-26.5
				C914,702.5,874.5,725,859.4,730.1z"/>
				
		</g>
	</g>
</svg>