<?xml version="1.0" encoding="iso-8859-1"?>
<!-- Generator: Adobe Illustrator 19.0.0, SVG Export Plug-In . SVG Version: 6.00 Build 0)  -->
<svg version="1.1" id="Layer_1" xmlns="http://www.w3.org/2000/svg" xmlns:xlink="http://www.w3.org/1999/xlink" x="0px" y="0px"
	 viewBox="0 0 512.001 512.001" style="enable-background:new 0 0 512.001 512.001;" xml:space="preserve">
<path style="fill:#0071CE;" d="M409.324,227.42c-4.356,0-8.642,0.301-12.841,0.872c-1.022-73.455-60.875-132.689-134.573-132.689
	c-62.915,0-115.745,43.171-130.492,101.504c-4.325-0.517-8.725-0.79-13.19-0.79c-60.774,0-110.042,49.267-110.042,110.041
	c0,60.775,49.268,110.041,110.042,110.041h291.096c52.186,0,94.491-42.305,94.491-94.49S461.51,227.42,409.324,227.42z"/>
<path style="fill:#FFFFFF;" d="M318.372,284.484h-17.754c0.431-1.704,0.684-3.475,0.684-5.305v-86.072
	c0-12.005-9.823-21.828-21.828-21.828h-46.957c-12.005,0-21.828,9.823-21.828,21.828v86.072c0,1.831,0.253,3.603,0.683,5.305
	h-17.744c-12.005,0-15.222,7.27-7.149,16.155l54.841,60.354c8.074,8.885,21.286,8.885,29.359,0l54.841-60.354
	C333.594,291.754,330.378,284.484,318.372,284.484z"/>
<path style="fill:#1E252B;" d="M409.324,424.585H118.228C53.037,424.585,0,371.549,0,306.358
	c0-65.19,53.037-118.227,118.228-118.227c2.366,0,4.751,0.072,7.137,0.216c18.244-59.773,73.42-100.931,136.546-100.931
	c37.785,0,73.402,14.618,100.291,41.159c24.756,24.438,39.507,56.401,42.077,90.783c1.686-0.083,3.371-0.124,5.047-0.124
	c56.616,0,102.676,46.06,102.676,102.675C512,378.525,465.939,424.585,409.324,424.585z M118.228,204.502
	c-56.164,0-101.857,45.692-101.857,101.856s45.693,101.856,101.857,101.856h291.096c47.589,0,86.305-38.717,86.305-86.304
	c0-47.589-38.717-86.304-86.305-86.304c-3.893,0-7.843,0.268-11.74,0.797c-2.321,0.314-4.667-0.38-6.443-1.909
	c-1.776-1.528-2.81-3.746-2.843-6.088c-0.465-33.387-13.817-64.703-37.599-88.179c-23.805-23.497-55.337-36.439-88.789-36.439
	c-57.97,0-108.367,39.199-122.556,95.325c-1.008,3.989-4.834,6.613-8.907,6.122C126.383,204.749,122.271,204.502,118.228,204.502z"
	/>
<g>
</g>
<g>
</g>
<g>
</g>
<g>
</g>
<g>
</g>
<g>
</g>
<g>
</g>
<g>
</g>
<g>
</g>
<g>
</g>
<g>
</g>
<g>
</g>
<g>
</g>
<g>
</g>
<g>
</g>
</svg>
