<?xml version="1.0" encoding="UTF-8" standalone="no"?>
<!DOCTYPE svg PUBLIC "-//W3C//DTD SVG 1.1//EN" "http://www.w3.org/Graphics/SVG/1.1/DTD/svg11.dtd">
<!-- Created with Vectornator (http://vectornator.io/) -->
<svg height="100%" stroke-miterlimit="10" style="fill-rule:nonzero;clip-rule:evenodd;stroke-linecap:round;stroke-linejoin:round;" version="1.1" viewBox="0 0 511.989 511.989" width="100%" xml:space="preserve" xmlns="http://www.w3.org/2000/svg" xmlns:vectornator="http://vectornator.io" xmlns:xlink="http://www.w3.org/1999/xlink">
<defs/>
<clipPath id="ArtboardFrame">
<rect height="511.989" width="511.989" x="0" y="0"/>
</clipPath>
<g clip-path="url(#ArtboardFrame)" id="Untitled" vectornator:layerName="Untitled">
<g opacity="1">
<path d="M110.933 221.782C106.223 221.782 102.4 225.605 102.4 230.315L102.4 281.515C102.4 286.225 106.223 290.048 110.933 290.048C115.643 290.048 119.466 286.225 119.466 281.515L119.466 230.315C119.467 225.605 115.644 221.782 110.933 221.782Z" fill="#f9f9f9" fill-rule="nonzero" opacity="1" stroke="none"/>
<path d="M111.855 2.304L31.172 34.586C8.448 43 0 54.418 0 76.715L0 435.192C0 457.49 8.448 468.907 30.959 477.253L112.017 509.68C116.028 511.199 120.055 511.967 123.998 511.967C141.15 511.967 153.6 497.631 153.6 477.876L153.6 34.049C153.6 9.78 134.246-6.126 111.855 2.304ZM136.533 477.876C136.533 488.056 131.498 494.9 123.998 494.9C122.129 494.9 120.115 494.499 118.195 493.782L37.103 461.33C21.001 455.365 17.067 450.228 17.067 435.192L17.067 76.715C17.067 61.679 21.001 56.551 37.308 50.509L118.033 18.219C120.115 17.434 122.12 17.033 123.989 17.033C131.49 17.033 136.533 23.868 136.533 34.049C136.533 34.049 136.533 477.876 136.533 477.876Z" fill="#f9f9f9" fill-rule="nonzero" opacity="1" stroke="none"/>
<path d="M178.133 51.115L298.666 51.115C312.78 51.115 324.266 62.601 324.266 76.715L324.266 204.715C324.266 209.425 328.08 213.248 332.799 213.248C337.518 213.248 341.332 209.425 341.332 204.715L341.332 76.715C341.332 53.189 322.192 34.048 298.665 34.048L178.133 34.048C173.423 34.048 169.6 37.871 169.6 42.581C169.6 47.291 173.423 51.115 178.133 51.115Z" fill="#f9f9f9" fill-rule="nonzero" opacity="1" stroke="none"/>
<path d="M332.8 298.582C328.081 298.582 324.267 302.405 324.267 307.115L324.267 435.115C324.267 449.229 312.781 460.715 298.667 460.715L179.2 460.715C174.49 460.715 170.667 464.538 170.667 469.248C170.667 473.958 174.49 477.781 179.2 477.781L298.667 477.781C322.193 477.781 341.334 458.641 341.334 435.114L341.334 307.114C341.333 302.405 337.519 298.582 332.8 298.582Z" fill="#f9f9f9" fill-rule="nonzero" opacity="1" stroke="none"/>
<path d="M511.343 252.655C510.908 251.605 510.285 250.667 509.491 249.873L424.166 164.54C420.829 161.204 415.436 161.204 412.1 164.54C408.763 167.877 408.763 173.27 412.1 176.606L482.867 247.381L196.267 247.381C191.557 247.381 187.734 251.204 187.734 255.914C187.734 260.624 191.557 264.447 196.267 264.447L482.868 264.447L412.1 335.215C408.763 338.552 408.763 343.945 412.1 347.281C413.764 348.945 415.949 349.781 418.133 349.781C420.318 349.781 422.502 348.945 424.166 347.281L509.491 261.956C510.285 261.162 510.908 260.224 511.343 259.174C512.205 257.093 512.205 254.738 511.343 252.655Z" fill="#f9f9f9" fill-rule="nonzero" opacity="1" stroke="none"/>
</g>
</g>
</svg>
