<?xml version="1.0" encoding="iso-8859-1"?>
<!-- Generator: Adobe Illustrator 19.0.0, SVG Export Plug-In . SVG Version: 6.00 Build 0)  -->
<svg version="1.1" id="Layer_1" xmlns="http://www.w3.org/2000/svg" xmlns:xlink="http://www.w3.org/1999/xlink" x="0px" y="0px"
	 viewBox="0 0 512 512" style="enable-background:new 0 0 512 512;" xml:space="preserve">
<path style="fill:#3D6DEB;" d="M3.919,243.077c-0.223,0.33-0.414,0.675-0.618,1.015c-0.186,0.31-0.382,0.614-0.552,0.936
	c-0.186,0.349-0.346,0.709-0.514,1.066c-0.157,0.332-0.321,0.658-0.464,0.998c-0.144,0.349-0.261,0.706-0.388,1.06
	c-0.129,0.362-0.268,0.718-0.38,1.089c-0.107,0.358-0.188,0.721-0.279,1.085c-0.093,0.374-0.199,0.743-0.275,1.125
	c-0.084,0.422-0.133,0.849-0.194,1.275c-0.047,0.326-0.109,0.645-0.143,0.976c-0.15,1.53-0.15,3.07,0,4.6
	c0.034,0.33,0.096,0.65,0.143,0.976c0.061,0.425,0.11,0.853,0.194,1.275c0.076,0.382,0.18,0.749,0.275,1.125
	c0.092,0.362,0.171,0.726,0.279,1.085c0.112,0.369,0.251,0.726,0.38,1.089c0.127,0.354,0.244,0.711,0.388,1.06
	c0.143,0.34,0.307,0.666,0.464,0.998c0.168,0.355,0.327,0.715,0.514,1.064c0.171,0.321,0.366,0.625,0.552,0.936
	c0.203,0.34,0.394,0.684,0.618,1.015c0.234,0.351,0.493,0.68,0.745,1.015c0.205,0.272,0.393,0.549,0.608,0.813
	c0.489,0.596,1.002,1.168,1.548,1.711l116.36,116.36c4.544,4.544,10.501,6.817,16.455,6.817c5.956,0,11.913-2.271,16.455-6.817
	c9.089-9.089,9.089-23.824,0-32.912l-76.636-76.636h409.272c12.853,0,23.273-10.42,23.273-23.273
	c0-12.853-10.42-23.273-23.273-23.273H79.456l76.636-76.636c9.089-9.089,9.089-23.824,0-32.912c-9.087-9.089-23.824-9.089-32.912,0
	L6.82,239.538c-0.546,0.543-1.06,1.116-1.548,1.711c-0.216,0.264-0.403,0.541-0.608,0.813
	C4.412,242.397,4.153,242.726,3.919,243.077z"/>
<g>
</g>
<g>
</g>
<g>
</g>
<g>
</g>
<g>
</g>
<g>
</g>
<g>
</g>
<g>
</g>
<g>
</g>
<g>
</g>
<g>
</g>
<g>
</g>
<g>
</g>
<g>
</g>
<g>
</g>
</svg>
