<?xml version="1.0" encoding="UTF-8" standalone="no"?>
<!DOCTYPE svg PUBLIC "-//W3C//DTD SVG 1.1//EN" "http://www.w3.org/Graphics/SVG/1.1/DTD/svg11.dtd">
<!-- Created with Vectornator (http://vectornator.io/) -->
<svg height="100%" stroke-miterlimit="10" style="fill-rule:nonzero;clip-rule:evenodd;stroke-linecap:round;stroke-linejoin:round;" version="1.1" viewBox="0 0 24 24" width="100%" xml:space="preserve" xmlns="http://www.w3.org/2000/svg" xmlns:vectornator="http://vectornator.io" xmlns:xlink="http://www.w3.org/1999/xlink">
<defs/>
<g id="Untitled" vectornator:layerName="Untitled">
<path d="M7 9L7 8C7 5.23858 9.23858 3 12 3C14.7614 3 17 5.23858 17 8L17 9C19.2091 9 21 10.7909 21 13C21 14.4806 20.1956 15.7733 19 16.4649M7 9C4.79086 9 3 10.7909 3 13C3 14.4806 3.8044 15.7733 5 16.4649M7 9C7.43285 9 7.84965 9.06875 8.24006 9.19594M12 11L12 21M12 11L16 15M12 11L8 15" fill="none" opacity="1" stroke="#3d6deb" stroke-linecap="round" stroke-linejoin="round" stroke-width="1.5"/>
</g>
</svg>
