<?xml version="1.0" encoding="UTF-8" standalone="no"?>
<!DOCTYPE svg PUBLIC "-//W3C//DTD SVG 1.1//EN" "http://www.w3.org/Graphics/SVG/1.1/DTD/svg11.dtd">
<!-- Created with Vectornator (http://vectornator.io/) -->
<svg height="100%" stroke-miterlimit="10" style="fill-rule:nonzero;clip-rule:evenodd;stroke-linecap:round;stroke-linejoin:round;" version="1.1" viewBox="0 0 512 512" width="100%" xml:space="preserve" xmlns="http://www.w3.org/2000/svg" xmlns:vectornator="http://vectornator.io" xmlns:xlink="http://www.w3.org/1999/xlink">
<defs/>
<g id="Untitled" vectornator:layerName="Untitled">
<g opacity="1">
<path d="M69 117.2C118.9 103.6 158.5 103.6 208.4 117.2L213.6 96.3C159.5 81.7 115.8 81.7 62.7 96.3L69 117.2Z" fill="#2488ff" fill-rule="nonzero" opacity="1" stroke="none"/>
<path d="M63.8 171.5L69 191.3C118.9 177.7 158.5 177.7 208.4 191.3L214.6 171.5C160.6 156.9 116.9 156.9 63.8 171.5Z" fill="#2488ff" fill-rule="nonzero" opacity="1" stroke="none"/>
<path d="M63.8 245.5L69 265.3C118.9 251.7 158.5 251.7 208.4 265.3L214.6 245.5C160.6 230.9 116.9 230.9 63.8 245.5Z" fill="#2488ff" fill-rule="nonzero" opacity="1" stroke="none"/>
<path d="M62.8 319.5L69 339.3C118.9 325.7 158.5 325.7 208.4 339.3L213.6 319.5C159.6 304.9 115.9 304.9 62.8 319.5Z" fill="#2488ff" fill-rule="nonzero" opacity="1" stroke="none"/>
<path d="M296.9 96.4L303.1 117.3C353 103.7 392.6 103.7 442.5 117.3L447.7 96.4C393.6 81.8 349.9 81.8 296.9 96.4Z" fill="#2488ff" fill-rule="nonzero" opacity="1" stroke="none"/>
<path d="M296.9 170.4L302.1 191.3C353.1 177.7 391.6 177.7 442.5 191.3L447.7 170.4C393.6 155.8 349.9 155.8 296.9 170.4Z" fill="#2488ff" fill-rule="nonzero" opacity="1" stroke="none"/>
<path d="M296.9 244.4L303.1 265.3C353 251.7 392.6 251.7 442.5 265.3L447.7 244.4C393.6 229.8 349.9 229.8 296.9 244.4Z" fill="#2488ff" fill-rule="nonzero" opacity="1" stroke="none"/>
<path d="M493.5 38C444.6 20.3 408.2 13 372.8 13C338.3 13 302.8 19.9 255.8 36.7C208.7 19.9 173.2 13 138.8 13C103.4 13 67 20.3 18.1 38C13.9 39 10.8 43.2 10.8 47.4L10.8 418.5C10.8 428.4 21.2 428.9 24.3 427.9C70.1 411.2 104.4 403.9 137.7 403.9C171 403.9 204.3 411.2 251.1 427.9C254.3 428.7 256.7 428.4 258.5 427.7C270 423.6 290.2 417 303.5 412.9C306.6 417.9 310.3 422.6 314.6 426.9C342.5 454.8 386.1 457.2 416.7 434.1L481.5 499L496.2 484.3L431.5 419.4C433.5 416.8 435.3 414.2 436.9 411.4C452.6 416.1 473.3 423 487.3 427.9C490.4 428.9 500.8 428.9 500.8 418.5L500.8 47.4C500.8 43.2 497.7 39 493.5 38ZM244.9 403.9C202.2 389.3 170 383 137.7 383C105.4 383 72.2 389.3 30.5 403.9L30.5 54.7C73.2 39 105.5 32.8 137.7 32.8C169.9 32.8 202.2 39.1 244.9 54.7L244.9 403.9ZM329.3 412.2C307 389.8 307 353.5 329.3 331.1C351.6 308.7 387.9 308.7 410.2 331.1C432.5 353.5 432.5 389.8 410.2 412.2C387.8 434.6 351.6 434.6 329.3 412.2ZM480 403.9C471.3 401 455.9 396.3 444.8 392.9C452.2 366.5 445.6 337 424.9 316.3C394.4 285.8 345 285.8 314.6 316.3C293.5 337.4 287 367.6 295.1 394.3C286.4 397.1 273.5 401.2 264.7 404L264.7 55C308.7 37.9 342.9 32.7 373.9 32.7C405.1 32.7 437.4 39 480 54.6L480 403.9Z" fill="#2488ff" fill-rule="nonzero" opacity="1" stroke="none"/>
</g>
</g>
</svg>
