<?xml version="1.0" encoding="UTF-8" standalone="no"?>
<!DOCTYPE svg PUBLIC "-//W3C//DTD SVG 1.1//EN" "http://www.w3.org/Graphics/SVG/1.1/DTD/svg11.dtd">
<!-- Created with Vectornator (http://vectornator.io/) -->
<svg height="100%" stroke-miterlimit="10" style="fill-rule:nonzero;clip-rule:evenodd;stroke-linecap:round;stroke-linejoin:round;" version="1.1" viewBox="0 0 512 512" width="100%" xml:space="preserve" xmlns="http://www.w3.org/2000/svg" xmlns:vectornator="http://vectornator.io" xmlns:xlink="http://www.w3.org/1999/xlink">
<defs/>
<clipPath id="ArtboardFrame">
<rect height="512" width="512" x="0" y="0"/>
</clipPath>
<g clip-path="url(#ArtboardFrame)" id="Untitled" vectornator:layerName="Untitled">
<path d="M508.08 243.077C508.303 243.407 508.494 243.752 508.698 244.092C508.884 244.402 509.08 244.706 509.25 245.028C509.436 245.377 509.596 245.737 509.764 246.094C509.921 246.426 510.085 246.752 510.228 247.092C510.372 247.441 510.489 247.798 510.616 248.152C510.745 248.514 510.884 248.87 510.996 249.241C511.103 249.599 511.184 249.962 511.275 250.326C511.368 250.7 511.474 251.069 511.55 251.451C511.634 251.873 511.683 252.3 511.744 252.726C511.791 253.052 511.853 253.371 511.887 253.702C512.037 255.232 512.037 256.772 511.887 258.302C511.853 258.632 511.791 258.952 511.744 259.278C511.683 259.703 511.634 260.131 511.55 260.553C511.474 260.935 511.37 261.302 511.275 261.678C511.183 262.04 511.104 262.404 510.996 262.763C510.884 263.132 510.745 263.489 510.616 263.852C510.489 264.206 510.372 264.563 510.228 264.912C510.085 265.252 509.921 265.578 509.764 265.91C509.596 266.265 509.437 266.625 509.25 266.974C509.079 267.295 508.884 267.599 508.698 267.91C508.495 268.25 508.304 268.594 508.08 268.925C507.846 269.276 507.587 269.605 507.335 269.94C507.13 270.212 506.942 270.489 506.727 270.753C506.238 271.349 505.725 271.921 505.179 272.464L388.819 388.824C384.275 393.368 378.318 395.641 372.364 395.641C366.408 395.641 360.451 393.37 355.909 388.824C346.82 379.735 346.82 365 355.909 355.912L432.545 279.276L23.2725 279.276C10.4195 279.276-0.000500076 268.856-0.000500076 256.003C-0.000500076 243.15 10.4195 232.73 23.2725 232.73L432.543 232.73L355.906 156.094C346.817 147.005 346.817 132.27 355.906 123.182C364.993 114.093 379.73 114.093 388.818 123.182L505.179 239.538C505.725 240.081 506.239 240.654 506.727 241.249C506.943 241.513 507.13 241.79 507.335 242.062C507.587 242.397 507.846 242.726 508.08 243.077Z" fill="#3d6deb" fill-rule="nonzero" opacity="1" stroke="none"/>
</g>
</svg>
