<?xml version="1.0" encoding="UTF-8" standalone="no"?>
<!DOCTYPE svg PUBLIC "-//W3C//DTD SVG 1.1//EN" "http://www.w3.org/Graphics/SVG/1.1/DTD/svg11.dtd">
<!-- Created with Vectornator (http://vectornator.io/) -->
<svg height="100%" stroke-miterlimit="10" style="fill-rule:nonzero;clip-rule:evenodd;stroke-linecap:round;stroke-linejoin:round;" version="1.1" viewBox="0 0 60 60" width="100%" xml:space="preserve" xmlns="http://www.w3.org/2000/svg" xmlns:vectornator="http://vectornator.io" xmlns:xlink="http://www.w3.org/1999/xlink">
<defs/>
<g id="Untitled" vectornator:layerName="Untitled">
<path d="M53 20L53 13L46 13L46 6L0 6L0 40L7 40L7 47L14 47L14 54L60 54L60 20L53 20ZM2 38L2 8L44 8L44 13L7 13L7 38L2 38ZM9 45L9 40L9 15L46 15L51 15L51 20L14 20L14 45L9 45ZM58 52L16 52L16 47L16 22L53 22L58 22L58 52Z" fill="#3d6deb" fill-rule="nonzero" opacity="1" stroke="none"/>
</g>
</svg>
