<?xml version="1.0" encoding="iso-8859-1"?>
<!-- Generator: Adobe Illustrator 19.0.0, SVG Export Plug-In . SVG Version: 6.00 Build 0)  -->
<svg version="1.1" id="Layer_1" xmlns="http://www.w3.org/2000/svg" xmlns:xlink="http://www.w3.org/1999/xlink" x="0px" y="0px"
	 viewBox="0 0 512 512" style="enable-background:new 0 0 512 512;" xml:space="preserve">
<path style="fill:#F9B233;" d="M336.035,392.17h-160.07V104.045c0-44.202,35.833-80.035,80.035-80.035l0,0
	c44.201,0,80.035,35.833,80.035,80.035V392.17z"/>
<path style="fill:#FAC15C;" d="M256,24.011L256,24.011c-44.201,0-80.035,35.833-80.035,80.035V392.17H256V24.011z"/>
<polygon style="fill:#1D71B8;" points="304.02,448.195 207.98,448.195 207.98,232.1 256,136.059 304.02,232.1 "/>
<polyline style="fill:#77AAD4;" points="256,136.059 207.98,232.1 207.98,448.195 255.944,448.195 256,136.059 "/>
<g>
	<polygon style="fill:#FFFFFF;" points="256,136.059 231.878,184.302 280.011,184.08 	"/>
	<path style="fill:#FFFFFF;" d="M280.011,256.111h-48.02v-16.007c0-13.26,10.749-24.011,24.011-24.011l0,0
		c13.26,0,24.011,10.75,24.011,24.011v16.007H280.011z"/>
</g>
<path style="fill:#FAC15C;" d="M175.965,400.173H95.931v-208.09c0-22.101,17.916-40.017,40.016-40.017h0.001
	c22.101,0,40.017,17.916,40.017,40.017L175.965,400.173L175.965,400.173z"/>
<rect x="95.936" y="400.169" style="fill:#77AAD4;" width="80.032" height="80.032"/>
<path style="fill:#F9B233;" d="M416.069,400.173h-80.035v-208.09c0-22.101,17.917-40.017,40.017-40.017h0.001
	c22.101,0,40.016,17.916,40.016,40.017v208.09H416.069z"/>
<rect x="336.032" y="400.169" style="fill:#1D71B8;" width="80.032" height="80.032"/>
<g>
	<polygon style="fill:#FFFFFF;" points="207.979,263.892 159.959,448.195 207.98,448.195 	"/>
	<polygon style="fill:#FFFFFF;" points="304.02,268.282 352.041,448.195 304.02,448.195 	"/>
</g>
<g>
	<path style="fill:#1D1D1B;" d="M287.792,263.892h-63.582v-23.788c0-17.529,14.261-31.792,31.792-31.792
		s31.792,14.262,31.792,31.792v23.788H287.792z M239.771,248.33h32.458v-8.225c0-8.948-7.281-16.229-16.229-16.229
		c-8.948,0-16.229,7.281-16.229,16.229v8.225H239.771z"/>
	<rect x="207.975" y="464.421" style="fill:#1D1D1B;" width="96.04" height="15.562"/>
	<rect x="231.993" y="488.439" style="fill:#1D1D1B;" width="48.015" height="15.562"/>
	<rect x="87.927" y="496.438" style="fill:#1D1D1B;" width="96.04" height="15.562"/>
	<rect x="328.033" y="496.438" style="fill:#1D1D1B;" width="96.04" height="15.562"/>
	<rect x="215.984" y="88.259" style="fill:#1D1D1B;" width="16.007" height="15.562"/>
	<rect x="248.001" y="88.259" style="fill:#1D1D1B;" width="16.006" height="15.562"/>
	<rect x="280.007" y="88.259" style="fill:#1D1D1B;" width="16.007" height="15.562"/>
	<rect x="127.943" y="184.299" style="fill:#1D1D1B;" width="16.007" height="15.562"/>
	<path style="fill:#1D1D1B;" d="M376.052,144.284c-12.41,0-23.73,4.757-32.236,12.541v-52.781c0-45.798-35.247-83.498-80.035-87.452
		V0h-15.562v16.594c-44.788,3.954-80.035,41.654-80.035,87.452v52.781c-8.506-7.783-19.824-12.541-32.236-12.541
		c-26.356,0-47.799,21.442-47.799,47.798v295.906h95.598v-32.014h144.506v32.014h95.598V192.084
		C423.851,165.727,402.408,144.284,376.052,144.284z M168.184,472.427h-64.473v-64.473h58.703l-12.527,48.021h18.297v16.451H168.184
		z M168.184,385.837l-1.71,6.556h-62.763V199.865h8.226v-15.562h-7.271c3.49-14.028,16.189-24.455,31.281-24.455
		c15.092,0,27.79,10.428,31.28,24.456h-7.271v15.562h8.226V385.837z M200.198,440.413H170.03l30.168-115.646V440.413z
		 M200.198,263.117l-16.45,63.063V192.084v-88.038c0-0.075,0.005-0.147,0.006-0.222h16.223V88.261h-14.471
		c7.223-32.271,36.077-56.468,70.495-56.468s63.272,24.196,70.495,56.468h-14.472v15.562h16.223
		c0.001,0.075,0.006,0.148,0.006,0.222v88.038v134.097l-16.45-63.063v-23.014c0-27.929-44.153-100.015-49.187-108.143L256,121.282
		l-6.615,10.679c-5.035,8.127-49.187,80.212-49.187,108.143L200.198,263.117L200.198,263.117z M270.201,176.299h-28.403
		c5.268-9.737,10.37-18.605,14.201-25.119C259.83,157.691,264.929,166.557,270.201,176.299z M296.24,288.348h-16.23v15.562h16.23
		v16.451h-16.23v15.562h16.23v16.451h-16.23v15.562h16.23v12.302h-16.23v15.562h16.23v44.612h-80.48v-44.612h16.23v-15.562h-16.23
		v-13.265h16.23v-15.562h-16.23V334.96h16.23v-15.562h-16.23v-16.451h16.23v-15.562h-16.23v-47.279
		c0-4.955,2.465-17.618,17.895-48.243h44.691c15.428,30.624,17.895,43.287,17.895,48.243V288.348z M311.802,440.413V324.768
		l30.168,115.646H311.802z M408.289,472.427h-64.474v-16.451h18.297l-12.527-48.021h58.703L408.289,472.427L408.289,472.427z
		 M408.289,392.392h-62.763l-1.71-6.556V199.865h8.226v-15.562h-7.271c3.49-14.028,16.189-24.455,31.28-24.455
		c15.093,0,27.791,10.428,31.281,24.456h-7.271v15.562h8.226L408.289,392.392L408.289,392.392z"/>
	<rect x="368.049" y="184.299" style="fill:#1D1D1B;" width="16.007" height="15.562"/>
</g>
<g>
</g>
<g>
</g>
<g>
</g>
<g>
</g>
<g>
</g>
<g>
</g>
<g>
</g>
<g>
</g>
<g>
</g>
<g>
</g>
<g>
</g>
<g>
</g>
<g>
</g>
<g>
</g>
<g>
</g>
</svg>
