<?xml version="1.0" encoding="iso-8859-1"?>
<!-- Generator: Adobe Illustrator 19.0.0, SVG Export Plug-In . SVG Version: 6.00 Build 0)  -->
<svg version="1.1" id="Layer_1" xmlns="http://www.w3.org/2000/svg" xmlns:xlink="http://www.w3.org/1999/xlink" x="0px" y="0px"
	 viewBox="0 0 512 512" style="enable-background:new 0 0 512 512;" xml:space="preserve">
<g>
	<path style="fill:#009FD3;" d="M43.444,133.28L43.444,133.28c67.495-116.906,218.37-157.335,335.275-89.838l0,0
		c116.907,67.497,157.334,218.368,89.838,335.278l0,0c-67.496,116.905-218.368,157.331-335.277,89.835l0,0
		C16.374,401.06-24.052,250.186,43.444,133.28z"/>
	<path style="fill:#00E588;" d="M366.378,171.094L366.378,171.094c9.343,9.338,9.341,24.621,0.003,33.96L230.53,340.904
		l-0.002,0.002v0.003l-0.44,0.429l0,0l-0.452,0.415v0.002l-0.459,0.401v0.003l-0.467,0.387v0.002l-0.473,0.377l0,0l-0.481,0.363
		l-0.489,0.347l-0.497,0.335v0.002l-0.502,0.321l-0.508,0.308l-0.514,0.292l0,0l-0.519,0.281v0.002l-0.527,0.266l0,0l-0.528,0.253
		l-0.537,0.237v0.002l-0.54,0.226l-0.543,0.21v0.002l-0.552,0.197v0.002l-0.553,0.182l0,0l-0.555,0.171l-0.558,0.156l-0.562,0.144
		v0.002l-0.565,0.128l-0.568,0.117l-0.569,0.101v0.003l-0.569,0.086l-0.575,0.076l-0.575,0.061l0,0l-0.573,0.048v0.002l-0.577,0.032
		l0,0l-0.576,0.019l-0.577,0.009l-0.577-0.009l-0.575-0.019l0,0l-0.577-0.032v-0.002l-0.575-0.048l0,0l-0.573-0.061l-0.573-0.076
		l-0.571-0.086v-0.003l-0.571-0.101l-0.567-0.117l-0.567-0.128v-0.002l-0.559-0.144l-0.559-0.156l-0.556-0.171l0,0l-0.549-0.182
		v-0.002l-0.553-0.197v-0.002l-0.542-0.21l-0.542-0.226v-0.002l-0.534-0.237l-0.531-0.253l0,0l-0.525-0.268l-0.519-0.281l0,0
		l-0.514-0.292l-0.509-0.308l-0.504-0.323l-0.495-0.335l-0.489-0.347l-0.482-0.363l-0.473-0.379l-0.467-0.391l-0.46-0.403
		l-0.449-0.415l-0.441-0.432l-50.944-50.944c-9.343-9.343-9.343-24.622,0-33.963l0,0c9.34-9.342,24.621-9.342,33.961-0.002
		l33.961,33.965l118.869-118.868C341.757,161.754,357.039,161.754,366.378,171.094L366.378,171.094z"/>
</g>
<g>
	<path style="fill:#000003;" d="M503.096,189.79c-17.755-66.264-60.031-121.519-119.042-155.589
		C345.39,11.877,301.351,0.078,256.703,0.078c-91.708,0-176.966,48.995-222.501,127.866c-34.068,59.01-43.053,128-25.297,194.265
		c17.755,66.264,60.03,121.52,119.041,155.59c8.211,4.74,16.664,9.001,25.315,12.78h-3.97c-5.893,0-10.671,4.779-10.671,10.671
		c0,5.893,4.779,10.671,10.671,10.671h105.883c0.042,0,0.083,0.001,0.126,0.001c0.042,0,0.083-0.001,0.125-0.001h107.289
		c5.893,0,10.671-4.779,10.671-10.671c0-5.893-4.779-10.671-10.671-10.671h-4.756c49.665-21.555,92.117-58.5,119.842-106.521
		C511.867,325.045,520.852,256.054,503.096,189.79z M459.315,373.385c-41.715,72.252-119.834,117.148-203.893,117.192h-0.251
		c-40.866-0.021-81.167-10.83-116.556-31.263C26.507,394.588-12.041,250.723,52.685,138.616
		C94.421,66.327,172.596,21.421,256.704,21.421c40.907,0,81.256,10.811,116.68,31.264
		C485.49,117.411,524.038,261.275,459.315,373.385z"/>
	<path style="fill:#000003;" d="M206.286,441.538c-66.074-17.707-118.12-69.751-135.826-135.823
		c-1.525-5.694-7.38-9.074-13.069-7.546c-5.693,1.526-9.072,7.377-7.546,13.069c19.673,73.415,77.5,131.242,150.918,150.916
		c0.924,0.249,1.854,0.367,2.768,0.367c4.711,0,9.024-3.145,10.301-7.913C215.358,448.915,211.979,443.064,206.286,441.538z"/>
	<path style="fill:#000003;" d="M311.237,49.843c-5.691-1.525-11.543,1.854-13.069,7.546c-1.526,5.692,1.853,11.543,7.546,13.069
		c66.076,17.707,118.12,69.751,135.823,135.822c1.277,4.768,5.589,7.913,10.301,7.913c0.913,0,1.844-0.118,2.768-0.367
		c5.693-1.526,9.072-7.376,7.546-13.069C442.483,127.344,384.656,69.517,311.237,49.843z"/>
	<path style="fill:#000003;" d="M249.62,447.977c-2.665-0.09-5.354-0.236-7.99-0.433c-5.854-0.449-11,3.965-11.44,9.843
		c-0.441,5.877,3.965,10.999,9.843,11.44c2.927,0.22,5.911,0.381,8.868,0.481c0.122,0.004,0.244,0.006,0.366,0.006
		c5.727,0,10.465-4.544,10.659-10.312C260.125,453.112,255.51,448.176,249.62,447.977z"/>
	<path style="fill:#000003;" d="M262.373,64.021c2.657,0.091,5.352,0.237,8.005,0.433c0.269,0.02,0.536,0.029,0.801,0.029
		c5.534,0,10.214-4.273,10.631-9.882c0.436-5.878-3.975-10.996-9.852-11.432c-2.937-0.218-5.916-0.38-8.857-0.479
		c-5.882-0.22-10.829,4.412-11.029,10.301C251.871,58.882,256.484,63.82,262.373,64.021z"/>
	<path style="fill:#000003;" d="M349.398,153.417c-9.284,0-17.994,3.598-24.527,10.131L213.548,274.871l-26.417-26.419
		c-6.532-6.532-15.242-10.129-24.525-10.129c-9.284,0-17.995,3.598-24.526,10.13c-6.534,6.534-10.133,15.244-10.133,24.527
		s3.598,17.994,10.132,24.528l51.017,51.016l0.441,0.432c0.076,0.075,0.155,0.149,0.234,0.222l0.449,0.415
		c0.065,0.062,0.133,0.122,0.202,0.181l0.46,0.403c0.063,0.054,0.125,0.109,0.189,0.161l0.467,0.391
		c0.062,0.051,0.123,0.102,0.186,0.153l0.473,0.378c0.083,0.067,0.168,0.131,0.252,0.195l0.482,0.364
		c0.077,0.058,0.156,0.114,0.235,0.171l0.489,0.347c0.067,0.047,0.134,0.094,0.202,0.14l0.495,0.335
		c0.069,0.048,0.141,0.094,0.211,0.14l0.504,0.323c0.076,0.048,0.153,0.096,0.229,0.143l0.509,0.308
		c0.085,0.052,0.172,0.102,0.258,0.153l0.514,0.292c0.068,0.038,0.136,0.076,0.204,0.114l0.519,0.281
		c0.075,0.039,0.149,0.079,0.224,0.117l0.525,0.268c0.085,0.043,0.171,0.085,0.257,0.126l0.531,0.253
		c0.077,0.037,0.156,0.073,0.235,0.109l0.534,0.239c0.081,0.036,0.163,0.072,0.245,0.107l0.542,0.226
		c0.07,0.029,0.142,0.059,0.212,0.086l0.542,0.212c0.088,0.033,0.175,0.067,0.263,0.099l0.553,0.201
		c0.089,0.031,0.177,0.063,0.266,0.092l0.55,0.182c0.077,0.026,0.156,0.051,0.235,0.076l0.556,0.171
		c0.088,0.026,0.175,0.052,0.264,0.077l0.56,0.156c0.059,0.016,0.118,0.032,0.178,0.048l0.56,0.146
		c0.111,0.029,0.225,0.057,0.337,0.082l0.567,0.128c0.062,0.014,0.123,0.027,0.185,0.039l0.567,0.117
		c0.104,0.022,0.206,0.042,0.309,0.06l0.313,0.055c0.172,0.035,0.345,0.066,0.521,0.093l0.571,0.086
		c0.065,0.01,0.129,0.019,0.194,0.027l0.573,0.076c0.095,0.013,0.19,0.023,0.285,0.034l0.573,0.061
		c0.065,0.006,0.129,0.013,0.195,0.018l0.575,0.05c0.11,0.011,0.219,0.018,0.329,0.023l0.577,0.032
		c0.076,0.004,0.153,0.007,0.228,0.011l0.575,0.02c0.072,0.002,0.143,0.004,0.213,0.005l0.577,0.009
		c0.051,0.001,0.104,0.001,0.155,0.001s0.104,0,0.155-0.001l0.577-0.009c0.07-0.001,0.142-0.003,0.212-0.005l0.576-0.02
		c0.09-0.003,0.178-0.007,0.268-0.013l0.577-0.034c0.084-0.005,0.17-0.012,0.255-0.019l0.573-0.048
		c0.075-0.006,0.15-0.014,0.225-0.021l0.575-0.061c0.095-0.011,0.19-0.021,0.284-0.033l0.575-0.076
		c0.068-0.01,0.137-0.019,0.205-0.029l0.569-0.086c0.175-0.027,0.349-0.058,0.521-0.093l0.312-0.056
		c0.099-0.018,0.2-0.036,0.298-0.058l0.568-0.117c0.078-0.017,0.156-0.033,0.233-0.051l0.565-0.13
		c0.082-0.019,0.163-0.038,0.244-0.06l0.562-0.144c0.077-0.02,0.156-0.041,0.233-0.063l0.559-0.156
		c0.091-0.025,0.179-0.051,0.269-0.078l0.555-0.172c0.079-0.023,0.157-0.049,0.237-0.075l0.553-0.185
		c0.086-0.029,0.174-0.06,0.26-0.091l0.552-0.201c0.071-0.027,0.144-0.054,0.217-0.081l0.543-0.21
		c0.099-0.039,0.2-0.079,0.297-0.121l0.54-0.228c0.05-0.021,0.1-0.043,0.149-0.064l0.537-0.237c0.105-0.046,0.206-0.093,0.308-0.142
		l0.528-0.253c0.074-0.035,0.147-0.072,0.22-0.109l0.527-0.268c0.08-0.041,0.16-0.082,0.24-0.125l0.519-0.281
		c0.068-0.037,0.137-0.075,0.204-0.114l0.515-0.292c0.09-0.051,0.178-0.103,0.266-0.157l0.509-0.308
		c0.079-0.048,0.16-0.098,0.239-0.149l0.502-0.323c0.059-0.038,0.117-0.077,0.176-0.115l0.497-0.335
		c0.074-0.05,0.147-0.101,0.22-0.153l0.489-0.347c0.082-0.059,0.162-0.117,0.243-0.178l0.481-0.363
		c0.082-0.062,0.163-0.125,0.244-0.189l0.473-0.378c0.051-0.042,0.102-0.083,0.154-0.125l0.467-0.387
		c0.134-0.112,0.267-0.227,0.396-0.346l0.292-0.257c0.055-0.049,0.111-0.098,0.164-0.148l0.452-0.415
		c0.081-0.075,0.162-0.152,0.242-0.229l0.44-0.429c0.083-0.08,0.164-0.162,0.244-0.245l135.701-135.699
		c6.531-6.533,10.128-15.243,10.127-24.526c0-9.284-3.598-17.995-10.13-24.525C367.392,157.015,358.682,153.417,349.398,153.417z
		 M358.836,197.509L222.923,333.421l-0.757,0.691l-1.815,1.29l-2.064,0.985l-2.573,0.68l-2.166,0.173l-0.317-0.004l-2.261-0.242
		l-2.177-0.615l-2.316-1.14l-1.879-1.418l-51.427-51.405c-2.503-2.504-3.882-5.853-3.882-9.437c0-3.581,1.379-6.932,3.883-9.436
		c2.501-2.502,5.851-3.88,9.435-3.88c3.582,0,6.933,1.378,9.435,3.878l33.961,33.965c2.001,2.002,4.716,3.127,7.546,3.127
		c2.83,0,5.544-1.125,7.546-3.126l118.869-118.869c2.502-2.502,5.852-3.88,9.436-3.88c3.582,0,6.932,1.378,9.437,3.882
		c2.501,2.501,3.879,5.85,3.879,9.433C362.712,191.658,361.336,195.009,358.836,197.509z"/>
</g>
<g>
</g>
<g>
</g>
<g>
</g>
<g>
</g>
<g>
</g>
<g>
</g>
<g>
</g>
<g>
</g>
<g>
</g>
<g>
</g>
<g>
</g>
<g>
</g>
<g>
</g>
<g>
</g>
<g>
</g>
</svg>
