<?xml version="1.0" encoding="iso-8859-1"?>
<!-- Generator: Adobe Illustrator 19.0.0, SVG Export Plug-In . SVG Version: 6.00 Build 0)  -->
<svg version="1.1" id="Layer_1" xmlns="http://www.w3.org/2000/svg" xmlns:xlink="http://www.w3.org/1999/xlink" x="0px" y="0px"
	 viewBox="0 0 512 512" style="enable-background:new 0 0 512 512;" xml:space="preserve">
<circle style="fill:#F4BD64;" cx="256.22" cy="256.231" r="83.885"/>
<path style="fill:#DDA758;" d="M256.217,340.11c-46.322,0-83.874-37.563-83.874-83.885s37.551-83.874,83.874-83.874
	c-23.49,0-42.542,37.551-42.542,83.874S232.728,340.11,256.217,340.11z"/>
<circle style="fill:#4EB79B;" cx="431.136" cy="81.315" r="38.335"/>
<path style="fill:#40A084;" d="M431.129,119.644c-21.161,0-38.323-17.162-38.323-38.323c0-21.173,17.162-38.335,38.323-38.335
	c-7.768,0-14.073,17.162-14.073,38.335C417.056,102.482,423.361,119.644,431.129,119.644z"/>
<circle style="fill:#E88158;" cx="256.22" cy="416.982" r="27.708"/>
<path style="fill:#D37250;" d="M256.218,444.696c-15.306,0-27.708-12.413-27.708-27.72s12.402-27.708,27.708-27.708
	c-4.679,0-8.472,12.402-8.472,27.708S251.539,444.696,256.218,444.696z"/>
<path d="M255.999,348.524c51.018,0,92.524-41.506,92.524-92.524c0-7.05-0.798-14.078-2.371-20.888
	c-1.074-4.652-5.719-7.556-10.367-6.478c-4.652,1.074-7.552,5.716-6.478,10.367c1.278,5.537,1.927,11.256,1.927,16.998
	c0,41.485-33.75,75.235-75.235,75.235s-75.235-33.75-75.235-75.235s33.75-75.235,75.235-75.235
	c25.033,0,48.356,12.403,62.391,33.177c2.672,3.956,8.045,4.995,12.002,2.324c3.957-2.673,4.996-8.046,2.325-12.003
	c-17.254-25.539-45.934-40.787-76.717-40.787c-51.018,0-92.524,41.506-92.524,92.524S204.981,348.524,255.999,348.524z"/>
<path d="M187.014,391.606c-11.039-5.628-21.393-12.618-30.774-20.775c-3.601-3.132-9.062-2.751-12.194,0.851
	c-3.134,3.603-2.752,9.063,0.851,12.195c10.444,9.081,21.972,16.863,34.265,23.131c1.257,0.642,2.598,0.945,3.919,0.945
	c3.145,0,6.18-1.724,7.708-4.72C192.958,398.98,191.267,393.774,187.014,391.606z"/>
<path d="M109.962,298.695c-1.338-4.583-6.139-7.214-10.72-5.877c-4.584,1.337-7.215,6.136-5.878,10.72
	c3.87,13.263,9.384,26.046,16.386,37.994c1.609,2.745,4.497,4.275,7.466,4.275c1.485,0,2.99-0.383,4.363-1.187
	c4.119-2.414,5.501-7.71,3.088-11.829C118.382,322.067,113.435,310.596,109.962,298.695z"/>
<path d="M276.937,96.363c-0.869,4.694,2.234,9.205,6.927,10.074c12.204,2.258,24.111,6.023,35.391,11.189
	c1.168,0.535,2.389,0.787,3.594,0.787c3.278,0,6.412-1.873,7.865-5.047c1.988-4.341,0.08-9.471-4.26-11.458
	c-12.572-5.758-25.843-9.954-39.444-12.47C282.314,88.57,277.806,91.669,276.937,96.363z"/>
<path d="M187.322,110.355c1.367,3.352,4.598,5.381,8.007,5.381c1.087,0,2.192-0.206,3.261-0.643
	c11.486-4.684,23.546-7.944,35.849-9.689c4.728-0.671,8.015-5.046,7.345-9.773c-0.671-4.728-5.052-8.019-9.773-7.345
	c-13.71,1.944-27.151,5.577-39.95,10.799C187.641,100.889,185.519,105.935,187.322,110.355z"/>
<path d="M119.512,170.598c1.513,1.066,3.249,1.578,4.97,1.578c2.717,0,5.392-1.277,7.076-3.668
	c7.145-10.144,15.53-19.411,24.921-27.543c3.61-3.126,4.002-8.584,0.877-12.194c-3.127-3.61-8.587-4.001-12.193-0.876
	c-10.454,9.052-19.786,19.367-27.739,30.659C114.673,162.456,115.608,167.849,119.512,170.598z"/>
<path d="M95.027,257.909c0.121,0.005,0.243,0.007,0.363,0.007c4.609,0,8.438-3.64,8.629-8.288
	c0.514-12.448,2.544-24.775,6.034-36.637c1.347-4.58-1.272-9.385-5.853-10.733c-4.588-1.35-9.387,1.274-10.734,5.853
	c-3.888,13.217-6.149,26.944-6.721,40.804C86.551,253.686,90.257,257.712,95.027,257.909z"/>
<path d="M350.622,375.104c-9.735,7.744-20.389,14.275-31.668,19.41c-4.346,1.978-6.264,7.105-4.286,11.45
	c1.45,3.183,4.588,5.064,7.873,5.064c1.198,0,2.416-0.25,3.576-0.779c12.562-5.719,24.428-12.991,35.268-21.613
	c3.736-2.973,4.356-8.41,1.383-12.147C359.797,372.75,354.356,372.133,350.622,375.104z"/>
<path d="M386.39,350.438c1.451,0.938,3.077,1.387,4.685,1.387c2.835,0,5.612-1.393,7.267-3.951
	c7.521-11.631,13.591-24.155,18.043-37.223c1.539-4.519-0.877-9.43-5.396-10.97c-4.509-1.535-9.43,0.876-10.97,5.395
	c-3.995,11.728-9.443,22.968-16.195,33.409C381.232,342.494,382.382,347.845,386.39,350.438z"/>
<path d="M372.092,132.639c-3.475-3.271-8.948-3.109-12.22,0.369c-3.272,3.476-3.107,8.948,0.369,12.22
	c9.049,8.519,17.041,18.128,23.756,28.56c1.653,2.567,4.436,3.966,7.276,3.966c1.603,0,3.224-0.445,4.671-1.377
	c4.014-2.584,5.174-7.933,2.59-11.948C391.06,152.817,382.164,142.121,372.092,132.639z"/>
<path d="M409.914,208.658c-4.633,1.153-7.455,5.842-6.302,10.476c2.983,11.989,4.495,24.393,4.495,36.867v0.347
	c0,4.774,3.869,8.644,8.644,8.644c4.775,0,8.644-3.87,8.644-8.644v-0.347c0-13.879-1.685-27.686-5.007-41.04
	C419.238,210.327,414.539,207.508,409.914,208.658z"/>
<path d="M98.59,73.832c1.939,0,3.889-0.649,5.499-1.979c9.185-7.585,18.982-14.52,29.118-20.615
	c4.092-2.461,5.413-7.772,2.954-11.862c-2.461-4.092-7.771-5.414-11.864-2.954c-10.869,6.535-21.371,13.972-31.215,22.101
	c-3.681,3.041-4.202,8.489-1.162,12.17C93.629,72.762,96.1,73.832,98.59,73.832z"/>
<path d="M339.485,32.307c11.136,4.146,22.04,9.164,32.405,14.917c1.329,0.738,2.767,1.088,4.187,1.088
	c3.039,0,5.987-1.606,7.566-4.451c2.317-4.175,0.811-9.436-3.363-11.753c-11.121-6.172-22.818-11.557-34.764-16.004
	c-4.477-1.669-9.451,0.612-11.118,5.086C332.733,25.665,335.01,30.641,339.485,32.307z"/>
<path d="M173.285,31.455c0.958,0,1.933-0.16,2.887-0.499c11.177-3.961,22.757-7.108,34.418-9.357
	c4.688-0.904,7.756-5.436,6.852-10.124c-0.904-4.688-5.445-7.762-10.123-6.852c-12.51,2.41-24.933,5.787-36.922,10.037
	c-4.5,1.595-6.856,6.535-5.26,11.035C166.394,29.241,169.727,31.455,173.285,31.455z"/>
<path d="M11.189,219.497c0.53,0.097,1.057,0.144,1.577,0.144c4.088,0,7.723-2.914,8.491-7.079
	c2.153-11.686,5.204-23.297,9.065-34.511c1.554-4.515-0.845-9.434-5.36-10.988c-4.514-1.554-9.434,0.844-10.988,5.358
	c-4.14,12.026-7.411,24.476-9.721,37.006C3.389,214.124,6.495,218.631,11.189,219.497z"/>
<path d="M257.935,17.289c11.873,0.1,23.838,1.095,35.564,2.954c0.458,0.073,0.914,0.107,1.363,0.107
	c4.178,0,7.853-3.035,8.527-7.292c0.747-4.715-2.469-9.145-7.184-9.891C283.635,1.173,270.808,0.108,258.081,0
	c-0.024,0-0.05,0-0.074,0c-4.739,0-8.603,3.822-8.643,8.572C249.323,13.346,253.16,17.247,257.935,17.289z"/>
<path d="M508.541,213.809c-0.784-4.709-5.229-7.894-9.946-7.109c-4.709,0.783-7.893,5.235-7.109,9.945
	c1.944,11.694,3.023,23.65,3.207,35.535c0.073,4.729,3.928,8.511,8.641,8.511c0.045,0,0.09,0,0.136-0.001
	c4.774-0.074,8.583-4.003,8.51-8.777C511.782,239.168,510.625,226.349,508.541,213.809z"/>
<path d="M407.814,440.227c-9.187,7.578-18.988,14.509-29.127,20.6c-4.093,2.457-5.418,7.768-2.96,11.861
	c1.622,2.699,4.484,4.194,7.419,4.194c1.514,0,3.05-0.399,4.442-1.234c10.875-6.532,21.382-13.961,31.228-22.085
	c3.683-3.038,4.206-8.486,1.168-12.169C416.945,437.711,411.496,437.19,407.814,440.227z"/>
<path d="M253.939,494.712c-11.874-0.107-23.839-1.106-35.562-2.971c-4.709-0.751-9.146,2.464-9.895,7.179
	c-0.749,4.714,2.465,9.145,7.179,9.894c12.568,1.999,25.394,3.07,38.122,3.186c0.025,0,0.053,0,0.078,0
	c4.737,0,8.601-3.819,8.643-8.566C262.548,498.66,258.714,494.755,253.939,494.712z"/>
<path d="M500.789,292.633c-4.691-0.871-9.203,2.234-10.071,6.929c-2.159,11.68-5.214,23.289-9.082,34.506
	c-1.557,4.514,0.84,9.434,5.354,10.991c0.934,0.322,1.884,0.475,2.818,0.475c3.586,0,6.939-2.249,8.172-5.829
	c4.149-12.028,7.425-24.476,9.739-37.001C508.586,298.01,505.483,293.5,500.789,292.633z"/>
<path d="M335.709,481.088c-11.177,3.955-22.759,7.095-34.425,9.338c-4.688,0.901-7.758,5.432-6.857,10.121
	c0.795,4.138,4.417,7.015,8.48,7.015c0.541,0,1.089-0.051,1.64-0.157c12.514-2.405,24.938-5.776,36.928-10.016
	c4.501-1.593,6.859-6.532,5.266-11.033C345.148,481.853,340.21,479.496,335.709,481.088z"/>
<path d="M473.563,374.168c-4.112-2.425-9.412-1.057-11.837,3.058c-6.023,10.218-12.879,20.07-20.379,29.281
	c-3.014,3.702-2.456,9.147,1.246,12.161c1.604,1.306,3.534,1.941,5.452,1.941c2.511,0,5.001-1.088,6.709-3.187
	c8.045-9.883,15.402-20.454,21.865-31.417C479.044,381.892,477.675,376.592,473.563,374.168z"/>
<path d="M20.532,295.481c-1.949-11.695-3.035-23.652-3.225-35.534c-0.075-4.727-3.93-8.506-8.641-8.506
	c-0.046,0-0.093,0-0.141,0.001c-4.774,0.076-8.581,4.009-8.505,8.782c0.204,12.74,1.368,25.559,3.459,38.101
	c0.704,4.228,4.366,7.224,8.516,7.224c0.471,0,0.95-0.039,1.432-0.119C18.137,304.644,21.318,300.191,20.532,295.481z"/>
<path d="M487.134,176.336c1.025,0,2.068-0.183,3.083-0.572c4.459-1.704,6.694-6.7,4.99-11.16
	c-4.542-11.894-10.029-23.539-16.306-34.614c-2.352-4.153-7.628-5.612-11.783-3.258c-4.154,2.354-5.612,7.63-3.257,11.783
	c5.849,10.321,10.962,21.174,15.197,32.259C480.373,174.219,483.653,176.336,487.134,176.336z"/>
<path d="M100.978,437.578c-8.956-7.666-17.447-16.102-25.216-25.051l-0.084-0.098c-3.117-3.616-8.574-4.02-12.192-0.904
	c-3.616,3.118-4.019,8.575-0.902,12.192l0.105,0.121c8.347,9.614,17.448,18.656,27.049,26.874c1.63,1.395,3.627,2.077,5.617,2.077
	c2.439,0,4.862-1.026,6.571-3.023C105.029,446.14,104.605,440.683,100.978,437.578z"/>
<path d="M32.987,341.344c-1.705-4.459-6.705-6.692-11.163-4.985c-4.459,1.706-6.692,6.703-4.985,11.163
	c4.546,11.883,10.038,23.525,16.323,34.604c1.592,2.805,4.516,4.381,7.526,4.381c1.445,0,2.91-0.363,4.258-1.127
	c4.153-2.356,5.608-7.632,3.253-11.784C42.341,363.268,37.224,352.418,32.987,341.344z"/>
<path d="M69.319,93.431c-3.703-3.012-9.149-2.452-12.161,1.253c-8.038,9.885-15.388,20.458-21.847,31.428
	c-2.423,4.114-1.051,9.413,3.062,11.836c1.377,0.811,2.887,1.196,4.379,1.196c2.961,0,5.845-1.523,7.457-4.259
	c6.021-10.225,12.871-20.079,20.364-29.293C73.586,101.887,73.023,96.443,69.319,93.431z"/>
<path d="M172.397,479.649c-11.131-4.149-22.031-9.173-32.397-14.934c-4.171-2.321-9.436-0.816-11.754,3.357
	c-2.318,4.174-0.816,9.436,3.357,11.755c11.12,6.18,22.815,11.571,34.756,16.022c0.995,0.371,2.015,0.546,3.017,0.546
	c3.506,0,6.804-2.15,8.1-5.627C179.145,486.295,176.871,481.317,172.397,479.649z"/>
<path d="M477.885,81.089c0-25.901-21.072-46.974-46.974-46.974c-25.902,0-46.975,21.073-46.975,46.974
	c0,25.902,21.073,46.974,46.975,46.974C456.813,128.063,477.885,106.991,477.885,81.089z M430.911,110.774
	c-16.369,0-29.686-13.317-29.686-29.685s13.317-29.685,29.686-29.685c16.368,0,29.685,13.317,29.685,29.685
	C460.596,97.458,447.279,110.774,430.911,110.774z"/>
<path d="M255.999,380.397c-20.048,0-36.357,16.309-36.357,36.357c0,20.047,16.309,36.356,36.357,36.356s36.357-16.309,36.357-36.356
	C292.357,396.706,276.048,380.397,255.999,380.397z M255.999,435.821c-10.514,0-19.068-8.553-19.068-19.067
	c0-10.515,8.554-19.068,19.068-19.068c10.514,0,19.068,8.553,19.068,19.068C275.068,427.268,266.513,435.821,255.999,435.821z"/>
<g>
</g>
<g>
</g>
<g>
</g>
<g>
</g>
<g>
</g>
<g>
</g>
<g>
</g>
<g>
</g>
<g>
</g>
<g>
</g>
<g>
</g>
<g>
</g>
<g>
</g>
<g>
</g>
<g>
</g>
</svg>
