<?xml version="1.0" encoding="iso-8859-1"?>
<!-- Generator: Adobe Illustrator 19.0.0, SVG Export Plug-In . SVG Version: 6.00 Build 0)  -->
<svg version="1.1" id="Layer_1" xmlns="http://www.w3.org/2000/svg" xmlns:xlink="http://www.w3.org/1999/xlink" x="0px" y="0px"
	 viewBox="0 0 512 512" style="enable-background:new 0 0 512 512;" xml:space="preserve">
<g transform="translate(1 1)">
	<polygon style="fill:#FFFFFF;" points="8.143,8.143 172.714,8.143 172.714,501.857 8.143,501.857 	"/>
	<path style="fill:#0096E6;" d="M181.857,511H-1V-1h182.857V511z M17.286,492.714h146.286V17.286H17.286V492.714z"/>
	<polygon style="fill:#FFFFFF;" points="172.714,8.143 337.286,8.143 337.286,501.857 172.714,501.857 	"/>
	<path style="fill:#0096E6;" d="M346.429,511H163.571V-1h182.857V511z M181.857,492.714h146.286V17.286H181.857V492.714z"/>
	<polygon style="fill:#FFFFFF;" points="337.286,8.143 501.857,8.143 501.857,501.857 337.286,501.857 	"/>
	<path style="fill:#0096E6;" d="M511,511H328.143V-1H511V511z M346.429,492.714h146.286V17.286H346.429V492.714z"/>
	<polygon style="fill:#D0E8F9;" points="44.714,44.714 136.143,44.714 136.143,227.571 44.714,227.571 	"/>
	<path style="fill:#0096E6;" d="M145.286,236.714H35.571V35.571h109.714V236.714z M53.857,218.429H127V53.857H53.857V218.429z"/>
	<polygon style="fill:#D0E8F9;" points="209.286,44.714 300.714,44.714 300.714,227.571 209.286,227.571 	"/>
	<path style="fill:#0096E6;" d="M309.857,236.714H200.143V35.571h109.714V236.714z M218.429,218.429h73.143V53.857h-73.143V218.429z
		"/>
	<polygon style="fill:#D0E8F9;" points="373.857,44.714 465.286,44.714 465.286,227.571 373.857,227.571 	"/>
	<path style="fill:#0096E6;" d="M474.429,236.714H364.714V35.571h109.714V236.714z M383,218.429h73.143V53.857H383V218.429z"/>
	<path style="fill:#D0E8F9;" d="M136.143,410.429c0,25.6-20.114,45.714-45.714,45.714s-45.714-20.114-45.714-45.714
		s20.114-45.714,45.714-45.714S136.143,384.829,136.143,410.429L136.143,410.429z"/>
	<path style="fill:#0096E6;" d="M90.429,465.286c-30.171,0-54.857-24.686-54.857-54.857s24.686-54.857,54.857-54.857
		s54.857,24.686,54.857,54.857S120.6,465.286,90.429,465.286z M90.429,373.857c-20.114,0-36.571,16.457-36.571,36.571
		S70.314,447,90.429,447S127,430.543,127,410.429S110.543,373.857,90.429,373.857z"/>
	<path style="fill:#D0E8F9;" d="M300.714,410.429c0,25.6-20.114,45.714-45.714,45.714s-45.714-20.114-45.714-45.714
		S229.4,364.714,255,364.714S300.714,384.829,300.714,410.429L300.714,410.429z"/>
	<path style="fill:#0096E6;" d="M255,465.286c-30.171,0-54.857-24.686-54.857-54.857s24.686-54.857,54.857-54.857
		s54.857,24.686,54.857,54.857S285.171,465.286,255,465.286z M255,373.857c-20.114,0-36.571,16.457-36.571,36.571
		S234.886,447,255,447s36.571-16.457,36.571-36.571S275.114,373.857,255,373.857z"/>
	<path style="fill:#D0E8F9;" d="M465.286,410.429c0,25.6-20.114,45.714-45.714,45.714c-25.6,0-45.714-20.114-45.714-45.714
		s20.114-45.714,45.714-45.714C445.171,364.714,465.286,384.829,465.286,410.429L465.286,410.429z"/>
	<path style="fill:#0096E6;" d="M419.571,465.286c-30.171,0-54.857-24.686-54.857-54.857s24.686-54.857,54.857-54.857
		s54.857,24.686,54.857,54.857S449.743,465.286,419.571,465.286z M419.571,373.857c-20.114,0-36.571,16.457-36.571,36.571
		S399.457,447,419.571,447s36.571-16.457,36.571-36.571S439.686,373.857,419.571,373.857z"/>
</g>
<g>
</g>
<g>
</g>
<g>
</g>
<g>
</g>
<g>
</g>
<g>
</g>
<g>
</g>
<g>
</g>
<g>
</g>
<g>
</g>
<g>
</g>
<g>
</g>
<g>
</g>
<g>
</g>
<g>
</g>
</svg>
