<?xml version="1.0" encoding="iso-8859-1"?>
<!-- Generator: Adobe Illustrator 19.0.0, SVG Export Plug-In . SVG Version: 6.00 Build 0)  -->
<svg version="1.1" id="Layer_1" xmlns="http://www.w3.org/2000/svg" xmlns:xlink="http://www.w3.org/1999/xlink" x="0px" y="0px"
	 viewBox="0 0 512 512" style="enable-background:new 0 0 512 512;" xml:space="preserve">
<polyline style="fill:#C8CDCE;" points="337.23,479.73 320.539,385.636 191.46,385.636 174.768,479.73 "/>
<polygon style="opacity:0.15;fill:#231F20;enable-background:new    ;" points="191.46,385.636 174.768,479.73 193.685,479.73 
	210.377,385.636 "/>
<g>
	<path style="fill:#DBDDDD;" d="M306.477,478.617h45.22c9.218,0,16.691,7.473,16.691,16.691S360.915,512,351.697,512H160.304
		c-9.218,0-16.691-7.473-16.691-16.691s7.473-16.691,16.691-16.691h120.025"/>
	<path style="fill:#DBDDDD;" d="M511.933,365.207c0,12.658-10.263,22.919-22.919,22.919H22.986
		c-12.659,0-22.919-10.262-22.919-22.919V22.919C0.066,10.262,10.328,0,22.986,0h466.029c12.656,0,22.919,10.262,22.919,22.919
		v342.287H511.933z"/>
</g>
<path style="fill:#698F92;" d="M489.014,0H22.986C10.328,0,0.066,10.262,0.066,22.919v269.529h419.541h25.223h67.103V22.919
	C511.933,10.262,501.671,0,489.014,0z"/>
<circle style="fill:#EAE9E8;" cx="256.367" cy="339.145" r="18.546"/>
<path style="opacity:0.15;fill:#231F20;enable-background:new    ;" d="M18.983,365.207V22.919C18.983,10.262,29.245,0,41.902,0
	H22.986C10.328,0,0.066,10.262,0.066,22.919v342.287c0,12.658,10.262,22.919,22.919,22.919h18.917
	C29.245,388.126,18.983,377.865,18.983,365.207z"/>
<path style="fill:#53CAF9;" d="M477.253,58.526c0-7.374-5.979-13.353-13.353-13.353H47.73c-7.374,0-13.353,5.979-13.353,13.353
	v186.809c0,7.375,5.979,13.353,13.353,13.353H463.9c7.374,0,13.353-5.978,13.353-13.353V58.526z"/>
<path style="fill:#F5F5F5;" d="M463.9,34.046H47.73c-7.374,0-13.353,5.978-13.353,13.353v20.637h442.876V47.399
	C477.253,40.024,471.274,34.046,463.9,34.046z"/>
<path style="fill:#F2304D;" d="M74.436,34.046H47.73c-7.374,0-13.353,5.978-13.353,13.353v20.637h40.059V34.046z"/>
<g>
	<path style="fill:#A8E2EF;" d="M238.643,191.523H78.887c-4.61,0-8.346-3.737-8.346-8.346s3.736-8.346,8.346-8.346h159.756
		c4.609,0,8.346,3.737,8.346,8.346C246.988,187.786,243.252,191.523,238.643,191.523z"/>
	<path style="fill:#A8E2EF;" d="M238.643,227.609H78.887c-4.61,0-8.346-3.737-8.346-8.346s3.736-8.346,8.346-8.346h159.756
		c4.609,0,8.346,3.737,8.346,8.346C246.988,223.873,243.252,227.609,238.643,227.609z"/>
	<path style="fill:#A8E2EF;" d="M432.371,191.523H272.616c-4.609,0-8.346-3.737-8.346-8.346s3.737-8.346,8.346-8.346h159.755
		c4.61,0,8.346,3.737,8.346,8.346S436.981,191.523,432.371,191.523z"/>
	<path style="fill:#A8E2EF;" d="M432.371,227.609H272.616c-4.609,0-8.346-3.737-8.346-8.346s3.737-8.346,8.346-8.346h159.755
		c4.61,0,8.346,3.737,8.346,8.346S436.981,227.609,432.371,227.609z"/>
	<path style="fill:#A8E2EF;" d="M442.757,134.898c0,7.375-5.979,13.353-13.353,13.353H81.112c-7.374,0-13.353-5.979-13.353-13.353
		v-19.696c0-7.374,5.979-13.353,13.353-13.353h348.292c7.374,0,13.353,5.979,13.353,13.353V134.898z"/>
</g>
<path style="opacity:0.15;fill:#231F20;enable-background:new    ;" d="M52.181,245.335V68.036v-9.51V47.399
	c0-7.374,5.979-13.353,13.353-13.353H47.73c-7.374,0-13.353,5.978-13.353,13.353v11.128v9.51v177.298
	c0,7.375,5.979,13.353,13.353,13.353h17.804C58.159,258.688,52.181,252.71,52.181,245.335z"/>
<g>
</g>
<g>
</g>
<g>
</g>
<g>
</g>
<g>
</g>
<g>
</g>
<g>
</g>
<g>
</g>
<g>
</g>
<g>
</g>
<g>
</g>
<g>
</g>
<g>
</g>
<g>
</g>
<g>
</g>
</svg>
