<?xml version="1.0" encoding="UTF-8" standalone="no"?>
<!DOCTYPE svg PUBLIC "-//W3C//DTD SVG 1.1//EN" "http://www.w3.org/Graphics/SVG/1.1/DTD/svg11.dtd">
<!-- Created with Vectornator (http://vectornator.io/) -->
<svg height="100%" stroke-miterlimit="10" style="fill-rule:nonzero;clip-rule:evenodd;stroke-linecap:round;stroke-linejoin:round;" version="1.1" viewBox="0 0 512 512" width="100%" xml:space="preserve" xmlns="http://www.w3.org/2000/svg" xmlns:xlink="http://www.w3.org/1999/xlink">
<defs/>
<g id="Untitled">
<g opacity="1">
<path d="M9.143 9.143L173.714 9.143L173.714 502.857L9.143 502.857L9.143 9.143Z" fill="#ffffff" fill-rule="nonzero" opacity="1" stroke="none"/>
<path d="M182.857 512L0 512L0 0L182.857 0L182.857 512ZM18.286 493.714L164.572 493.714L164.572 18.286L18.286 18.286L18.286 493.714Z" fill="#3887de" fill-rule="nonzero" opacity="1" stroke="none"/>
<path d="M173.714 9.143L338.286 9.143L338.286 502.857L173.714 502.857L173.714 9.143Z" fill="#ffffff" fill-rule="nonzero" opacity="1" stroke="none"/>
<path d="M347.429 512L164.571 512L164.571 0L347.428 0L347.428 512L347.429 512ZM182.857 493.714L329.143 493.714L329.143 18.286L182.857 18.286L182.857 493.714Z" fill="#3887de" fill-rule="nonzero" opacity="1" stroke="none"/>
<path d="M338.286 9.143L502.857 9.143L502.857 502.857L338.286 502.857L338.286 9.143Z" fill="#ffffff" fill-rule="nonzero" opacity="1" stroke="none"/>
<path d="M512 512L329.143 512L329.143 0L512 0L512 512ZM347.429 493.714L493.715 493.714L493.715 18.286L347.429 18.286L347.429 493.714Z" fill="#3887de" fill-rule="nonzero" opacity="1" stroke="none"/>
<path d="M45.714 45.714L137.143 45.714L137.143 228.571L45.714 228.571L45.714 45.714Z" fill="#d0e8f9" fill-rule="nonzero" opacity="1" stroke="none"/>
<path d="M146.286 237.714L36.571 237.714L36.571 36.571L146.285 36.571L146.285 237.714L146.286 237.714ZM54.857 219.429L128 219.429L128 54.857L54.857 54.857L54.857 219.429Z" fill="#3887de" fill-rule="nonzero" opacity="1" stroke="none"/>
<path d="M210.286 45.714L301.714 45.714L301.714 228.571L210.286 228.571L210.286 45.714Z" fill="#d0e8f9" fill-rule="nonzero" opacity="1" stroke="none"/>
<path d="M310.857 237.714L201.143 237.714L201.143 36.571L310.857 36.571C310.857 36.571 310.857 237.714 310.857 237.714ZM219.429 219.429L292.572 219.429L292.572 54.857L219.429 54.857L219.429 219.429Z" fill="#3887de" fill-rule="nonzero" opacity="1" stroke="none"/>
<path d="M374.857 45.714L466.286 45.714L466.286 228.571L374.857 228.571L374.857 45.714Z" fill="#d0e8f9" fill-rule="nonzero" opacity="1" stroke="none"/>
<path d="M475.429 237.714L365.714 237.714L365.714 36.571L475.428 36.571L475.428 237.714L475.429 237.714ZM384 219.429L457.143 219.429L457.143 54.857L384 54.857L384 219.429Z" fill="#3887de" fill-rule="nonzero" opacity="1" stroke="none"/>
<path d="M137.143 411.429C137.143 437.029 117.029 457.143 91.429 457.143C65.829 457.143 45.715 437.029 45.715 411.429C45.715 385.829 65.829 365.715 91.429 365.715C117.029 365.715 137.143 385.829 137.143 411.429L137.143 411.429Z" fill="#d0e8f9" fill-rule="nonzero" opacity="1" stroke="none"/>
<path d="M91.429 466.286C61.258 466.286 36.572 441.6 36.572 411.429C36.572 381.258 61.258 356.572 91.429 356.572C121.6 356.572 146.286 381.258 146.286 411.429C146.286 441.6 121.6 466.286 91.429 466.286ZM91.429 374.857C71.315 374.857 54.858 391.314 54.858 411.428C54.858 431.542 71.314 448 91.429 448C111.544 448 128 431.543 128 411.429C128 391.315 111.543 374.857 91.429 374.857Z" fill="#3887de" fill-rule="nonzero" opacity="1" stroke="none"/>
<path d="M301.714 411.429C301.714 437.029 281.6 457.143 256 457.143C230.4 457.143 210.286 437.029 210.286 411.429C210.286 385.829 230.4 365.714 256 365.714C281.6 365.714 301.714 385.829 301.714 411.429L301.714 411.429Z" fill="#d0e8f9" fill-rule="nonzero" opacity="1" stroke="none"/>
<path d="M256 466.286C225.829 466.286 201.143 441.6 201.143 411.429C201.143 381.258 225.829 356.572 256 356.572C286.171 356.572 310.857 381.258 310.857 411.429C310.857 441.6 286.171 466.286 256 466.286ZM256 374.857C235.886 374.857 219.429 391.314 219.429 411.428C219.429 431.542 235.886 448 256 448C276.114 448 292.571 431.543 292.571 411.429C292.571 391.315 276.114 374.857 256 374.857Z" fill="#3887de" fill-rule="nonzero" opacity="1" stroke="none"/>
<path d="M466.286 411.429C466.286 437.029 446.172 457.143 420.572 457.143C394.972 457.143 374.858 437.029 374.858 411.429C374.858 385.829 394.972 365.715 420.572 365.715C446.171 365.714 466.286 385.829 466.286 411.429L466.286 411.429Z" fill="#d0e8f9" fill-rule="nonzero" opacity="1" stroke="none"/>
<path d="M420.571 466.286C390.4 466.286 365.714 441.6 365.714 411.429C365.714 381.258 390.4 356.572 420.571 356.572C450.742 356.572 475.428 381.258 475.428 411.429C475.428 441.6 450.743 466.286 420.571 466.286ZM420.571 374.857C400.457 374.857 384 391.314 384 411.428C384 431.542 400.457 448 420.571 448C440.685 448 457.142 431.543 457.142 411.429C457.142 391.315 440.686 374.857 420.571 374.857Z" fill="#3887de" fill-rule="nonzero" opacity="1" stroke="none"/>
</g>
</g>
</svg>
