<?xml version="1.0" encoding="iso-8859-1"?>
<!-- Uploaded to: SVG Repo, www.svgrepo.com, Generator: SVG Repo Mixer Tools -->
<svg version="1.1" id="Layer_1" xmlns="http://www.w3.org/2000/svg" xmlns:xlink="http://www.w3.org/1999/xlink" 
	 viewBox="0 0 392.663 392.663" xml:space="preserve">
<path style="fill:#FFFFFF;" d="M106.796,360.857c0.517,5.624,5.172,9.891,10.925,9.891H275.2c5.624,0,10.343-4.267,10.796-9.891
	l21.657-234.667H85.139"/>
<polygon style="fill:#FFC10D;" points="109.059,147.976 127.547,348.962 265.18,348.962 283.733,147.976 "/>
<rect x="54.626" y="71.887" style="fill:#56ACE0;" width="283.604" height="32.711"/>
<g>
	<path style="fill:#194F82;" d="M349.026,50.036h-82.941V32.711C266.085,14.675,251.41,0,233.374,0h-74.085
		c-18.036,0-32.711,14.675-32.711,32.711v17.39H43.636c-6.012,0-10.925,4.848-10.925,10.925v54.562
		c0,6.012,4.848,10.925,10.925,10.925H63.16L84.945,362.99c1.552,16.937,15.515,29.673,32.582,29.673h157.479
		c17.002,0,30.966-12.735,32.582-29.673l21.915-236.606h19.523c6.012,0,10.925-4.848,10.925-10.925V60.897
		C359.887,54.949,355.038,50.036,349.026,50.036z M148.428,32.711c0-6.012,4.848-10.925,10.925-10.925h74.085
		c6.012,0,10.925,4.848,10.925,10.925v17.39h-95.935V32.711z M285.996,360.857c-0.517,5.624-5.172,9.891-10.925,9.891H117.592
		c-5.624,0-10.343-4.267-10.796-9.891L93.22,213.398h17.648c6.012,0,10.925-4.848,10.925-10.925c0-6.077-4.978-10.925-10.925-10.925
		H91.216l-2.004-21.786h54.303c6.012,0,10.925-4.848,10.925-10.925c0-6.012-4.848-10.925-10.925-10.925H87.208l-2.004-21.527
		h222.449L285.996,360.857z M338.101,104.533H54.562V71.822h283.604v32.711H338.101z"/>
	<path style="fill:#194F82;" d="M165.818,327.111c6.012,0,10.925-4.848,10.925-10.925V195.62c0-6.012-4.848-10.925-10.925-10.925
		c-6.012,0-10.925,4.848-10.925,10.925v120.566C154.893,322.198,159.806,327.111,165.818,327.111z"/>
	<path style="fill:#194F82;" d="M226.844,327.111c6.012,0,10.925-4.848,10.925-10.925V195.62c0-6.012-4.848-10.925-10.925-10.925
		s-10.925,4.848-10.925,10.925v120.566C215.984,322.198,220.832,327.111,226.844,327.111z"/>
</g>
</svg>