<?xml version="1.0" encoding="iso-8859-1"?>
<!-- Generator: Adobe Illustrator 19.0.0, SVG Export Plug-In . SVG Version: 6.00 Build 0)  -->
<svg version="1.1" id="Layer_1" xmlns="http://www.w3.org/2000/svg" xmlns:xlink="http://www.w3.org/1999/xlink" x="0px" y="0px"
	 viewBox="0 0 512 512" style="enable-background:new 0 0 512 512;" xml:space="preserve">
<path style="fill:#E89330;" d="M468.426,79.546h-32.681l35.404,78.979h32.681V114.95C503.83,95.483,487.903,79.546,468.426,79.546z"
	/>
<path style="fill:#F3A933;" d="M471.149,114.95v43.574H234.213V79.546h201.532C455.222,79.546,471.149,95.483,471.149,114.95z"/>
<path style="fill:#FFBE35;" d="M468.426,123.12h-32.681l35.404,344.739h32.681V158.524
	C503.83,139.058,487.892,123.12,468.426,123.12z"/>
<path style="fill:#FFCD60;" d="M435.745,123.12H256V79.546c0-19.467-15.937-35.404-35.404-35.404H76.253H43.574
	c-19.478,0-35.404,15.937-35.404,35.404V467.86h462.979V158.524C471.149,139.058,455.212,123.12,435.745,123.12z"/>
<path style="fill:#E89330;" d="M426.627,372.307h-21.787l-38.204-59.272C399.372,313.035,426.627,339.572,426.627,372.307z"/>
<path style="fill:#F3A933;" d="M366.636,313.035c-32.735,0-60.002,26.537-60.002,59.272h98.206
	C404.839,339.572,387.475,313.035,366.636,313.035z"/>
<g>
	<path style="fill:#E89330;" d="M365.907,214.96v65.394c18.062,0,32.703-14.641,32.703-32.692
		C398.608,229.601,383.967,214.96,365.907,214.96z"/>
	<path style="fill:#E89330;" d="M205.366,372.307h-21.787l-38.204-59.272C178.112,313.035,205.366,339.572,205.366,372.307z"/>
</g>
<path style="fill:#F3A933;" d="M145.375,313.035c-32.735,0-60.002,26.537-60.002,59.272h98.206
	C183.579,339.572,166.216,313.035,145.375,313.035z"/>
<path style="fill:#E89330;" d="M144.647,214.96v65.394c18.062,0,32.703-14.641,32.703-32.692
	C177.349,229.601,162.708,214.96,144.647,214.96z"/>
<path style="fill:#D97F13;" d="M256.001,315.998l47.888,80.569h32.681C336.569,352.067,300.502,315.998,256.001,315.998z"/>
<path style="fill:#E89330;" d="M256.001,315.998c-44.503,0.002-80.569,36.07-80.569,80.569h128.457
	C303.888,352.067,282.45,315.998,256.001,315.998z"/>
<path style="fill:#D97F13;" d="M256.588,194.415v88.892c24.282-0.305,43.869-20.088,43.869-44.446S280.871,194.72,256.588,194.415z"
	/>
<path style="fill:#E89330;" d="M256.588,194.415c-0.196-0.011-0.392-0.011-0.588-0.011c-0.196,0-0.392,0-0.588,0.011
	c-24.282,0.305-43.869,20.088-43.869,44.446s19.587,44.141,43.869,44.446c0.196,0.011,0.392,0.011,0.588,0.011
	c0.196,0,0.392,0,0.588-0.011c12.244-0.61,22.081-20.273,22.081-44.446S268.834,195.025,256.588,194.415z"/>
<g>
	<path style="fill:#F3A933;" d="M144.647,214.96c6.024,0,10.915,14.641,10.915,32.703c0,18.051-4.891,32.692-10.915,32.692
		c-18.062,0-32.703-14.641-32.703-32.692C111.943,229.601,126.585,214.96,144.647,214.96z"/>
	<path style="fill:#F3A933;" d="M365.907,214.96c6.024,0,10.915,14.641,10.915,32.703c0,18.051-4.891,32.692-10.915,32.692
		c-18.062,0-32.703-14.641-32.703-32.692C333.204,229.601,347.844,214.96,365.907,214.96z"/>
</g>
<path d="M468.426,71.38H288.681c-4.513,0-8.17,3.657-8.17,8.17c0,4.513,3.657,8.17,8.17,8.17h179.745
	c15.017,0,27.234,12.217,27.234,27.234v9.595c-7.466-5.996-16.935-9.595-27.234-9.595H264.17V79.55
	c0-24.027-19.548-43.574-43.574-43.574H43.574C19.548,35.976,0,55.523,0,79.55v388.304c0,4.513,3.657,8.17,8.17,8.17h495.66
	c4.513,0,8.17-3.657,8.17-8.17V158.529v-43.574C512,90.928,492.452,71.38,468.426,71.38z M495.66,459.685H16.34V79.55
	c0-15.017,12.217-27.234,27.234-27.234h177.021c15.017,0,27.234,12.217,27.234,27.234v43.574c0,4.513,3.657,8.17,8.17,8.17h212.426
	c15.017,0,27.234,12.217,27.234,27.234V459.685z"/>
<path d="M367.352,288.533c22.537,0,40.871-18.335,40.871-40.872s-18.335-40.871-40.871-40.871s-40.871,18.334-40.871,40.871
	S344.816,288.533,367.352,288.533z M367.352,223.132c13.527,0,24.53,11.005,24.53,24.53c0,13.527-11.005,24.531-24.53,24.531
	s-24.53-11.005-24.53-24.531C342.822,234.137,353.827,223.132,367.352,223.132z"/>
<path d="M367.352,304.874c-11.091,0-22.089,2.754-31.807,7.966c-3.976,2.132-5.472,7.084-3.339,11.06
	c2.132,3.975,7.082,5.475,11.06,3.339c7.352-3.941,15.681-6.025,24.086-6.025c25.396,0,46.524,18.624,50.448,42.928h-50.448
	c-4.513,0-8.17,3.657-8.17,8.17c0,4.513,3.657,8.17,8.17,8.17h59.27c4.513,0,8.17-3.657,8.17-8.17
	C434.793,335.127,404.539,304.874,367.352,304.874z"/>
<path d="M145.373,364.144H94.2c3.924-24.306,25.052-42.928,50.447-42.928c8.404,0,16.732,2.083,24.083,6.023
	c3.977,2.136,8.931,0.638,11.06-3.339c2.133-3.976,0.637-8.928-3.339-11.06c-9.716-5.21-20.714-7.964-31.803-7.964
	c-37.188,0-67.44,30.253-67.44,67.439c0,4.513,3.657,8.17,8.17,8.17h59.995c4.513,0,8.17-3.657,8.17-8.17
	C153.543,367.801,149.886,364.144,145.373,364.144z"/>
<path d="M144.648,288.533c22.537,0,40.871-18.335,40.871-40.872s-18.334-40.871-40.871-40.871s-40.871,18.334-40.871,40.871
	S122.112,288.533,144.648,288.533z M144.648,223.132c13.526,0,24.53,11.005,24.53,24.53c0,13.527-11.005,24.531-24.53,24.531
	c-13.527,0-24.53-11.005-24.53-24.531C120.117,234.137,131.121,223.132,144.648,223.132z"/>
<path d="M256,291.487c29.016,0,52.623-23.606,52.623-52.623S285.016,186.241,256,186.241s-52.623,23.606-52.623,52.623
	S226.984,291.487,256,291.487z M256,202.583c20.006,0,36.282,16.275,36.282,36.282c0,20.006-16.275,36.282-36.282,36.282
	s-36.282-16.275-36.282-36.282S235.994,202.583,256,202.583z"/>
<path d="M256,307.827c-48.931,0-88.739,39.809-88.739,88.741c0,4.513,3.658,8.17,8.17,8.17H336.57c4.513,0,8.17-3.657,8.17-8.17
	C344.74,347.635,304.932,307.827,256,307.827z M184.06,388.397c4.069-36.092,34.78-64.23,71.94-64.23s67.873,28.138,71.941,64.23
	H184.06z"/>
<g>
</g>
<g>
</g>
<g>
</g>
<g>
</g>
<g>
</g>
<g>
</g>
<g>
</g>
<g>
</g>
<g>
</g>
<g>
</g>
<g>
</g>
<g>
</g>
<g>
</g>
<g>
</g>
<g>
</g>
</svg>
