<?xml version="1.0" encoding="iso-8859-1"?>
<!-- Generator: Adobe Illustrator 19.0.0, SVG Export Plug-In . SVG Version: 6.00 Build 0)  -->
<svg version="1.1" id="Layer_1" xmlns="http://www.w3.org/2000/svg" xmlns:xlink="http://www.w3.org/1999/xlink" x="0px" y="0px"
	 viewBox="0 0 512 512" style="enable-background:new 0 0 512 512;" xml:space="preserve">
<path style="fill:#38ABEC;" d="M256.001,8.017c-103.899,0-188.125,84.227-188.125,188.125h376.251
	C444.126,92.243,359.899,8.017,256.001,8.017z"/>
<path style="fill:#3E92DD;" d="M268.827,8.461c-4.24-0.285-8.515-0.445-12.827-0.445c-103.899,0-188.125,84.227-188.125,188.125
	h25.653C93.529,96.555,170.912,15.055,268.827,8.461z"/>
<path style="fill:#FF8B1B;" d="M256.001,8.017c-70.84,0-128.267,84.227-128.267,188.125h256.534
	C384.268,92.243,326.84,8.017,256.001,8.017z"/>
<path style="fill:#38ABEC;" d="M256.001,8.017c-23.613,0-42.756,84.227-42.756,188.125h85.511
	C298.756,92.243,279.613,8.017,256.001,8.017z"/>
<circle style="fill:#FDE265;" cx="256.001" cy="341.511" r="42.756"/>
<path style="fill:#FDD349;" d="M273.103,375.716c-23.613,0-42.756-19.143-42.756-42.756c0-13.284,6.058-25.154,15.564-32.996
	c-18.742,4.536-32.666,21.411-32.666,41.547c0,23.613,19.143,42.756,42.756,42.756c10.329,0,19.802-3.663,27.192-9.76
	C279.957,375.291,276.58,375.716,273.103,375.716z"/>
<rect x="187.591" y="401.37" style="fill:#38ABEC;" width="136.818" height="102.614"/>
<rect x="187.591" y="401.37" style="fill:#3E92DD;" width="17.102" height="102.614"/>
<g>
	<path style="fill:#FDE265;" d="M384.691,369.57l-13.25,31.8H324.41v42.756h52.307c14.723,0,27.793-9.421,32.449-23.388
		l12.447-37.342c3.104-9.313-1.112-19.491-9.892-23.881l0,0C401.499,354.402,389.086,359.021,384.691,369.57z"/>
	<path style="fill:#FDE265;" d="M127.31,369.57l13.25,31.8h47.031v42.756h-52.307c-14.723,0-27.793-9.421-32.449-23.388
		l-12.447-37.342c-3.104-9.313,1.112-19.491,9.893-23.881l0,0C110.502,354.402,122.915,359.021,127.31,369.57z"/>
</g>
<path style="fill:#FDD349;" d="M135.666,427.023c-7.361,0-13.897-4.711-16.225-11.694l-16.346-49.037
	c-0.837-2.512-1.126-5.085-0.952-7.591c-0.627,0.237-1.25,0.506-1.864,0.812c-8.78,4.39-12.997,14.569-9.892,23.881l12.447,37.342
	c4.656,13.967,17.727,23.388,32.449,23.388h52.307v-17.102L135.666,427.023L135.666,427.023z"/>
<path d="M407.307,71.322c-2.781-3.367-7.918-3.858-11.288-1.077c-3.368,2.78-3.858,7.919-1.076,11.286
	c24.845,30.084,39.243,67.663,40.987,106.595h-43.765c-1.351-48.846-15.017-94.58-38.841-129.524
	c-6.693-9.818-13.985-18.478-21.755-25.936c13.943,6.436,27.089,14.659,39.048,24.536c3.367,2.782,8.505,2.29,11.286-1.077
	c2.782-3.368,2.292-8.504-1.076-11.286C345.813,15.923,301.484,0,256.001,0C147.847,0,59.859,87.988,59.859,196.142
	c0,1.405,0.384,2.826,1.091,4.039l112.684,193.171h-27.729l-11.195-26.867c-2.947-7.071-8.754-12.66-15.935-15.331
	c-7.182-2.672-15.227-2.238-22.08,1.188c-12.27,6.134-18.249,20.574-13.913,33.588l12.447,37.342
	c5.757,17.268,21.854,28.87,40.055,28.87h44.291v51.841c0,4.428,3.588,8.017,8.017,8.017H324.41c4.428,0,8.017-3.588,8.017-8.017
	v-51.841h44.291c18.201,0,34.299-11.602,40.056-28.87l12.447-37.342c4.338-13.014-1.643-27.453-13.913-33.588
	c-6.851-3.425-14.9-3.858-22.08-1.188c-7.181,2.671-12.988,8.26-15.935,15.331l-11.196,26.867h-27.729L451.05,200.181
	c0.704-1.217,1.091-2.632,1.091-4.039C452.142,150.659,436.22,106.331,407.307,71.322z M376.133,188.125h-69.4
	c-0.449-47.831-4.91-92.592-12.682-126.785c-4.028-17.722-8.73-31.637-14.074-41.705
	C333.142,35.811,373.682,104.681,376.133,188.125z M315.328,393.353H196.673l23.649-189.194h71.357L315.328,393.353z
	 M256.001,16.033c3.146,0,13.306,8.778,22.416,48.86c7.518,33.078,11.84,76.581,12.285,123.232H221.3
	c0.445-46.652,4.767-90.154,12.285-123.232C242.695,24.811,252.855,16.033,256.001,16.033z M232.025,19.636
	c-5.346,10.067-10.047,23.982-14.074,41.705c-7.772,34.194-12.232,78.955-12.682,126.785h-69.401
	C138.319,104.681,178.86,35.811,232.025,19.636z M180.428,32.671c-7.768,7.458-15.058,16.116-21.749,25.93
	c-23.826,34.944-37.491,80.678-38.843,129.524H76.068C79.101,119.206,121.051,60.23,180.428,32.671z M81.833,204.159h39.888
	l39.888,136.759L81.833,204.159z M179.575,436.109h-44.291c-11.29,0-21.273-7.196-24.844-17.907L97.992,380.86
	c-1.831-5.493,0.693-11.587,5.873-14.177c5.999-2.999,13.473-0.202,16.045,5.97l13.25,31.8c1.244,2.988,4.164,4.933,7.4,4.933
	h39.015V436.109z M184.441,361.937l-46.019-157.778h65.741L184.441,361.937z M247.984,495.967h-52.376v-86.58h52.376V495.967z
	 M316.393,495.967h-52.376v-86.58h52.376V495.967z M371.441,409.386c3.236,0,6.156-1.945,7.4-4.933l13.25-31.8
	c2.573-6.173,10.049-8.967,16.045-5.97c5.18,2.59,7.704,8.684,5.872,14.177l-12.447,37.342
	c-3.571,10.71-13.556,17.906-24.844,17.906h-44.291v-26.722H371.441z M327.56,361.937l-19.722-157.778h65.741L327.56,361.937z
	 M350.392,340.917l39.888-136.759h39.888L350.392,340.917z"/>
<path d="M256.001,290.739c-27.995,0-50.772,22.777-50.772,50.772c0,27.995,22.777,50.772,50.772,50.772s50.772-22.777,50.772-50.772
	C306.773,313.516,283.996,290.739,256.001,290.739z M256.001,376.251c-19.156,0-34.739-15.583-34.739-34.739
	c0-19.156,15.583-34.739,34.739-34.739c19.156,0,34.739,15.583,34.739,34.739C290.74,360.667,275.156,376.251,256.001,376.251z"/>
<path d="M298.756,444.66h-17.102c-4.428,0-8.017,3.588-8.017,8.017s3.588,8.017,8.017,8.017h17.102c4.428,0,8.017-3.588,8.017-8.017
	S303.185,444.66,298.756,444.66z"/>
<path d="M230.347,444.66h-17.102c-4.428,0-8.017,3.588-8.017,8.017s3.588,8.017,8.017,8.017h17.102c4.428,0,8.017-3.588,8.017-8.017
	S234.776,444.66,230.347,444.66z"/>
<g>
</g>
<g>
</g>
<g>
</g>
<g>
</g>
<g>
</g>
<g>
</g>
<g>
</g>
<g>
</g>
<g>
</g>
<g>
</g>
<g>
</g>
<g>
</g>
<g>
</g>
<g>
</g>
<g>
</g>
</svg>
