<?xml version="1.0" encoding="iso-8859-1"?>
<!-- Uploaded to: SVG Repo, www.svgrepo.com, Generator: SVG Repo Mixer Tools -->
<svg version="1.1" id="Layer_1" xmlns="http://www.w3.org/2000/svg" xmlns:xlink="http://www.w3.org/1999/xlink" 
	 viewBox="0 0 512 512" xml:space="preserve">
<g>
	<path style="fill:#5DACD8;" d="M329.625,374.284v85.063l100.752-27.151l-14.082-81.337c-5.169-29.772-21.237-53.766-42.474-63.416
		c-2.413-1.1-4.76-2.38-7.025-3.824c-22.485-14.377-37.173-45.379-37.173-79.909"/>
	<path style="fill:#5DACD8;" d="M182.856,203.709v255.636l-31.888-8.586l-68.89-18.566l14.102-81.338
		c5.161-29.762,21.223-53.761,42.458-63.41c2.433-1.098,4.771-2.386,7.039-3.838c1.819-1.157,3.579-2.433,5.291-3.803
		C170.432,264.19,182.856,235.433,182.856,203.709z"/>
</g>
<path style="fill:#E6E6E6;" d="M182.853,274.883V160.262c0-26.604,5.005-52.715,14.524-77.087c1.198-3.07,2.478-6.121,3.808-9.125
	c9.305-20.876,22.009-40.291,37.747-57.376c5.088-5.514,12.128-8.025,19.005-7.516c5.745,0.41,11.357,2.922,15.591,7.516
	c15.624,16.937,28.245,36.155,37.502,56.834c12.161,27.047,18.594,56.588,18.594,86.753v46.61v68.011v228.487H256.23h-73.378
	V274.883H182.853z"/>
<path style="fill:#4C9CBF;" d="M182.856,203.709v255.636l-31.888-8.586V279.803C170.432,264.19,182.856,235.433,182.856,203.709z"/>
<path style="fill:#CCCCCC;" d="M238.932,16.679c4.665-5.055,10.96-7.582,17.267-7.582c-2.929,0.012-5.87,2.539-8.043,7.582
	c-7.346,17.078-13.275,36.494-17.609,57.375c-0.626,3-1.228,6.047-1.783,9.118c-4.441,24.377-6.779,50.489-6.779,77.087v343.116
	h-39.128V160.258c0-26.597,5.008-52.71,14.527-77.087c1.193-3.071,2.468-6.118,3.803-9.118
	C210.493,53.173,223.189,33.757,238.932,16.679z"/>
<g>
	<rect x="182.86" y="459.343" style="fill:#E88158;" width="146.768" height="44.029"/>
	<path style="fill:#E88158;" d="M311.035,73.511l-1.181,0.543H201.186c9.307-20.881,22.003-40.297,37.746-57.375
		c0.295-0.319,0.591-0.626,0.898-0.921c4.559-4.441,10.464-6.661,16.369-6.661c0.579,0,1.157,0.012,1.736,0.059
		c5.752,0.413,11.362,2.917,15.59,7.523C289.15,33.615,301.775,52.831,311.035,73.511z"/>
</g>
<g>
	<rect x="182.86" y="459.343" style="fill:#D37250;" width="39.128" height="44.029"/>
	<path style="fill:#D37250;" d="M256.199,9.097c-2.929,0.012-5.87,2.539-8.043,7.582c-7.346,17.078-13.275,36.494-17.609,57.375
		h-29.361c9.307-20.881,22.003-40.297,37.746-57.375c0.295-0.319,0.591-0.626,0.898-0.921
		C244.388,11.317,250.294,9.097,256.199,9.097z"/>
</g>
<g>
	<polygon style="fill:#E88158;" points="424.249,396.809 430.379,432.193 329.624,459.345 329.624,396.856 423.977,396.856 	"/>
	<polygon style="fill:#E88158;" points="182.856,396.856 182.856,459.345 150.968,450.759 82.078,432.193 88.208,396.856 	"/>
</g>
<polygon style="fill:#D37250;" points="182.856,396.856 182.856,459.345 150.968,450.759 150.968,396.856 "/>
<path style="fill:#5DACD8;" d="M256.239,369.119L256.239,369.119c-10.437,0-18.897,8.46-18.897,18.897v115.353h37.793V388.016
	C275.136,377.579,266.676,369.119,256.239,369.119z"/>
<path d="M232.149,134.191c13.152-13.153,34.555-13.151,47.705,0c1.73,1.729,3.998,2.595,6.264,2.595
	c2.266,0,4.534-0.865,6.264-2.595c3.459-3.459,3.459-9.068,0-12.526c-20.059-20.059-52.696-20.06-72.759,0
	c-3.459,3.459-3.459,9.068,0,12.526C223.081,137.651,228.689,137.651,232.149,134.191z"/>
<path d="M438.877,430.45l-14.078-81.343c-5.714-32.874-23.489-59.026-47.536-69.953c-1.997-0.911-3.99-1.998-5.919-3.23
	c-20.102-12.85-33.093-41.287-33.093-72.446v-43.451c0-31.372-6.517-61.779-19.363-90.367c-9.731-21.731-22.88-41.655-39.069-59.202
	c-5.592-6.093-13.221-9.774-21.463-10.367c-9.87-0.735-19.419,3.042-26.168,10.353c-16.292,17.675-29.522,37.786-39.325,59.78
	c-0.014,0.032-0.026,0.063-0.04,0.094c-0.014,0.034-0.03,0.068-0.045,0.103c-1.392,3.137-2.7,6.27-3.875,9.298
	c-10.041,25.716-15.133,52.735-15.133,80.308v13.027c0,4.892,3.965,8.858,8.858,8.858c4.893,0,8.858-3.966,8.858-8.858v-13.027
	c0-25.359,4.684-50.211,13.926-73.88c0.443-1.14,0.918-2.303,1.397-3.466h98.397c10.17,24.607,15.332,50.595,15.332,77.346V450.26
	h-36.773v-27.417c0-4.892-3.965-8.858-8.858-8.858c-4.893,0-8.858,3.966-8.858,8.858v71.435h-20.078V387.783
	c0-5.536,4.503-10.039,10.039-10.039c5.536,0,10.039,4.503,10.039,10.039v5.534c0,4.892,3.965,8.858,8.858,8.858
	c4.893,0,8.858-3.966,8.858-8.858v-5.534c0-15.304-12.451-27.754-27.754-27.754s-27.754,12.451-27.754,27.754v62.477h-36.771
	V201.706c0-4.892-3.965-8.858-8.858-8.858c-4.893,0-8.858,3.966-8.858,8.858v1.772c0,31.136-12.991,59.569-33.1,72.439
	c-1.956,1.254-3.943,2.337-5.925,3.233c-24.055,10.931-41.821,37.085-47.52,69.961l-14.102,81.337
	c-0.783,4.512,2.002,8.876,6.423,10.066L173.77,465.9v37.243c0,4.892,3.965,8.858,8.858,8.858h146.768
	c4.893,0,8.858-3.966,8.858-8.858V465.9l94.202-25.386C436.876,439.323,439.659,434.96,438.877,430.45z M245.212,22.456
	c3.06-3.315,7.39-5.018,11.86-4.697c3.731,0.269,7.176,1.93,9.714,4.695c11.88,12.876,21.966,27.132,30.106,42.512h-81.763
	C223.287,49.564,233.366,35.305,245.212,22.456z M142.054,295.287c2.744-1.239,5.493-2.738,8.169-4.451
	c9.148-5.856,17.117-14.144,23.548-24.107v121.038H98.504l6.174-35.63C109.307,325.442,123.635,303.655,142.054,295.287z
	 M95.433,405.482h78.337v42.071l-81.812-22.042L95.433,405.482z M191.485,467.977h36.771v26.309h-36.771V467.977z M283.764,494.285
	v-26.309h36.773v26.309H283.764z M338.253,447.553v-39.505c0-0.008,0.001-0.015,0.001-0.024v-2.543h20.502
	c4.893,0,8.858-3.966,8.858-8.858c0-4.892-3.965-8.858-8.858-8.858h-20.502V274.651c0-0.008-0.001-0.015-0.001-0.022v-7.896
	c6.432,9.97,14.398,18.267,23.553,24.119c2.629,1.679,5.357,3.168,8.118,4.427c18.442,8.379,32.781,30.167,37.419,56.855
	l6.167,35.633h-25.228c-4.893,0-8.858,3.966-8.858,8.858c0,4.892,3.965,8.858,8.858,8.858h28.295l3.466,20.029L338.253,447.553z"/>
</svg>