<?xml version="1.0" encoding="iso-8859-1"?>
<!-- Generator: Adobe Illustrator 19.0.0, SVG Export Plug-In . SVG Version: 6.00 Build 0)  -->
<svg version="1.1" id="Layer_1" xmlns="http://www.w3.org/2000/svg" xmlns:xlink="http://www.w3.org/1999/xlink" x="0px" y="0px"
	 viewBox="0 0 511.998 511.998" style="enable-background:new 0 0 511.998 511.998;" xml:space="preserve">
<path style="fill:#8AE9FF;" d="M16.812,446.7c0,34.546,31.418,60.518,65.371,54.137c68.568-12.886,131.647-46.02,182.055-96.43
	c55.695-55.694,90.299-126.858,99.809-203.802l36.347,36.347c21.213,21.213,55.775,22.512,77.562,1.889
	c22.604-21.396,22.973-57.076,1.11-78.941L345.453,26.293c-21.501-21.501-56.36-21.501-77.861,0L133.982,159.902
	c-10.75,10.751-16.125,24.84-16.125,38.93c0,14.487,5.682,28.974,17.046,39.831c21.759,20.788,56.444,19.596,77.723-1.682
	l40.758-40.758c-16.381,99.089-93.71,177.881-192.061,196.419C35.432,397.521,16.812,420.354,16.812,446.7L16.812,446.7z"/>
<g>
	<path style="fill:#248A9C;" d="M71.898,511.998c-15.117,0-29.838-5.237-41.693-15.072C15.211,484.489,6.612,466.181,6.612,446.7
		c0-31.362,22.215-58.312,52.821-64.081c82.467-15.543,149.318-75.262,175.292-153.311l-14.887,14.887
		c-25.3,25.3-66.561,26.128-91.981,1.844c-13.026-12.444-20.2-29.209-20.2-47.205c0-17.431,6.788-33.817,19.113-46.143
		L260.378,19.081c25.444-25.442,66.841-25.442,92.286,0l133.609,133.609c12.565,12.566,19.351,29.274,19.107,47.045
		c-0.245,17.764-7.496,34.283-20.418,46.516c-12.465,11.799-28.941,18.029-46.298,17.532c-17.172-0.489-33.327-7.455-45.489-19.616
		l-22.083-22.084c-13.001,71.913-47.196,137.091-99.646,189.54c-51.578,51.579-116.376,85.896-187.384,99.241
		C80.014,511.623,75.941,511.998,71.898,511.998z M253.387,186.022c1.585,0,3.181,0.368,4.658,1.127
		c3.941,2.025,6.125,6.364,5.402,10.735c-17.048,103.125-97.516,185.418-200.236,204.78c-20.975,3.954-36.2,22.473-36.2,44.034
		c0,13.393,5.911,25.976,16.217,34.527c10.34,8.576,23.853,12.072,37.07,9.586c66.954-12.582,128.065-44.953,176.726-93.616
		c54.079-54.078,87.586-122.489,96.899-197.84c0.478-3.869,3.12-7.127,6.806-8.394c3.686-1.27,7.772-0.322,10.529,2.433
		l36.346,36.346c17.462,17.464,45.875,18.223,63.337,1.694c8.888-8.413,13.876-19.771,14.043-31.981
		c0.168-12.218-4.496-23.702-13.134-32.339L338.24,33.505c-17.489-17.489-45.946-17.489-63.435,0L141.196,167.115
		c-8.473,8.472-13.139,19.737-13.139,31.718c0,12.372,4.934,23.898,13.891,32.455c17.467,16.687,45.937,16.006,63.464-1.519
		l40.758-40.759C248.13,187.05,250.742,186.022,253.387,186.022z"/>
	<path style="fill:#248A9C;" d="M221.325,131.366c-2.611,0-5.22-0.997-7.212-2.988c-3.983-3.983-3.983-10.442,0-14.426
		l74.153-74.154c3.984-3.982,10.441-3.982,14.426,0c3.983,3.983,3.983,10.442,0,14.426l-74.153,74.154
		C226.546,130.369,223.935,131.366,221.325,131.366z"/>
	<path style="fill:#248A9C;" d="M190.72,162.146c-2.611,0-5.22-0.997-7.212-2.988c-3.983-3.983-3.983-10.442,0-14.426l5.665-5.665
		c3.984-3.982,10.441-3.982,14.426,0c3.983,3.983,3.983,10.442,0,14.426l-5.665,5.665
		C195.94,161.151,193.331,162.146,190.72,162.146z"/>
</g>
<g>
</g>
<g>
</g>
<g>
</g>
<g>
</g>
<g>
</g>
<g>
</g>
<g>
</g>
<g>
</g>
<g>
</g>
<g>
</g>
<g>
</g>
<g>
</g>
<g>
</g>
<g>
</g>
<g>
</g>
</svg>
