<?xml version="1.0" ?><svg width="128px" height="128px" viewBox="0 0 128 128" xmlns="http://www.w3.org/2000/svg"><defs><style>.cls-1{fill:#fff;}.cls-2{fill:#f0faff;}.cls-3{fill:#40c4ff;}.cls-4,.cls-5{fill:none;stroke:#000;stroke-linecap:round;stroke-linejoin:round;stroke-width:4px;}.cls-4{stroke-dasharray:104 8 0.25 8 1000;}</style></defs><g data-name="10 thermometer" id="_10_thermometer"><path class="cls-1" d="M50.59,37.44l-6.24-2.27a4,4,0,0,0-1.21-6.82l5.09-4.27A4,4,0,0,0,43.09,18L38,22.22a4,4,0,0,0-6.51-2.37l-1.15-6.54a4,4,0,1,0-7.88,1.39l1.15,6.54a4,4,0,0,0-5.31,4.45l-6.24-2.27a4,4,0,0,0-2.74,7.52l6.25,2.27A4,4,0,0,0,16.77,40L11.68,44.3a4,4,0,0,0,5.14,6.13l5.09-4.27a4,4,0,0,0,6.51,2.37l1.16,6.54a4,4,0,1,0,7.88-1.39L36.3,47.14a4,4,0,0,0,5.31-4.45L47.85,45a4,4,0,1,0,2.74-7.52Z"/><rect class="cls-2" height="120" rx="4" width="52" x="38" y="4"/><path class="cls-3" d="M76,112a12,12,0,1,1-20.44-8.51A8.11,8.11,0,0,0,58,97.74V90a6,6,0,0,0,12,.41v7.34a8,8,0,0,0,2.37,5.68A11.92,11.92,0,0,1,76,112Z"/><path class="cls-1" d="M114,106.83l-3.88-3.26,4.76-1.73a4,4,0,0,0-2.73-7.52l-4.77,1.73.88-5a4,4,0,1,0-7.88-1.39l-.88,5L95.66,91.4a4,4,0,0,0-5.15,6.13l3.89,3.26-4.77,1.74A4,4,0,1,0,92.37,110l4.77-1.73-.89,5a4,4,0,1,0,7.88,1.39l.88-5L108.9,113a4,4,0,0,0,5.14-6.13Z"/><path class="cls-4" d="M90,91.93V8a4,4,0,0,0-4-4H42a4,4,0,0,0-4,4V120a4,4,0,0,0,4,4H86a4,4,0,0,0,4-4v-9.84"/><path class="cls-5" d="M54,24h4m12,0h4M58,36H50m28,0H70M58,48H54m16,0h4m4,12H70M50,60h8m0,12H54m16,0h4m4,12H70M50,84h8m0,12H54m16,0h4M58,90a6,6,0,0,0,12,.41m0,7.34V22.25A6.17,6.17,0,0,0,64.18,16,6,6,0,0,0,58,22V97.74a8.11,8.11,0,0,1-2.44,5.75A11.92,11.92,0,0,0,52,112.28,12,12,0,0,0,76,112a11.92,11.92,0,0,0-3.63-8.58A8,8,0,0,1,70,97.74ZM25.14,28.44l.56.67m-2.27,6.23-.86.15m4.82,5.75.3-.83M32.22,28l.3-.82m4.82,5.75-.86.15m-2.27,6.22.57.67M38,22.22a4,4,0,0,0-6.51-2.37l-1.15-6.54a4,4,0,1,0-7.88,1.39l1.15,6.54a4,4,0,0,0-5.31,4.45l-6.24-2.27a4,4,0,0,0-2.74,7.52l6.25,2.27A4,4,0,0,0,16.77,40L11.68,44.3a4,4,0,0,0,5.14,6.13l5.09-4.27a4,4,0,0,0,6.51,2.37l1.16,6.54a4,4,0,1,0,7.88-1.39L36.3,47.14a4.07,4.07,0,0,0,1.7.23m76,59.46-3.88-3.26,4.76-1.73a4,4,0,0,0-2.73-7.52l-4.77,1.73.88-5a4,4,0,1,0-7.88-1.39l-.88,5L95.66,91.4a4,4,0,0,0-5.15,6.13l3.89,3.26-4.77,1.74A4,4,0,1,0,92.37,110l4.77-1.73-.89,5a4,4,0,1,0,7.88,1.39l.88-5L108.9,113a4,4,0,0,0,5.14-6.13ZM107,22.5v15m-6.5-3.75,13-7.5m-13,0,13,7.5M15,91H30m-3.75,6.5-7.5-13m7.5,0-7.5,13"/></g></svg>