<?xml version="1.0" encoding="iso-8859-1"?>
<!-- Generator: Adobe Illustrator 19.0.0, SVG Export Plug-In . SVG Version: 6.00 Build 0)  -->
<svg version="1.1" id="Layer_1" xmlns="http://www.w3.org/2000/svg" xmlns:xlink="http://www.w3.org/1999/xlink" x="0px" y="0px"
	 viewBox="0 0 512 512" style="enable-background:new 0 0 512 512;" xml:space="preserve">
<circle style="fill:#A0DBFD;" cx="246.646" cy="256.411" r="192.439"/>
<path style="fill:#87CEE9;" d="M155.052,392.479c-75.151-75.151-75.151-196.995,0-272.146
	c31.908-31.908,72.235-50.261,113.83-55.074c-56.371-6.523-115.073,11.83-158.316,55.074c-75.151,75.151-75.151,196.995,0,272.146
	c43.242,43.242,101.945,61.595,158.316,55.074C227.287,442.74,186.962,424.387,155.052,392.479z"/>
<path style="fill:#C1E9FD;" d="M338.228,392.479c75.151-75.151,75.151-196.995,0-272.146
	c-31.908-31.908-72.235-50.261-113.83-55.074c56.371-6.523,115.073,11.83,158.316,55.074c75.151,75.151,75.151,196.995,0,272.146
	c-43.242,43.242-101.945,61.595-158.316,55.074C265.993,442.74,306.318,424.387,338.228,392.479z"/>
<g>
	<path style="fill:#FED159;" d="M348.364,419.231c-41.749,25.76-93.326,35.594-144.834,23.395
		C100.515,418.227,36.783,314.939,61.181,211.923S188.869,45.175,291.885,69.573c101.102,23.945,164.356,123.876,143.61,224.961
		l-23.578-5.584l27.277,91.059l65.221-69.151l-23.745-5.624c26.641-126.029-52.051-250.961-178.091-280.813
		C174.626-5.884,46.333,73.275,16.028,201.229s48.856,256.245,176.809,286.55c63.976,15.152,128.038,2.938,179.894-29.058"/>
	<circle style="fill:#FED159;" cx="246.646" cy="256.411" r="21.935"/>
</g>
<path d="M367.267,451.34c-52.178,32.194-113.767,42.144-173.429,28.014C70.68,450.185-5.786,326.258,23.384,203.101
	S176.481,3.477,299.637,32.646c44.926,10.641,85.095,34.178,116.165,68.069c30.336,33.092,50.216,73.913,57.489,118.051
	c0.768,4.663,5.178,7.815,9.833,7.051c4.662-0.769,7.818-5.171,7.051-9.833c-7.815-47.427-29.172-91.284-61.76-126.832
	c-33.393-36.427-76.56-61.724-124.835-73.158c-64.11-15.182-130.292-4.491-186.358,30.104S21.917,135.05,6.733,199.157
	C-8.45,263.264,2.241,329.448,36.835,385.515c34.595,56.066,88.952,95.306,153.06,110.49c19.028,4.506,38.229,6.734,57.304,6.733
	c45.191-0.001,89.629-12.508,129.054-36.835c4.021-2.481,5.269-7.752,2.788-11.773C376.56,450.108,371.29,448.859,367.267,451.34z"
	/>
<path d="M511.64,308.302c-0.877-2.927-3.25-5.165-6.224-5.87l-15.756-3.731c2.877-16.3,4.117-32.838,3.689-49.277
	c-0.122-4.724-4.043-8.449-8.774-8.331c-4.724,0.123-8.453,4.052-8.331,8.774c0.465,17.869-1.189,35.868-4.915,53.495
	c-0.961,4.543,1.879,9.024,6.398,10.094l9.325,2.21l-44.886,47.592l-18.773-62.669l9.158,2.169c2.252,0.535,4.622,0.132,6.574-1.112
	c1.95-1.245,3.314-3.226,3.779-5.493c10.498-51.149,0.811-103.611-27.276-147.722c-28.146-44.205-71.737-75.203-122.744-87.284
	c-107.442-25.444-215.552,41.263-241,148.704c-7.985,33.717-7.104,69.02,2.548,102.093c9.358,32.061,26.749,61.546,50.293,85.268
	c1.672,1.685,3.873,2.528,6.072,2.528c2.179,0,4.359-0.827,6.028-2.483c3.353-3.329,3.374-8.746,0.046-12.1
	c-44.953-45.29-63.024-109.35-48.337-171.362c23.272-98.26,122.147-159.267,220.407-135.996
	c46.647,11.049,86.512,39.397,112.254,79.824c24.099,37.849,33.388,82.418,26.517,126.406l-14.794-3.503
	c-2.975-0.706-6.098,0.232-8.196,2.455c-2.098,2.223-2.85,5.397-1.972,8.325l27.277,91.059c0.877,2.927,3.25,5.165,6.224,5.87
	c2.973,0.703,6.098-0.232,8.196-2.455l65.221-69.151C511.765,314.404,512.517,311.23,511.64,308.302z"/>
<path d="M127.007,405.998c-2.781,3.819-1.94,9.171,1.879,11.952c21.493,15.654,45.618,26.724,71.703,32.902
	c15.448,3.659,31.037,5.466,46.523,5.466c36.689,0,72.766-10.155,104.775-29.905c4.021-2.481,5.269-7.752,2.788-11.773
	c-2.481-4.021-7.751-5.27-11.773-2.788c-41.629,25.687-90.768,33.625-138.369,22.35c-23.864-5.651-45.925-15.773-65.573-30.083
	C135.139,401.337,129.788,402.179,127.007,405.998z"/>
<path d="M237.114,227.033c-4.864,1.415-9.323,4.032-13.004,7.714c-11.889,11.889-11.889,31.232,0,43.12
	c5.758,5.759,13.416,8.931,21.56,8.931c8.145,0,15.801-3.171,21.56-8.931c3.682-3.682,6.3-8.141,7.714-13.005h57.656
	c4.725,0,8.555-3.831,8.555-8.555s-3.831-8.555-8.555-8.555h-57.656c-1.414-4.864-4.032-9.323-7.714-13.004
	c-3.681-3.682-8.14-6.3-13.004-7.714v-34.606c0-4.725-3.831-8.555-8.555-8.555s-8.555,3.831-8.555,8.555L237.114,227.033
	L237.114,227.033z M259.049,256.307c0,3.574-1.392,6.934-3.92,9.461s-5.887,3.919-9.461,3.919c-3.574,0-6.933-1.392-9.461-3.919
	c-5.217-5.217-5.217-13.706,0-18.922c2.528-2.527,5.887-3.92,9.461-3.92c3.574,0,6.934,1.392,9.461,3.92
	C257.658,249.373,259.049,252.733,259.049,256.307z"/>
<path d="M237.114,377.872v30.619c0,4.725,3.831,8.555,8.555,8.555s8.555-3.831,8.555-8.555v-30.619c0-4.725-3.831-8.555-8.555-8.555
	S237.114,373.147,237.114,377.872z"/>
<path d="M245.67,142.434c4.725,0,8.555-3.831,8.555-8.555v-30.619c0-4.725-3.831-8.555-8.555-8.555s-8.555,3.831-8.555,8.555v30.619
	C237.114,138.603,240.945,142.434,245.67,142.434z"/>
<path d="M313.994,374.217c-4.092,2.362-5.494,7.595-3.131,11.687l3.706,6.419c1.584,2.745,4.46,4.279,7.417,4.279
	c1.451,0,2.923-0.37,4.27-1.148c4.092-2.362,5.494-7.595,3.131-11.687l-3.706-6.419
	C323.319,373.256,318.087,371.854,313.994,374.217z"/>
<path d="M180.477,125.847l-3.706-6.418c-2.362-4.092-7.597-5.494-11.687-3.131c-4.092,2.362-5.494,7.595-3.131,11.687l3.706,6.418
	c1.584,2.745,4.46,4.279,7.417,4.279c1.451,0,2.924-0.37,4.27-1.148C181.437,135.171,182.839,129.938,180.477,125.847z"/>
<path d="M382.117,324.774l-6.419-3.706c-4.092-2.364-9.325-0.961-11.687,3.131c-2.362,4.092-0.96,9.324,3.131,11.687l6.419,3.706
	c1.347,0.778,2.819,1.148,4.27,1.148c2.957,0,5.833-1.535,7.417-4.279C387.611,332.369,386.209,327.137,382.117,324.774z"/>
<path d="M115.641,190.683c1.347,0.778,2.819,1.148,4.27,1.148c2.957,0,5.832-1.534,7.417-4.279c2.362-4.092,0.96-9.324-3.131-11.687
	l-6.418-3.706c-4.092-2.364-9.324-0.96-11.687,3.131c-2.362,4.092-0.96,9.324,3.131,11.687L115.641,190.683z"/>
<path d="M406.841,255.875c0-4.725-3.831-8.555-8.555-8.555h-30.619c-4.725,0-8.555,3.831-8.555,8.555s3.831,8.555,8.555,8.555
	h30.619C403.01,264.43,406.841,260.601,406.841,255.875z"/>
<path d="M84.499,255.875c0,4.725,3.831,8.555,8.555,8.555h30.619c4.725,0,8.555-3.831,8.555-8.555s-3.831-8.555-8.555-8.555H93.054
	C88.329,247.319,84.499,251.15,84.499,255.875z"/>
<path d="M371.428,191.83c1.451,0,2.923-0.37,4.27-1.148l6.419-3.706c4.092-2.362,5.494-7.595,3.131-11.687
	c-2.362-4.092-7.596-5.494-11.687-3.131l-6.419,3.706c-4.092,2.362-5.494,7.595-3.131,11.687
	C365.596,190.296,368.472,191.83,371.428,191.83z"/>
<path d="M113.509,340.74c1.451,0,2.924-0.37,4.27-1.148l6.418-3.706c4.092-2.362,5.494-7.595,3.131-11.687
	c-2.362-4.093-7.597-5.493-11.687-3.131l-6.418,3.706c-4.092,2.362-5.494,7.595-3.131,11.687
	C107.676,339.205,110.552,340.74,113.509,340.74z"/>
<path d="M318.264,138.682c2.957,0,5.833-1.534,7.417-4.279l3.706-6.418c2.362-4.092,0.96-9.324-3.131-11.687
	c-4.092-2.364-9.324-0.962-11.687,3.131l-3.706,6.418c-2.362,4.092-0.961,9.324,3.131,11.687
	C315.342,138.311,316.813,138.682,318.264,138.682z"/>
<path d="M177.345,374.217c-4.092-2.364-9.325-0.961-11.687,3.131l-3.706,6.419c-2.362,4.092-0.96,9.324,3.131,11.687
	c1.347,0.778,2.819,1.148,4.27,1.148c2.957,0,5.833-1.535,7.417-4.279l3.706-6.419C182.839,381.811,181.437,376.579,177.345,374.217
	z"/>
<g>
</g>
<g>
</g>
<g>
</g>
<g>
</g>
<g>
</g>
<g>
</g>
<g>
</g>
<g>
</g>
<g>
</g>
<g>
</g>
<g>
</g>
<g>
</g>
<g>
</g>
<g>
</g>
<g>
</g>
</svg>
