<?xml version="1.0" encoding="UTF-8" standalone="no"?>
<!DOCTYPE svg PUBLIC "-//W3C//DTD SVG 1.1//EN" "http://www.w3.org/Graphics/SVG/1.1/DTD/svg11.dtd">
<!-- Created with Vectornator (http://vectornator.io/) -->
<svg height="100%" stroke-miterlimit="10" style="fill-rule:nonzero;clip-rule:evenodd;stroke-linecap:round;stroke-linejoin:round;" version="1.1" viewBox="0 0 512.001 512.001" width="100%" xml:space="preserve" xmlns="http://www.w3.org/2000/svg" xmlns:xlink="http://www.w3.org/1999/xlink">
<defs/>
<clipPath id="ArtboardFrame">
<rect height="512.001" width="512.001" x="0" y="0"/>
</clipPath>
<g clip-path="url(#ArtboardFrame)" id="Untitled">
<path d="M321.964 378.55C336.191 350.526 365.293 331.449 398.814 331.449C446.454 331.449 485.041 370.036 485.041 417.676C485.041 465.316 446.454 503.903 398.814 503.903C351.174 503.903 312.587 465.316 312.587 417.676C312.587 403.556 316.036 390.299 321.964 378.55Z" fill="#e7eced" fill-rule="nonzero" opacity="1" stroke="none"/>
<path d="M398.814 503.902L26.96 503.902C26.96 488.812 26.96 476.957 26.96 476.957C26.96 476.957 27.93 417.999 129.355 385.341C129.355 385.341 166.11 366.156 177.858 353.006C177.858 353.006 200.061 379.951 231.75 379.951C263.439 379.951 285.642 353.006 285.642 353.006C292.971 361.306 310.108 371.761 321.965 378.551C316.037 390.299 312.588 403.557 312.588 417.677C312.587 465.316 351.174 503.902 398.814 503.902Z" fill="#5ba4f5" fill-rule="nonzero" opacity="1" stroke="none"/>
<g opacity="1">
<path d="M177.858 318.73C193.487 326.922 211.702 331.448 231.75 331.448C251.798 331.448 270.013 326.813 285.642 318.73L285.642 353.006C285.642 353.006 263.439 379.951 231.75 379.951C200.061 379.951 177.858 353.006 177.858 353.006L177.858 318.73L177.858 318.73Z" fill="#fedaab" fill-rule="nonzero" opacity="1" stroke="none"/>
<path d="M285.641 318.73C270.012 326.814 251.797 331.448 231.749 331.448C211.701 331.448 193.486 326.921 177.857 318.73C143.259 300.73 120.517 265.377 114.696 223.233C97.99 220.97 80.852 205.125 80.852 191.33C80.852 176.456 95.295 169.773 113.187 169.773L113.187 148.216C113.187 148.216 156.3 148.216 204.803 99.713C204.803 99.713 274.862 142.826 350.311 142.826L350.311 169.771C368.203 169.771 382.646 176.453 382.646 191.328C382.646 205.125 365.509 220.968 348.802 223.231C342.982 265.377 320.24 300.73 285.641 318.73Z" fill="#fedaab" fill-rule="nonzero" opacity="1" stroke="none"/>
</g>
<path d="M204.803 99.714C156.3 148.217 113.187 148.217 113.187 148.217L113.187 142.828C113.187 142.828 107.582 8.09899 231.749 8.09899C355.7 8.09899 350.311 142.828 350.311 142.828C274.863 142.827 204.803 99.714 204.803 99.714Z" fill="#a67c52" fill-rule="nonzero" opacity="1" stroke="none"/>
<g opacity="1">
<path d="M493.139 417.675C493.139 365.664 450.825 323.35 398.814 323.35C365.984 323.35 336.126 340.04 318.979 367.421C304.99 359.051 297.614 353.399 293.74 349.727L293.74 323.514C326.42 304.727 348.785 271.109 355.946 229.983C374.553 224.672 390.745 207.298 390.745 191.331C390.745 175.11 378.56 164.338 358.41 162.106L358.41 142.977C358.568 138.398 359.973 75.325 320.416 34.154C298.641 11.49 268.81 0 231.75 0C194.592 0 164.706 11.514 142.924 34.221C103.443 75.378 104.923 138.344 105.09 142.982L105.09 162.106C84.939 164.338 72.755 175.11 72.755 191.331C72.755 207.298 88.949 224.67 107.554 229.983C114.716 271.117 137.087 304.739 169.76 323.516L169.76 349.706C159.543 359.347 135.823 372.786 126.206 377.851C21.144 411.942 18.906 474.186 18.863 476.824L18.862 512.001L404.203 512.001L404.203 511.843C453.715 509.039 493.139 467.877 493.139 417.675ZM185.956 331.273C200.096 336.76 215.441 339.546 231.75 339.546C247.931 339.546 263.273 336.746 277.544 331.229L277.544 349.885C272.013 355.668 254.496 371.852 231.75 371.852C209.152 371.852 191.513 355.635 185.956 349.868L185.956 331.273L185.956 331.273ZM154.681 45.36C173.285 26.008 199.215 16.196 231.75 16.196C264.192 16.196 290.072 25.989 308.668 45.303C336.375 74.077 341.279 116.962 342.09 134.547C273.028 131.623 209.702 93.219 209.049 92.818L203.602 89.465L199.079 93.988C165.889 127.178 135.322 136.497 121.264 139.107C121.43 125.901 124.183 77.083 154.681 45.36ZM122.718 222.127L121.877 216.035L115.783 215.209C104.066 213.622 88.95 201.757 88.95 191.33C88.95 178.842 107.502 177.871 113.187 177.871L121.285 177.871L121.285 155.567C136.119 153.351 169.388 144.572 206.048 109.804C223.545 119.618 279.869 148.402 342.217 150.765L342.212 177.87L350.31 177.87C355.996 177.87 374.547 178.841 374.547 191.329C374.547 201.756 359.431 213.621 347.714 215.208L341.62 216.034L340.779 222.126C335.22 262.38 313.76 294.972 281.919 311.537C266.764 319.376 249.885 323.35 231.748 323.35C213.411 323.35 196.545 319.382 181.593 311.545C149.737 294.972 128.277 262.379 122.718 222.127ZM35.058 495.804L35.058 477.104C35.11 476.152 36.035 463.161 47.541 446.915C67.804 418.303 104.565 401.829 131.838 393.048L132.493 392.837L133.103 392.518C136.457 390.767 162.505 377.012 177.584 364.383C186.908 373.16 206.453 388.048 231.75 388.048C257.026 388.048 276.561 373.182 285.893 364.403C291.897 369.442 300.404 375.221 311.564 381.856C306.87 393.287 304.489 405.301 304.489 417.675C304.489 450.141 320.977 478.828 346.019 495.804L35.058 495.804L35.058 495.804ZM398.814 495.804C355.733 495.804 320.685 460.755 320.685 417.675C320.685 405.325 323.546 393.391 329.191 382.202C342.556 355.89 369.232 339.546 398.813 339.546C441.894 339.546 476.942 374.595 476.942 417.675C476.942 460.755 441.895 495.804 398.814 495.804Z" fill="#231f20" fill-rule="nonzero" opacity="1" stroke="none"/>
<path d="M344.926 409.579L452.714 409.579L452.714 409.579L452.714 425.775L452.714 425.775L344.926 425.775L344.926 425.775L344.926 409.579L344.926 409.579Z" fill="#231f20" fill-rule="nonzero" opacity="1" stroke="none"/>
</g>
</g>
</svg>
