<?xml version="1.0" encoding="UTF-8" standalone="no"?>
<!DOCTYPE svg PUBLIC "-//W3C//DTD SVG 1.1//EN" "http://www.w3.org/Graphics/SVG/1.1/DTD/svg11.dtd">
<!-- Created with Vectornator (http://vectornator.io/) -->
<svg height="100%" stroke-miterlimit="10" style="fill-rule:nonzero;clip-rule:evenodd;stroke-linecap:round;stroke-linejoin:round;" version="1.1" viewBox="0 0 512.001 512.001" width="100%" xml:space="preserve" xmlns="http://www.w3.org/2000/svg" xmlns:xlink="http://www.w3.org/1999/xlink">
<defs/>
<clipPath id="ArtboardFrame">
<rect height="512.001" width="512.001" x="0" y="0"/>
</clipPath>
<g clip-path="url(#ArtboardFrame)" id="Untitled">
<path d="M356.612 388.897L439.39 306.12L469.893 336.622L398.325 408.299L355.535 450.981L309.835 466.178L325.032 420.478L356.612 388.897Z" fill="#cccccc" fill-rule="nonzero" opacity="1" stroke="none"/>
<path d="M189.656 318.73C205.285 326.922 223.5 331.448 243.548 331.448C263.596 331.448 281.811 326.813 297.44 318.73L297.44 353.006C297.44 353.006 275.237 379.951 243.548 379.951C211.859 379.951 189.656 353.006 189.656 353.006L189.656 318.73L189.656 318.73Z" fill="#fedaab" fill-rule="nonzero" opacity="1" stroke="none"/>
<path d="M356.612 388.897L325.031 420.478L309.834 466.178L355.534 450.981L398.324 408.299L399.833 409.808C448.12 440.958 448.336 476.958 448.336 476.958C448.336 476.958 448.336 488.814 448.336 503.903L38.759 503.903C38.759 488.813 38.759 476.958 38.759 476.958C38.759 476.958 39.729 418 141.154 385.342C141.154 385.342 177.909 366.157 189.657 353.007C189.657 353.007 211.86 379.952 243.549 379.952C275.238 379.952 297.441 353.007 297.441 353.007C309.189 366.157 345.944 385.342 345.944 385.342C349.714 386.526 353.164 387.712 356.612 388.897Z" fill="#3887de" fill-rule="nonzero" opacity="1" stroke="none"/>
<path d="M297.439 318.73C281.81 326.814 263.595 331.448 243.547 331.448C223.499 331.448 205.284 326.921 189.655 318.73C155.057 300.73 132.315 265.377 126.494 223.233C109.788 220.97 92.65 205.125 92.65 191.33C92.65 176.456 107.093 169.773 124.985 169.773L124.985 148.216C124.985 148.216 168.098 148.216 216.601 99.713C216.601 99.713 286.66 142.826 362.109 142.826L362.109 169.771C380.001 169.771 394.444 176.453 394.444 191.328C394.444 205.125 377.307 220.968 360.6 223.231C354.78 265.377 332.038 300.73 297.439 318.73Z" fill="#fedaab" fill-rule="nonzero" opacity="1" stroke="none"/>
<path d="M216.601 99.714C168.098 148.217 124.985 148.217 124.985 148.217L124.985 142.828C124.985 142.828 119.38 8.09899 243.547 8.09899C367.498 8.09899 362.109 142.828 362.109 142.828C286.661 142.827 216.601 99.714 216.601 99.714Z" fill="#a67c52" fill-rule="nonzero" opacity="1" stroke="none"/>
<g opacity="1">
<path d="M410.679 407.386L481.341 336.617L439.39 294.666L354.454 379.602C352.713 379.016 350.927 378.424 349.066 377.833C339.437 372.763 315.754 359.344 305.537 349.701L305.537 323.51C338.217 304.723 360.582 271.105 367.743 229.979C386.35 224.668 402.543 207.294 402.543 191.327C402.543 175.106 390.358 164.334 370.208 162.102L370.208 142.975C370.366 138.395 371.771 75.323 332.214 34.152C310.439 11.49 280.608 0 243.548 0C206.39 0 176.504 11.514 154.722 34.221C115.242 75.378 116.721 138.344 116.888 142.982L116.888 162.106C96.737 164.338 84.553 175.11 84.553 191.331C84.553 207.298 100.747 224.67 119.352 229.983C126.514 271.117 148.885 304.739 181.558 323.516L181.558 349.706C171.341 359.347 147.621 372.786 138.004 377.851C32.942 411.942 30.704 474.186 30.661 476.824L30.66 512.001L456.433 512.001L456.433 476.909C456.424 475.332 455.666 439.499 410.679 407.386ZM458.446 336.626L392.603 402.569L351.169 443.898L322.621 453.391L332.113 424.849L439.391 317.57L458.446 336.626ZM197.754 331.273C211.894 336.76 227.239 339.546 243.548 339.546C259.729 339.546 275.071 336.746 289.342 331.229L289.342 349.868C283.769 355.651 266.137 371.853 243.548 371.853C220.95 371.853 203.311 355.636 197.754 349.869L197.754 331.273L197.754 331.273ZM166.479 45.36C185.083 26.008 211.013 16.196 243.548 16.196C275.99 16.196 301.87 25.989 320.466 45.303C348.173 74.077 353.077 116.962 353.889 134.547C284.826 131.623 221.501 93.219 220.846 92.818L215.399 89.465L210.876 93.988C177.686 127.178 147.119 136.497 133.061 139.107C133.228 125.901 135.981 77.083 166.479 45.36ZM134.516 222.127L133.675 216.035L127.581 215.209C115.864 213.622 100.748 201.757 100.748 191.33C100.748 178.842 119.3 177.871 124.985 177.871L133.083 177.871L133.083 155.567C147.917 153.351 181.186 144.572 217.846 109.804C235.343 119.618 291.667 148.402 354.015 150.765L354.01 177.87L362.108 177.87C367.794 177.87 386.345 178.841 386.345 191.329C386.345 201.756 371.228 213.621 359.511 215.208L353.417 216.034L352.576 222.126C347.017 262.38 325.557 294.972 293.716 311.537C278.561 319.376 261.682 323.35 243.545 323.35C225.208 323.35 208.342 319.382 193.39 311.545C161.535 294.972 140.075 262.379 134.516 222.127ZM440.238 495.804L46.856 495.804L46.856 477.105C46.908 476.157 47.831 463.164 59.339 446.915C79.602 418.303 116.363 401.829 143.636 393.048L144.29 392.837L144.9 392.518C148.254 390.767 174.302 377.012 189.381 364.383C198.705 373.16 218.25 388.048 243.547 388.048C268.843 388.048 288.389 373.16 297.713 364.383C312.275 376.578 337.059 389.821 341.764 392.293L317.952 416.105L297.049 478.963L359.901 458.061L399.047 419.014C438.723 446.223 440.187 475.342 440.237 477.039L440.237 495.803L440.238 495.803L440.238 495.804Z" fill="#231f20" fill-rule="nonzero" opacity="1" stroke="none"/>
<path d="M195.04 425.743L275.878 425.743L275.878 425.743L275.878 441.939L275.878 441.939L195.04 441.939L195.04 441.939L195.04 425.743L195.04 425.743Z" fill="#231f20" fill-rule="nonzero" opacity="1" stroke="none"/>
<path d="M168.101 458.08L275.889 458.08L275.889 458.08L275.889 474.276L275.889 474.276L168.101 474.276L168.101 474.276L168.101 458.08L168.101 458.08Z" fill="#231f20" fill-rule="nonzero" opacity="1" stroke="none"/>
<path d="M130.376 458.08L151.933 458.08L151.933 458.08L151.933 474.276L151.933 474.276L130.376 474.276L130.376 474.276L130.376 458.08L130.376 458.08Z" fill="#231f20" fill-rule="nonzero" opacity="1" stroke="none"/>
</g>
</g>
</svg>
