<?xml version="1.0" encoding="UTF-8" standalone="no"?>
<!DOCTYPE svg PUBLIC "-//W3C//DTD SVG 1.1//EN" "http://www.w3.org/Graphics/SVG/1.1/DTD/svg11.dtd">
<!-- Created with Vectornator (http://vectornator.io/) -->
<svg height="100%" stroke-miterlimit="10" style="fill-rule:nonzero;clip-rule:evenodd;stroke-linecap:round;stroke-linejoin:round;" version="1.1" viewBox="0 0 512.001 512.001" width="100%" xml:space="preserve" xmlns="http://www.w3.org/2000/svg" xmlns:xlink="http://www.w3.org/1999/xlink">
<defs/>
<clipPath id="ArtboardFrame">
<rect height="512.001" width="512.001" x="0" y="0"/>
</clipPath>
<g clip-path="url(#ArtboardFrame)" id="Untitled">
<path d="M460.79 476.957C460.79 476.957 460.79 488.813 460.79 503.902L51.212 503.902C51.212 488.812 51.212 476.957 51.212 476.957C51.212 476.957 52.182 417.999 153.607 385.341C153.607 385.341 190.362 366.156 202.11 353.006C202.11 353.006 224.313 379.951 256.002 379.951C287.691 379.951 309.894 353.006 309.894 353.006C321.642 366.156 358.397 385.341 358.397 385.341C460.466 417.676 460.79 476.957 460.79 476.957Z" fill="#4083cd" fill-rule="nonzero" opacity="1" stroke="none"/>
<path d="M202.11 318.73C217.739 326.922 235.954 331.448 256.002 331.448C276.05 331.448 294.265 326.813 309.894 318.73L309.894 353.006C309.894 353.006 287.691 379.951 256.002 379.951C224.313 379.951 202.11 353.006 202.11 353.006L202.11 318.73L202.11 318.73Z" fill="#fedaab" fill-rule="nonzero" opacity="1" stroke="none"/>
<path d="M229.055 99.714C180.552 148.217 137.439 148.217 137.439 148.217L137.439 142.828C137.439 142.828 131.834 8.09899 256.001 8.09899C379.952 8.09899 374.563 142.828 374.563 142.828C299.115 142.827 229.055 99.714 229.055 99.714Z" fill="#a67c52" fill-rule="nonzero" opacity="1" stroke="none"/>
<path d="M309.893 318.73C294.264 326.814 276.049 331.448 256.001 331.448C235.953 331.448 217.738 326.921 202.109 318.73C167.511 300.73 144.769 265.377 138.948 223.233C122.242 220.97 105.104 205.125 105.104 191.33C105.104 176.456 119.547 169.773 137.439 169.773L137.439 148.216C137.439 148.216 180.552 148.216 229.055 99.713C229.055 99.713 299.114 142.826 374.563 142.826L374.563 169.771C392.455 169.771 406.898 176.453 406.898 191.328C406.898 205.125 389.761 220.968 373.054 223.231C367.234 265.377 344.492 300.73 309.893 318.73Z" fill="#fedaab" fill-rule="nonzero" opacity="1" stroke="none"/>
<path d="M361.527 377.839C351.902 372.771 328.209 359.349 317.991 349.704L317.991 323.513C350.671 304.726 373.036 271.108 380.197 229.982C398.804 224.671 414.996 207.297 414.996 191.33C414.996 175.109 402.811 164.337 382.661 162.105L382.661 142.976C382.819 138.397 384.224 75.324 344.667 34.153C322.893 11.49 293.062 0 256.002 0C218.844 0 188.958 11.514 167.176 34.221C127.696 75.378 129.175 138.344 129.342 142.982L129.342 162.106C109.191 164.338 97.007 175.11 97.007 191.331C97.007 207.298 113.201 224.67 131.806 229.983C138.968 271.117 161.339 304.739 194.012 323.516L194.012 349.706C183.795 359.347 160.075 372.786 150.458 377.851C45.396 411.942 43.158 474.186 43.115 476.824L43.114 512.001L468.887 512.001L468.887 476.912C468.873 474.256 467.32 411.619 361.527 377.839ZM210.208 331.273C224.348 336.76 239.693 339.546 256.002 339.546C272.183 339.546 287.525 336.746 301.796 331.229L301.796 349.868C296.223 355.651 278.591 371.853 256.002 371.853C233.413 371.853 215.78 355.65 210.208 349.868L210.208 331.273L210.208 331.273ZM178.932 45.36C197.537 26.008 223.467 16.196 256.002 16.196C288.444 16.196 314.324 25.989 332.92 45.303C360.627 74.077 365.531 116.962 366.342 134.547C297.28 131.623 233.954 93.219 233.301 92.818L227.854 89.465L223.331 93.988C190.141 127.178 159.574 136.497 145.516 139.107C145.681 125.901 148.435 77.083 178.932 45.36ZM146.97 222.127L146.129 216.035L140.035 215.209C128.318 213.622 113.202 201.757 113.202 191.33C113.202 178.842 131.754 177.871 137.439 177.871L145.537 177.871L145.537 155.567C160.371 153.351 193.641 144.572 230.3 109.804C247.797 119.618 304.121 148.402 366.469 150.765L366.464 177.87L374.562 177.87C380.248 177.87 398.799 178.841 398.799 191.329C398.799 201.756 383.683 213.621 371.966 215.208L365.872 216.034L365.031 222.126C359.472 262.38 338.012 294.972 306.171 311.537C291.016 319.376 274.137 323.35 256 323.35C237.663 323.35 220.797 319.382 205.845 311.545C173.989 294.972 152.529 262.379 146.97 222.127ZM452.692 495.804L59.31 495.804L59.31 477.105C59.362 476.157 60.285 463.164 71.793 446.915C92.056 418.303 128.817 401.829 156.09 393.048L156.744 392.837L157.354 392.518C160.708 390.767 186.756 377.012 201.835 364.383C211.159 373.16 230.704 388.048 256.001 388.048C281.297 388.048 300.843 373.16 310.167 364.383C325.247 377.012 351.294 390.768 354.648 392.518L355.275 392.846L355.95 393.06C383.385 401.751 420.313 418.123 440.44 446.767C452.002 463.22 452.667 476.379 452.693 477.045L452.692 495.804L452.692 495.804Z" fill="#231f20" fill-rule="nonzero" opacity="1" stroke="none"/>
</g>
</svg>
