<?xml version="1.0" encoding="iso-8859-1"?>
<!-- Generator: Adobe Illustrator 19.0.0, SVG Export Plug-In . SVG Version: 6.00 Build 0)  -->
<svg version="1.1" id="Layer_1" xmlns="http://www.w3.org/2000/svg" xmlns:xlink="http://www.w3.org/1999/xlink" x="0px" y="0px"
	 viewBox="0 0 496.162 496.162" style="enable-background:new 0 0 496.162 496.162;" xml:space="preserve">
<path style="fill:#D0E8EA;" d="M248.077,0C111.072,0,0.002,111.062,0.002,248.083c0,137.005,111.07,248.079,248.075,248.079
	c137.013,0,248.083-111.074,248.083-248.079C496.16,111.062,385.09,0,248.077,0z"/>
<path style="fill:#54890A;" d="M24.024,354.704c39.875,83.651,125.216,141.458,224.053,141.458
	c98.783,0,184.071-57.727,223.983-141.286L24.024,354.704z"/>
<g style="opacity:0.5;">
	<path style="fill:#F9F9F9;" d="M404.774,55.78c-5.981-4.885-12.194-9.502-18.621-13.82c-26.371-17.696-56.315-30.472-88.539-37.002
		c-0.987-0.199-1.989-0.344-2.983-0.532C279.544,1.561,263.998,0,248.077,0c-19.884,0-39.193,2.406-57.723,6.824
		c-6.687,1.595-13.273,3.455-19.746,5.581c-28.031,9.211-53.845,23.277-76.467,41.209c-10.917,8.657-21.115,18.17-30.426,28.51
		c-19.387,21.521-35.009,46.469-45.957,73.801c10.466,18.847,29.386,32.675,52.406,35.602c20.603,2.616,40.203-4.055,54.747-16.678
		c10.718,11.215,25.192,18.981,41.787,21.092c14.489,1.84,28.513-0.899,40.616-7.073c10.979,14.494,27.534,24.75,46.997,27.224
		c27.504,3.493,53.247-9.509,67.462-31.252c9.548,7.375,21.077,12.439,33.915,14.069c22.859,2.904,44.495-5.607,59.329-21.031
		c24.237-1.955,45.528-16.476,56.499-37.698C455.643,107.36,432.737,78.59,404.774,55.78z"/>
</g>
<g style="opacity:0.5;">
	<path style="fill:#FFFFFF;" d="M372.956,33.75c-5.661-3.305-11.43-6.45-17.366-9.307c-14.016-6.751-28.781-12.195-44.113-16.234
		c-0.787-0.21-1.568-0.42-2.363-0.62c-15.424-3.905-31.421-6.373-47.839-7.233C256.907,0.127,252.507,0,248.078,0
		c-11.797,0-23.388,0.88-34.756,2.475c-21.835,3.064-42.767,8.924-62.39,17.286c-0.957,0.406-1.883,0.861-2.831,1.282
		c-8.684,3.825-17.099,8.136-25.224,12.898C95.488,49.988,71.473,71.13,52.095,96.083c-0.712,0.906-1.438,1.794-2.135,2.712
		c0.91,0.367,1.859,0.654,2.785,0.987c5.905,31.172,31.986,55.818,65.136,58.396c14.979,1.163,29.232-2.353,41.352-9.303
		c12.003,14.333,29.516,24.034,49.628,25.599c28.422,2.204,54.196-12.439,67.707-35.483c10.176,7.1,22.271,11.717,35.537,12.75
		c23.617,1.836,45.405-7.995,59.865-24.577c26.853-3.489,49.43-21.942,58.442-47.253C413.719,61.816,394.354,46.244,372.956,33.75z"
		/>
</g>
<path style="fill:#F9F9F9;" d="M248.077,0c-74.669,0-141.58,33.039-187.063,85.242c4.101-0.379,8.117-1.075,12.012-2.077
	c12.555,23.021,36.967,38.639,65.037,38.639c18.728,0,35.789-7.012,48.825-18.483c13.044,11.472,30.104,18.483,48.833,18.483
	c32.117,0,59.383-20.488,69.635-49.082c12.271,9.031,27.374,14.433,43.776,14.433c23.885,0,45.062-11.354,58.603-28.904
	C364.579,21.923,308.898,0,248.077,0z"/>
<g>
	<path style="fill:#3B5563;" d="M402.479,242.192c-0.94-10.064-4.965-17.592-11.651-21.777c-5.922-3.699-13.473-4.541-22.446-2.494
		c-10.565,2.414-17.344,10.061-17.26,19.478c0.068,9.001,6.449,16.303,15.852,18.174c1.852,0.367,3.68-0.662,4.108-2.284
		c0.429-1.629-0.712-3.248-2.548-3.611c-7.245-1.438-10.526-7.253-10.573-12.378c-0.045-5.199,3.106-11.483,12.082-13.53
		c6.938-1.583,12.584-1.052,16.799,1.584c4.927,3.083,8.063,9.261,8.813,17.382c0.543,5.849-1.645,10.623-6.687,14.601
		c-39.155,30.896-221.573-0.509-223.417-0.834c-1.837-0.314-3.657,0.742-4.04,2.379s0.804,3.225,2.655,3.546
		c5.394,0.941,96.458,16.617,164.325,14.241c28.383-0.991,52.719-5.141,65.014-14.846
		C400.177,256.56,403.199,249.957,402.479,242.192z"/>
	<path style="fill:#3B5563;" d="M377.723,314.623c-31.397-28.964-208.27-7.448-215.79-6.514c-1.874,0.233-3.19,1.76-2.945,3.412
		c0.252,1.648,1.974,2.827,3.841,2.57c50.226-6.216,185.846-17.493,209.93,4.728c2.854,2.632,3.886,5.627,3.151,9.15
		c-1.277,6.082-4.131,10.531-8.04,12.546c-3.313,1.699-7.544,1.771-12.57,0.21c-6.38-1.981-8.155-6.736-7.688-10.523
		c0.459-3.718,3.32-7.766,8.668-8.416c1.874-0.226,3.198-1.756,2.953-3.405c-0.237-1.652-1.936-2.808-3.825-2.578
		c-7.826,0.949-13.694,6.495-14.598,13.798c-0.94,7.631,3.833,14.233,12.165,16.823c3.48,1.083,6.74,1.568,9.777,1.461
		c3.083-0.107,5.937-0.826,8.522-2.158c5.77-2.968,9.693-8.744,11.361-16.712C383.782,323.532,382.129,318.689,377.723,314.623z"/>
	<path style="fill:#3B5563;" d="M474.233,254.712c-1.07-11.529-5.669-20.144-13.288-24.918c-6.74-4.208-15.355-5.156-25.599-2.815
		c-12.004,2.739-19.7,11.426-19.616,22.125c0.092,10.213,7.313,18.502,17.979,20.622c1.852,0.364,3.68-0.662,4.116-2.287
		c0.429-1.626-0.72-3.244-2.556-3.611c-8.698-1.725-12.639-8.691-12.692-14.823c-0.053-6.216,3.711-13.732,14.43-16.181
		c8.209-1.875,14.918-1.232,19.944,1.913c5.86,3.665,9.571,10.952,10.458,20.522c0.49,5.218-1.162,9.54-5.034,13.212
		c-17.137,16.242-74.523,17.11-131.841,16.609c-79.933-0.704-166.926-2.176-167.798-2.191c-1.905-0.073-3.458,1.293-3.512,2.96
		c-0.054,1.668,1.431,3.045,3.32,3.076c0.872,0.019,87.896,1.488,167.867,2.192c19.08,0.168,37.694,0.188,54.869-0.413
		c38.008-1.332,68.946-5.685,82.082-18.136C472.559,267.638,474.876,261.628,474.233,254.712z"/>
</g>
<path style="fill:#351F0D;" d="M161.627,168.418l-15.187-8.255c-49.697,64.065-47.181,263.973-47.181,263.973l9.303,7.345
	l8.309-5.145C107.224,412.836,126.213,172.5,161.627,168.418z"/>
<path style="fill:#68B147;" d="M301.998,228.1c-70.53-52.907-146.147-76.467-146.147-76.467
	c50.7,52.999,108.583,96.415,108.583,96.415C325.653,283.268,301.998,228.1,301.998,228.1z"/>
<path style="fill:#86C06D;" d="M155.851,151.633c50.7,52.999,108.583,96.415,108.583,96.415
	c27.236,15.672,37.672,13.454,40.869,6.163C309.297,245.111,155.851,151.633,155.851,151.633z"/>
<path style="fill:#68B147;" d="M154.374,156.522c32.155-60.443,124.741-69.444,124.741-69.444
	C181.388-5.512,154.374,156.522,154.374,156.522z"/>
<path style="fill:#86C06D;" d="M154.374,156.522c32.155-60.443,124.741-69.444,124.741-69.444
	C192.955,34.358,154.374,156.522,154.374,156.522z"/>
<path style="fill:#68B147;" d="M158.038,148.814c0,0,136.769-71.949,209.938,5.546C367.976,154.36,316.786,36.761,158.038,148.814z"
	/>
<path style="fill:#86C06D;" d="M158.038,148.814c0,0,133.602-43.994,209.938,5.546C367.976,154.36,311.89,76.735,158.038,148.814z"
	/>
<path style="fill:#68B147;" d="M158.375,153.423c163.543-13.216,203.294,44.506,204.707,46.643
	C306.543,109.789,158.375,153.423,158.375,153.423z"/>
<path style="fill:#86C06D;" d="M158.375,153.423c0,0,135.077,11.671,204.751,46.71C363.126,200.133,316.251,136.512,158.375,153.423
	z"/>
<path style="fill:#F1E042;" d="M158.604,142.453c-4.024-2.808-13.319,2.605-17.16,8.113c-3.84,5.512-0.765,9.027,3.26,11.828
	c4.023,2.808,7.475,3.84,11.314-1.664C159.859,155.217,162.629,145.256,158.604,142.453z"/>
<path style="fill:#FCEE35;" d="M175.191,149.204c-4.292-5.405-14.666-8.404-16.916-6.614c-1.262,1.002-1.683,12.574,2.617,17.979
	c4.292,5.405,8.981,4.736,12.929,1.587C177.776,159.023,179.482,154.609,175.191,149.204z"/>
<path style="fill:#FCEF57;" d="M157.84,140.574c-1.997,0-11.399,10.979-11.399,19.589c0,8.614,5.103,11.598,11.399,11.598
	c6.288,0,11.392-2.984,11.392-11.598C169.231,151.553,161.435,140.574,157.84,140.574z"/>
<g>
</g>
<g>
</g>
<g>
</g>
<g>
</g>
<g>
</g>
<g>
</g>
<g>
</g>
<g>
</g>
<g>
</g>
<g>
</g>
<g>
</g>
<g>
</g>
<g>
</g>
<g>
</g>
<g>
</g>
</svg>
